SplineFontDB: 3.0
FontName: Perplext
FullName: Perplext
FamilyName: Perplext
Weight: Normal
Copyright: (C) IBM Corp. Modified by Luke Nilaratna <3 
Version: 3.0
ItalicAngle: 0
UnderlinePosition: -170
UnderlineWidth: 60
Ascent: 780
Descent: 220
InvalidEm: 0
sfntRevision: 0x00030000
LayerCount: 2
Layer: 0 0 "Back" 1
Layer: 1 0 "Fore" 0
XUID: [1021 558 -65889817 17050]
StyleMap: 0x0040
FSType: 0
OS2Version: 3
OS2_WeightWidthSlopeOnly: 0
OS2_UseTypoMetrics: 0
CreationTime: 1513961913
ModificationTime: 1547134599
PfmFamily: 17
TTFWeight: 400
TTFWidth: 5
LineGap: 0
VLineGap: 0
Panose: 2 11 5 9 5 2 3 0 2 3
OS2TypoAscent: 780
OS2TypoAOffset: 0
OS2TypoDescent: -220
OS2TypoDOffset: 0
OS2TypoLinegap: 300
OS2WinAscent: 1025
OS2WinAOffset: 0
OS2WinDescent: 275
OS2WinDOffset: 0
HheadAscent: 1025
HheadAOffset: 0
HheadDescent: -275
HheadDOffset: 0
OS2SubXSize: 650
OS2SubYSize: 600
OS2SubXOff: 0
OS2SubYOff: 75
OS2SupXSize: 650
OS2SupYSize: 600
OS2SupXOff: 0
OS2SupYOff: 350
OS2StrikeYSize: 60
OS2StrikeYPos: 309
OS2CapHeight: 698
OS2XHeight: 516
OS2Vendor: 'IBM '
OS2CodePages: 20000197.00000000
OS2UnicodeRanges: a000026f.5000207b.00000000.00000000
Lookup: 1 0 0 "'aalt' Access All Alternates lookup 0" { "'aalt' Access All Alternates lookup 0 subtable"  } ['aalt' ('DFLT' <'dflt' > 'cyrl' <'dflt' > 'latn' <'dflt' > ) ]
Lookup: 3 0 0 "'aalt' Access All Alternates lookup 1" { "'aalt' Access All Alternates lookup 1 subtable"  } ['aalt' ('DFLT' <'dflt' > 'cyrl' <'dflt' > 'latn' <'dflt' > ) ]
Lookup: 4 0 0 "'ccmp' Glyph Composition/Decomposition lookup 2" { "'ccmp' Glyph Composition/Decomposition lookup 2 subtable"  } ['ccmp' ('DFLT' <'dflt' > 'cyrl' <'dflt' > 'latn' <'dflt' > ) ]

StartChar: .notdef
Encoding: 65536 -1 0
Width: 600
Flags: MW
HStem: 0 60<92 508 92 568> 720 60<92 508 92 92>
VStem: 32 60<60 60 60 720> 508 60<60 720 720 720>
LayerCount: 2
Fore
SplineSet
32 0 m 1
 32 780 l 1
 568 780 l 1
 568 0 l 1
 32 0 l 1
92 60 m 1
 508 60 l 1
 508 720 l 1
 92 720 l 1
 92 60 l 1
EndSplineSet
EndChar

StartChar: a
Encoding: 97 97 1
Width: 600
GlyphClass: 2
Flags: MW
HStem: -12 67<224 285> 0 70<478 495 495 550> 235 60<240.5 398 288 398> 460 68<240.5 314>
VStem: 66 84<109.5 136 136 157 109.5 192.5> 398 80<84 84 150 235 235 235 295 346 346 354 70 383.5>
AnchorPoint: "Anchor-2" 283 516 basechar 0
AnchorPoint: "Anchor-1" 550 0 basechar 0
AnchorPoint: "Anchor-0" 283 0 basechar 0
LayerCount: 2
Fore
SplineSet
550 0 m 1x7c
 495 0 l 2x7c
 433 0 409 36 403 84 c 1
 398 84 l 1
 376 25 327 -12 243 -12 c 0xbc
 135 -12 66 48 66 145 c 0
 66 240 133 295 288 295 c 2
 398 295 l 1
 398 346 l 2
 398 421 353 460 275 460 c 0
 206 460 164 431 137 384 c 1
 83 424 l 1
 109 478 175 528 280 528 c 0
 401 528 478 463 478 354 c 2
 478 70 l 1
 550 70 l 1
 550 0 l 1x7c
257 55 m 0xbc
 339 55 398 97 398 150 c 2
 398 235 l 1
 288 235 l 2
 193 235 150 207 150 157 c 2
 150 136 l 2
 150 83 191 55 257 55 c 0xbc
EndSplineSet
Substitution2: "'salt' Stylistic Alternatives lookup 16 subtable" a.alt01
Substitution2: "'ss01' Style Set 1 lookup 11 subtable" a.alt01
Substitution2: "'ordn' Ordinals lookup 4 subtable" ordfeminine
Substitution2: "'aalt' Access All Alternates lookup 0 subtable" a.alt01
EndChar

StartChar: a.alt01
Encoding: 65537 -1 2
Width: 600
GlyphClass: 2
Flags: MW
HStem: -12 71<246.5 298> 0 21G<425 425 425 505> 457 71<246.5 298 199 328.5> 496 20G<425 505 505 505>
VStem: 60 86<173.5 214 214 302> 425 80<0 84 84 84 165 351 351 385.5 432 516 0 516>
AnchorPoint: "Anchor-2" 287 516 basechar 0
AnchorPoint: "Anchor-1" 505 0 basechar 0
AnchorPoint: "Anchor-0" 287 0 basechar 0
LayerCount: 2
Fore
SplineSet
425 0 m 1x5c
 425 84 l 1
 421 84 l 1
 388 21 334 -12 262 -12 c 0
 136 -12 60 89 60 258 c 0
 60 427 136 528 262 528 c 0xac
 334 528 388 495 421 432 c 1
 425 432 l 1
 425 516 l 1
 505 516 l 1
 505 0 l 1
 425 0 l 1x5c
293 59 m 0xac
 364 59 425 96 425 165 c 2
 425 351 l 2
 425 420 364 457 293 457 c 0
 200 457 146 395 146 302 c 2
 146 214 l 2
 146 121 200 59 293 59 c 0xac
EndSplineSet
EndChar

StartChar: b
Encoding: 98 98 3
Width: 600
GlyphClass: 2
Flags: MW
HStem: -12 71<302 353.5 271.5 401> 0 21G<95 95 95 175> 457 71<302 353.5> 720 20G<95 175 175 175>
VStem: 95 80<0 84 130.5 165 165 351 432 740> 454 86<214 302 302 342.5 173.5 348.5>
AnchorPoint: "Anchor-0" 317 0 basechar 0
LayerCount: 2
Fore
SplineSet
95 0 m 1x7c
 95 740 l 1
 175 740 l 1
 175 432 l 1
 179 432 l 1
 212 495 266 528 338 528 c 0
 464 528 540 427 540 258 c 0
 540 89 464 -12 338 -12 c 0xbc
 266 -12 212 21 179 84 c 1
 175 84 l 1
 175 0 l 1
 95 0 l 1x7c
307 59 m 0xbc
 400 59 454 121 454 214 c 2
 454 302 l 2
 454 395 400 457 307 457 c 0
 236 457 175 420 175 351 c 2
 175 165 l 2
 175 96 236 59 307 59 c 0xbc
EndSplineSet
EndChar

StartChar: c
Encoding: 99 99 4
Width: 600
GlyphClass: 2
Flags: MW
HStem: -12 69<270.5 353.5 270.5 369.5> 459 69<270 349>
VStem: 84 86<176.5 214 214 302>
AnchorPoint: "Anchor-2" 313 516 basechar 0
AnchorPoint: "Anchor-0" 303 0 basechar 0
LayerCount: 2
Fore
SplineSet
318 -12 m 0
 170 -12 84 95 84 258 c 0
 84 422 171 528 317 528 c 0
 417 528 479 479 508 409 c 1
 444 375 l 1
 425 428 381 459 317 459 c 0
 223 459 170 393 170 302 c 2
 170 214 l 2
 170 123 222 57 319 57 c 0
 388 57 433 91 459 147 c 1
 516 108 l 1
 486 39 421 -12 318 -12 c 0
EndSplineSet
EndChar

StartChar: d
Encoding: 100 100 5
Width: 600
GlyphClass: 2
Flags: MW
HStem: -12 71<246.5 298> 0 21G<425 425 425 505> 457 71<246.5 298 199 328.5> 720 20G<425 505 505 505>
VStem: 60 86<173.5 214 214 302> 425 80<0 84 84 84 165 351 351 385.5 432 740 0 740>
AnchorPoint: "Anchor-3" 567 740 basechar 0
AnchorPoint: "Anchor-0" 282 0 basechar 0
LayerCount: 2
Fore
SplineSet
425 0 m 1x7c
 425 84 l 1
 421 84 l 1
 388 21 334 -12 262 -12 c 0xbc
 136 -12 60 89 60 258 c 0
 60 427 136 528 262 528 c 0
 334 528 388 495 421 432 c 1
 425 432 l 1
 425 740 l 1
 505 740 l 1
 505 0 l 1
 425 0 l 1x7c
293 59 m 0xbc
 364 59 425 96 425 165 c 2
 425 351 l 2
 425 420 364 457 293 457 c 0
 200 457 146 395 146 302 c 2
 146 214 l 2
 146 121 200 59 293 59 c 0xbc
EndSplineSet
EndChar

StartChar: e
Encoding: 101 101 6
Width: 600
GlyphClass: 2
Flags: MW
HStem: -12 69<260.5 343.5 260.5 360> 238 60<151 447 151 533 151 447> 462 66<260 346.5>
VStem: 67 84<175.5 214 214 238 298 305> 447 86<238 309 238 354.5>
AnchorPoint: "Anchor-2" 302 516 basechar 0
AnchorPoint: "Anchor-1" 391 0 basechar 0
AnchorPoint: "Anchor-0" 309 0 basechar 0
LayerCount: 2
Fore
SplineSet
309 -12 m 0
 161 -12 67 94 67 257 c 0
 67 422 164 528 304 528 c 0
 443 528 533 422 533 276 c 2
 533 238 l 1
 151 238 l 1
 151 214 l 2
 151 123 212 57 309 57 c 0
 378 57 430 91 457 147 c 1
 516 107 l 1
 485 38 411 -12 309 -12 c 0
304 462 m 0
 216 462 151 395 151 305 c 2
 151 298 l 1
 447 298 l 1
 447 309 l 2
 447 400 389 462 304 462 c 0
EndSplineSet
EndChar

StartChar: f
Encoding: 102 102 7
Width: 600
GlyphClass: 2
Flags: MW
HStem: -212 70<191 191 191 226> 449 67<134 307 123 318 396 594> 673 67<468 630 422 641>
VStem: -16 657
LayerCount: 2
Fore
SplineSet
196 -212 m 0
 154 -212 125 -180 45 -93 c 2
 -16 -26 l 1
 37 22 l 1
 191 -142 l 1
 209 -138 l 1
 307 449 l 1
 123 449 l 1
 134 516 l 1
 318 516 l 1
 336 623 l 2
 347 691 391 740 468 740 c 2
 641 740 l 1
 630 673 l 1
 422 673 l 1
 396 516 l 1
 605 516 l 1
 594 449 l 1
 385 449 l 1
 292 -107 l 2
 283 -163 256 -212 196 -212 c 0
EndSplineSet
EndChar

StartChar: g
Encoding: 103 103 8
Width: 600
GlyphClass: 2
Flags: MW
HStem: -212 64<260 338 338 384.5 260 387> 5 74<257 371 371 374 195 371> 172 62<288.5 337 257.5 357.5> 466 62<257.5 316.5 236.5 337> 516 70<399 556 440 556 461 556 461 556>
VStem: 67 76<-87.5 -56.5> 97 84<313.5 336 336 365 305.5 402.5> 105 69<101.5 124.5> 414 84<336 365 365 377 297.5 395.5> 486 75<-91 -42.5>
AnchorPoint: "Anchor-2" 297 516 basechar 0
LayerCount: 2
Fore
SplineSet
561 -59 m 0xf140
 561 -163 473 -212 301 -212 c 0
 135 -212 67 -166 67 -84 c 0xf440
 67 -29 98 1 151 15 c 1
 151 27 l 1
 122 41 105 63 105 98 c 0xf180
 105 151 145 175 198 188 c 1
 198 192 l 1
 135 220 97 277 97 350 c 0
 97 455 176 528 297 528 c 0xf280
 336 528 370 521 399 507 c 1
 399 516 l 2
 399 556 416 586 461 586 c 2
 556 586 l 1
 556 516 l 1
 440 516 l 1
 440 481 l 1
 477 449 498 404 498 350 c 0xec80
 498 245 418 172 297 172 c 0
 280 172 264 173 248 176 c 1
 217 170 174 152 174 117 c 0
 174 86 208 79 257 79 c 2
 371 79 l 2
 504 79 561 25 561 -59 c 0xf140
486 -63 m 0
 486 -22 457 5 374 5 c 2
 195 5 l 1
 161 -9 143 -32 143 -65 c 0
 143 -110 176 -148 260 -148 c 2
 338 -148 l 2
 431 -148 486 -119 486 -63 c 0
297 234 m 0
 377 234 414 275 414 336 c 2
 414 365 l 2
 414 426 377 466 297 466 c 0
 218 466 181 426 181 365 c 2
 181 336 l 2xf280
 181 275 218 234 297 234 c 0
EndSplineSet
Substitution2: "'salt' Stylistic Alternatives lookup 16 subtable" g.alt01
Substitution2: "'ss02' Style Set 2 lookup 12 subtable" g.alt01
AlternateSubs2: "'aalt' Access All Alternates lookup 1 subtable" g.alt01 g.alt02
EndChar

StartChar: g.alt01
Encoding: 65538 -1 9
Width: 600
GlyphClass: 2
Flags: MW
HStem: -212 70<249.5 327.5 249.5 350> 2 71<246.5 298> 457 71<246.5 298 199 328.5> 496 20G<425 505 505 505>
VStem: 60 86<184 228 228 302 181.5 346> 425 80<12 17 17 98 98 98 179 351 351 385.5 432 516>
AnchorPoint: "Anchor-2" 287 516 basechar 0
LayerCount: 2
Fore
SplineSet
505 516 m 1xdc
 505 17 l 2
 505 -125 422 -212 278 -212 c 0
 194 -212 134 -183 93 -141 c 1
 140 -86 l 1
 175 -122 220 -142 279 -142 c 0
 376 -142 425 -90 425 12 c 2
 425 98 l 1
 421 98 l 1
 388 35 334 2 262 2 c 0
 136 2 60 103 60 265 c 0
 60 427 136 528 262 528 c 0xec
 334 528 388 495 421 432 c 1
 425 432 l 1
 425 516 l 1
 505 516 l 1xdc
293 73 m 0xdc
 364 73 425 110 425 179 c 2
 425 351 l 2
 425 420 364 457 293 457 c 0xec
 200 457 146 395 146 302 c 2
 146 228 l 2
 146 135 200 73 293 73 c 0xdc
EndSplineSet
EndChar

StartChar: g.alt02
Encoding: 65539 -1 10
Width: 600
GlyphClass: 2
Flags: MW
HStem: -212 64<260 338 338 384.5 260 387> 5 74<257 371 371 374 195 371> 172 62<288.5 337 257.5 357.5> 452 64<462 556 462 462> 466 62<257.5 311.5 236.5 337>
VStem: 67 76<-87.5 -56.5> 97 84<313.5 336 336 365 305.5 402.5> 105 69<101.5 124.5> 414 84<336 365 365 369 297.5 395.5> 486 75<-91 -42.5>
AnchorPoint: "Anchor-2" 300 516 basechar 0
LayerCount: 2
Fore
SplineSet
301 -212 m 0xf140
 135 -212 67 -166 67 -84 c 0xf480
 67 -29 98 1 151 15 c 1
 151 27 l 1
 122 41 105 63 105 98 c 0xf180
 105 151 145 175 198 188 c 1
 198 192 l 1
 135 220 97 277 97 350 c 0
 97 455 176 528 297 528 c 0xea80
 326 528 352 524 375 516 c 1
 556 516 l 1
 556 452 l 1
 462 452 l 1
 487 425 498 388 498 350 c 0xf480
 498 245 418 172 297 172 c 0
 280 172 264 173 248 176 c 1
 217 170 174 152 174 117 c 0
 174 86 208 79 257 79 c 2
 371 79 l 2
 504 79 561 25 561 -59 c 0
 561 -163 473 -212 301 -212 c 0xf140
297 234 m 0
 377 234 414 275 414 336 c 2
 414 365 l 2
 414 426 377 466 297 466 c 0
 218 466 181 426 181 365 c 2
 181 336 l 2xea80
 181 275 218 234 297 234 c 0
486 -63 m 0xf440
 486 -22 457 5 374 5 c 2
 195 5 l 1
 161 -9 143 -32 143 -65 c 0
 143 -110 176 -148 260 -148 c 2
 338 -148 l 2
 431 -148 486 -119 486 -63 c 0xf440
EndSplineSet
EndChar

StartChar: h
Encoding: 104 104 11
Width: 600
GlyphClass: 2
Flags: MW
HStem: 0 21G<98 98 98 178 428 428 428 508> 457 71<286.5 345.5> 720 20G<98 178 178 178>
VStem: 98 80<0 358 432 740> 428 80<0 317 317 331 0 364>
AnchorPoint: "Anchor-2" 138 698 basechar 0
AnchorPoint: "Anchor-0" 303 0 basechar 0
LayerCount: 2
Fore
SplineSet
98 0 m 1
 98 740 l 1
 178 740 l 1
 178 432 l 1
 182 432 l 1
 204 483 244 528 329 528 c 0
 437 528 508 456 508 331 c 2
 508 0 l 1
 428 0 l 1
 428 317 l 2
 428 411 385 457 306 457 c 0
 242 457 178 426 178 358 c 2
 178 0 l 1
 98 0 l 1
EndSplineSet
EndChar

StartChar: i
Encoding: 105 105 12
Width: 600
GlyphClass: 2
Flags: HMW
HStem: -12 69<247 295> 449 67<93 268 82 359> 631 117<332 360>
VStem: 195 77<37 66> 282 128<660.5 718.5>
AnchorPoint: "Anchor-1" 383 0 basechar 0
AnchorPoint: "Anchor-0" 325 0 basechar 0
LayerCount: 2
Fore
SplineSet
340 631 m 0
 297 631 282 650 282 671 c 0
 282 679 284 688 286 700 c 0
 291 730 312 748 352 748 c 0
 395 748 410 729 410 708 c 0
 410 700 408 691 406 679 c 0
 401 649 380 631 340 631 c 0
333 -12 m 0
 283 -12 256 17 256 57 c 0
 256 70 259 85 261 97 c 2
 268 449 l 1
 82 449 l 1
 93 516 l 1
 359 516 l 1
 333 66 l 1
 356 57 l 1
 553 227 l 1
 600 183 l 1
 509 99 l 2
 415 12 378 -12 333 -12 c 0
EndSplineSet
Substitution2: "Single Substitution lookup 17 subtable" dotlessi
EndChar

StartChar: j
Encoding: 106 106 13
Width: 600
Flags: MW
HStem: -200 68<102 352 102 318> 448 68<93 352 93 432> 630 118<369 415>
VStem: 329 126<681 697 666.5 711.5> 352 80<-116.5 -82 -82 448 448 448>
LayerCount: 2
Fore
SplineSet
102 -200 m 1xe8
 102 -132 l 1
 352 -132 l 1
 352 448 l 1
 93 448 l 1
 93 516 l 1
 432 516 l 1
 432 -82 l 2
 432 -151 396 -200 318 -200 c 2
 102 -200 l 1xe8
392 630 m 0
 346 630 329 652 329 681 c 2
 329 697 l 2
 329 726 346 748 392 748 c 0
 438 748 455 726 455 697 c 2
 455 681 l 2xf0
 455 652 438 630 392 630 c 0
EndSplineSet
Substitution2: "Single Substitution lookup 17 subtable" uni0237
EndChar

StartChar: k
Encoding: 107 107 14
Width: 600
GlyphClass: 2
Flags: MW
HStem: -12 68<394 394 394 398> 0 21G<59 59 59 137> 461 67<341 382> 720 20G<183 261 261 261>
VStem: 439 80<370 409.5>
AnchorPoint: "Anchor-0" 251 0 basechar 0
LayerCount: 2
Fore
SplineSet
59 0 m 1x78
 183 740 l 1
 261 740 l 1
 203 394 l 1
 207 394 l 1
 244 473 298 528 384 528 c 0
 466 528 519 478 519 401 c 0
 519 339 485 256 310 213 c 1
 381 58 l 1
 394 56 l 1
 527 178 l 1
 570 133 l 1
 499 62 l 2
 447 10 417 -12 379 -12 c 0xb8
 345 -12 323 5 302 51 c 2
 221 227 l 1
 388 268 439 325 439 386 c 0
 439 433 409 461 355 461 c 0
 304 461 270 436 242 402 c 0
 213 366 192 328 185 285 c 2
 137 0 l 1
 59 0 l 1x78
EndSplineSet
EndChar

StartChar: l
Encoding: 108 108 15
Width: 600
GlyphClass: 2
Flags: MW
HStem: 0 68<80 260 80 260 340 520> 672 68<80 260 80 340>
VStem: 260 80<68 672 672 672>
AnchorPoint: "Anchor-3" 426 740 basechar 0
AnchorPoint: "Anchor-2" 300 698 basechar 0
AnchorPoint: "Anchor-0" 300 0 basechar 0
LayerCount: 2
Fore
SplineSet
80 0 m 1
 80 68 l 1
 260 68 l 1
 260 672 l 1
 80 672 l 1
 80 740 l 1
 340 740 l 1
 340 68 l 1
 520 68 l 1
 520 0 l 1
 80 0 l 1
EndSplineSet
EndChar

StartChar: m
Encoding: 109 109 16
Width: 600
GlyphClass: 2
Flags: MW
HStem: 0 21G<54 128 54 54 263 263 263 337 472 472 472 546> 462 66<202.5 224.5 409.5 433> 496 20G<54 128 128 128>
VStem: 54 74<0 379 456 516> 263 74<0 345 345 379 0 389> 472 74<0 345 345 358 0 389>
AnchorPoint: "Anchor-2" 300 516 basechar 0
AnchorPoint: "Anchor-0" 300 0 basechar 0
LayerCount: 2
Fore
SplineSet
128 0 m 1xdc
 54 0 l 1
 54 516 l 1
 128 516 l 1xbc
 128 456 l 1
 132 456 l 1
 148 496 174 528 231 528 c 0
 290 528 319 495 325 447 c 1
 328 447 l 1
 347 494 379 528 440 528 c 0
 524 528 546 467 546 358 c 2
 546 0 l 1
 472 0 l 1
 472 345 l 2
 472 433 457 462 409 462 c 0
 367 462 337 434 337 379 c 2
 337 0 l 1
 263 0 l 1
 263 345 l 2
 263 433 248 462 201 462 c 0
 158 462 128 434 128 379 c 2
 128 0 l 1xdc
EndSplineSet
EndChar

StartChar: n
Encoding: 110 110 17
Width: 600
GlyphClass: 2
Flags: MW
HStem: 0 21G<98 178 98 98 428 428 428 508> 457 71<286.5 345.5> 496 20G<98 178 178 178>
VStem: 98 80<0 358 432 516> 428 80<0 317 317 331 0 364>
AnchorPoint: "Anchor-2" 303 516 basechar 0
AnchorPoint: "Anchor-0" 303 0 basechar 0
LayerCount: 2
Fore
SplineSet
178 0 m 1xd8
 98 0 l 1
 98 516 l 1
 178 516 l 1xb8
 178 432 l 1
 182 432 l 1
 204 483 244 528 329 528 c 0
 437 528 508 456 508 331 c 2
 508 0 l 1
 428 0 l 1
 428 317 l 2
 428 411 385 457 306 457 c 0
 242 457 178 426 178 358 c 2
 178 0 l 1xd8
EndSplineSet
EndChar

StartChar: o
Encoding: 111 111 18
Width: 600
GlyphClass: 2
Flags: MW
HStem: -12 69<255.5 344.5 255.5 372.5> 459 69<255.5 344.5>
VStem: 66 85<176 221 221 295 165.5 340> 449 85<221 295 295 340 176 350.5>
AnchorPoint: "Anchor-2" 300 516 basechar 0
AnchorPoint: "Anchor-0" 300 0 basechar 0
LayerCount: 2
Fore
SplineSet
300 -12 m 0
 155 -12 66 94 66 258 c 0
 66 422 155 528 300 528 c 0
 445 528 534 422 534 258 c 0
 534 94 445 -12 300 -12 c 0
300 57 m 0
 389 57 449 110 449 221 c 2
 449 295 l 2
 449 406 389 459 300 459 c 0
 211 459 151 406 151 295 c 2
 151 221 l 2
 151 110 211 57 300 57 c 0
EndSplineSet
Substitution2: "'ordn' Ordinals lookup 4 subtable" ordmasculine
EndChar

StartChar: p
Encoding: 112 112 19
Width: 600
GlyphClass: 2
Flags: MW
HStem: -200 21G<95 95 95 175> -12 71<302 353.5 271.5 401> 457 71<302 353.5> 496 20G<95 175 175 175>
VStem: 95 80<-200 84 130.5 165 165 351 432 516> 454 86<214 302 302 342.5 173.5 348.5>
AnchorPoint: "Anchor-2" 317 516 basechar 0
LayerCount: 2
Fore
SplineSet
95 -200 m 1xec
 95 516 l 1
 175 516 l 1xdc
 175 432 l 1
 179 432 l 1
 212 495 266 528 338 528 c 0
 464 528 540 427 540 258 c 0
 540 89 464 -12 338 -12 c 0
 266 -12 212 21 179 84 c 1
 175 84 l 1
 175 -200 l 1
 95 -200 l 1xec
307 59 m 0
 400 59 454 121 454 214 c 2
 454 302 l 2
 454 395 400 457 307 457 c 0xec
 236 457 175 420 175 351 c 2
 175 165 l 2
 175 96 236 59 307 59 c 0
EndSplineSet
EndChar

StartChar: q
Encoding: 113 113 20
Width: 600
GlyphClass: 2
Flags: MW
HStem: -200 21G<425 425 425 505> -12 71<246.5 298> 457 71<246.5 298 199 328.5> 496 20G<425 505 505 505>
VStem: 60 86<173.5 214 214 302> 425 80<-200 84 84 84 165 351 351 385.5 432 516 -200 516>
AnchorPoint: "Anchor-2" 282 516 basechar 0
LayerCount: 2
Fore
SplineSet
425 -200 m 1xdc
 425 84 l 1
 421 84 l 1
 388 21 334 -12 262 -12 c 0
 136 -12 60 89 60 258 c 0
 60 427 136 528 262 528 c 0xec
 334 528 388 495 421 432 c 1
 425 432 l 1
 425 516 l 1
 505 516 l 1
 505 -200 l 1
 425 -200 l 1xdc
293 59 m 0
 364 59 425 96 425 165 c 2
 425 351 l 2
 425 420 364 457 293 457 c 0
 200 457 146 395 146 302 c 2
 146 214 l 2
 146 121 200 59 293 59 c 0
EndSplineSet
EndChar

StartChar: r
Encoding: 114 114 21
Width: 600
GlyphClass: 2
Flags: MW
HStem: 0 68<77 228 77 228 308 508> 436 80<487 559> 448 68<77 228 77 308>
VStem: 228 80<68 291 386 448 448 448>
AnchorPoint: "Anchor-2" 353 516 basechar 0
AnchorPoint: "Anchor-0" 268 0 basechar 0
LayerCount: 2
Fore
SplineSet
77 0 m 1xd0
 77 68 l 1
 228 68 l 1
 228 448 l 1
 77 448 l 1xb0
 77 516 l 1
 308 516 l 1
 308 386 l 1
 313 386 l 1
 333 454 379 516 487 516 c 2
 559 516 l 1
 559 436 l 1
 462 436 l 2
 361 436 308 371 308 291 c 2
 308 68 l 1
 508 68 l 1
 508 0 l 1
 77 0 l 1xd0
EndSplineSet
EndChar

StartChar: s
Encoding: 115 115 22
Width: 600
GlyphClass: 2
Flags: MW
HStem: -12 67<267 348 267 372> 461 67<260.5 346.5>
VStem: 96 79<352 405.5 352 425.5> 445 79<113.5 171>
AnchorPoint: "Anchor-2" 298 516 basechar 0
AnchorPoint: "Anchor-0" 294 0 basechar 0
LayerCount: 2
Fore
SplineSet
306 -12 m 0
 198 -12 121 28 67 89 c 1
 121 136 l 1
 170 84 226 55 308 55 c 0
 388 55 445 83 445 144 c 0
 445 198 401 212 354 219 c 2
 273 231 l 2
 200 242 96 262 96 374 c 0
 96 477 184 528 304 528 c 0
 397 528 465 497 514 445 c 1
 462 396 l 1
 438 425 392 461 301 461 c 0
 220 461 175 432 175 379 c 0
 175 325 220 311 266 304 c 2
 347 292 l 2
 421 281 524 261 524 149 c 0
 524 47 438 -12 306 -12 c 0
EndSplineSet
EndChar

StartChar: t
Encoding: 116 116 23
Width: 600
GlyphClass: 2
Flags: HMW
HStem: -12 67<215.5 262> 449 67<90 195 195 212 90 228 79 195 317 519> 678 20G<274 348 348 348>
VStem: 165 77<38 67>
AnchorPoint: "Anchor-3" 454 760 basechar 0
AnchorPoint: "Anchor-0" 280 -2 basechar 0
LayerCount: 2
Fore
SplineSet
286 -14 m 0
 239 -14 212 12 212 60 c 0
 212 69 213 88 215 99 c 2
 228 449 l 1
 79 449 l 1
 90 516 l 1
 195 516 l 2
 229 516 249.642387074 528.516631675 251 563 c 2
 256 690 l 1
 330 690 l 1
 317 516 l 1
 530 516 l 1
 519 449 l 1
 306 449 l 1
 289 65 l 1
 309 53 l 1
 534 203 l 1
 573 153 l 1
 460 73 l 2
 367 7 327 -14 286 -14 c 0
EndSplineSet
EndChar

StartChar: u
Encoding: 117 117 24
Width: 600
GlyphClass: 2
Flags: MW
HStem: -12 71<254.5 313.5> 0 21G<422 422 422 502> 496 20G<92 172 172 172 422 502 502 502>
VStem: 92 80<185 199 199 516> 422 80<0 84 84 84 158 516 0 516>
AnchorPoint: "Anchor-2" 297 516 basechar 0
AnchorPoint: "Anchor-1" 502 0 basechar 0
AnchorPoint: "Anchor-0" 297 0 basechar 0
LayerCount: 2
Fore
SplineSet
422 0 m 1x78
 422 84 l 1
 418 84 l 1
 396 33 356 -12 271 -12 c 0
 163 -12 92 60 92 185 c 2
 92 516 l 1
 172 516 l 1
 172 199 l 2
 172 105 215 59 294 59 c 0xb8
 358 59 422 90 422 158 c 2
 422 516 l 1
 502 516 l 1
 502 0 l 1
 422 0 l 1x78
EndSplineSet
EndChar

StartChar: v
Encoding: 118 118 25
Width: 600
GlyphClass: 2
Flags: HMW
HStem: -8 61<208 208 208 290> 449 67<77 176 66 263>
VStem: 120 75<62 62 62 69> 461 80<298.5 395.5>
AnchorPoint: "Anchor-2" 296 506 basechar 0
AnchorPoint: "Anchor-0" 246 0 basechar 0
LayerCount: 2
Fore
SplineSet
37 506 m 1
 223 506 l 1
 195 62 l 1
 208 53 l 1
 374 75 461 224 461 373 c 0
 461 418 452 463 433 500 c 1
 508 522 l 1
 529 482 541 431 541 377 c 0
 541 167 383 -8 197 -8 c 0
 145 -8 120 19 120 64 c 0
 120 74 123.573933321 88.999121865 124 101 c 2
 136 439 l 1
 26 439 l 1
 37 506 l 1
EndSplineSet
EndChar

StartChar: w
Encoding: 119 119 26
Width: 600
GlyphClass: 2
Flags: MW
HStem: -10 64<146.5 164.5 350.5 377.5> 496 20G<108 178 178 178 315 383 383 383>
VStem: 43 73<91 102.5> 497 70<311 392>
AnchorPoint: "Anchor-2" 348 516 basechar 0
AnchorPoint: "Anchor-0" 247 0 basechar 0
LayerCount: 2
Fore
SplineSet
133 -10 m 0
 73 -10 43 30 43 92 c 0
 43 113 45 133 49 159 c 2
 108 516 l 1
 178 516 l 1
 122 173 l 2
 118 150 116 129 116 111 c 0
 116 71 132 54 161 54 c 0
 188 54 207 70 225 94 c 0
 244 120 253 160 258 186 c 2
 315 516 l 1
 383 516 l 1
 327 173 l 2
 323 148 322 129 322 112 c 0
 322 71 335 54 366 54 c 0
 441 54 497 220 497 367 c 0
 497 417 489 469 474 501 c 1
 540 521 l 1
 556 486 567 432 567 371 c 0
 567 251 539 136 489 66 c 0
 453 16 405 -10 350 -10 c 0
 296 -10 260 17 265 95 c 1
 260 95 l 1
 231 30 196 -10 133 -10 c 0
EndSplineSet
EndChar

StartChar: x
Encoding: 120 120 27
Width: 600
GlyphClass: 2
Flags: MW
HStem: -12 62<109 145.5> 466 62<232 232 454.5 491>
VStem: 7 74<98 113> 263 74<165 350.5> 519 74<403 418>
AnchorPoint: "Anchor-2" 348 516 basechar 0
AnchorPoint: "Anchor-0" 252 0 basechar 0
LayerCount: 2
Fore
SplineSet
106 -12 m 0
 39 -12 7 27 7 107 c 0
 7 119 7 138 12 174 c 1
 85 180 l 1
 82 157 81 137 81 123 c 0
 81 73 93 50 125 50 c 0
 217 50 263 231 263 337 c 0
 263 364 260 430 247 459 c 1
 232 466 l 1
 74 369 l 1
 43 416 l 1
 109 465 l 2
 159 502 205 528 246 528 c 0
 324 528 325 434 325 351 c 1
 332 350 l 1
 359 476 415 528 494 528 c 0
 561 528 593 489 593 409 c 0
 593 397 593 377 588 342 c 1
 515 336 l 1
 518 359 519 379 519 393 c 0
 519 443 507 466 475 466 c 0
 383 466 337 285 337 179 c 0
 337 151 340 87 355 57 c 1
 370 50 l 1
 518 154 l 1
 551 108 l 1
 501 65 l 2
 428 2 387 -12 356 -12 c 0
 276 -12 275 79 275 165 c 1
 268 166 l 1
 241 40 185 -12 106 -12 c 0
EndSplineSet
EndChar

StartChar: y
Encoding: 121 121 28
Width: 600
GlyphClass: 2
Flags: MW
HStem: -200 68<83 159 83 203> 496 20G<53 135 135 135 467 547 547 547>
VStem: 53 494<516 516>
AnchorPoint: "Anchor-2" 300 516 basechar 0
AnchorPoint: "Anchor-0" 460 0 basechar 0
LayerCount: 2
Fore
SplineSet
380 300 m 1
 467 516 l 1
 547 516 l 1
 291 -113 l 2
 267 -172 237 -200 159 -200 c 2
 83 -200 l 1
 83 -132 l 1
 203 -132 l 1
 261 10 l 1
 53 516 l 1
 135 516 l 1
 222 300 l 1
 299 104 l 1
 303 104 l 1
 380 300 l 1
EndSplineSet
EndChar

StartChar: z
Encoding: 122 122 29
Width: 600
GlyphClass: 2
Flags: MW
HStem: -10 63<445 445 445 456> 0 21G<51 130 51 51> 462 66<216 273.5> 496 20G<480 559 559 559>
VStem: 102 64<341 353 353 372 341 409.5> 456 68<64 64>
AnchorPoint: "Anchor-2" 331 516 basechar 0
AnchorPoint: "Anchor-0" 286 0 basechar 0
LayerCount: 2
Fore
SplineSet
425 -10 m 0x9c
 397 -10 367 -4 324 10 c 2
 145 70 l 1
 140 66 l 1
 130 0 l 1
 51 0 l 1
 62 78 l 1
 420 407 l 1
 338 449 292 462 255 462 c 0
 177 462 166 403 166 341 c 1
 102 341 l 1
 102 353 l 2
 102 466 159 528 258 528 c 0x6c
 313 528 368 507 445 461 c 2
 465 449 l 1
 470 453 l 1
 480 516 l 1
 559 516 l 1
 548 440 l 1
 190 112 l 1
 445 53 l 1
 456 64 l 1
 425 200 l 1
 482 220 l 1
 498 180 l 2
 512 146 524 107 524 76 c 0
 524 32 487 -10 425 -10 c 0x9c
EndSplineSet
EndChar

StartChar: A
Encoding: 65 65 30
Width: 600
GlyphClass: 2
Flags: MW
HStem: 0 21G<31 118 31 31 481 570 481 481> 199 73<197 402 197 422 177 402> 609 89<295 304 295 295>
VStem: 31 539<0 0>
AnchorPoint: "Anchor-2" 300 698 basechar 0
AnchorPoint: "Anchor-1" 570 0 basechar 0
AnchorPoint: "Anchor-0" 300 0 basechar 0
LayerCount: 2
Fore
SplineSet
570 0 m 1
 481 0 l 1
 422 199 l 1
 177 199 l 1
 118 0 l 1
 31 0 l 1
 245 698 l 1
 356 698 l 1
 570 0 l 1
402 272 m 1
 304 609 l 1
 295 609 l 1
 197 272 l 1
 402 272 l 1
EndSplineSet
EndChar

StartChar: B
Encoding: 66 66 31
Width: 600
GlyphClass: 2
Flags: MW
HStem: 0 73<172 330 330 355> 326 69<172 316 316 330 172 316> 625 73<172 316 172 172>
VStem: 88 84<73 73 73 326 395 625> 429 88<490 529 529 561> 454 89<179 220 220 249.5 144.5 255>
AnchorPoint: "Anchor-2" 295 698 basechar 0
AnchorPoint: "Anchor-0" 315 0 basechar 0
LayerCount: 2
Fore
SplineSet
88 0 m 1xf4
 88 698 l 1
 325 698 l 2
 444 698 517 627 517 518 c 0xf8
 517 435 472 388 408 368 c 1
 408 365 l 1
 486 347 543 298 543 201 c 0
 543 88 463 0 355 0 c 2
 88 0 l 1xf4
172 73 m 1
 330 73 l 2
 407 73 454 108 454 179 c 2
 454 220 l 2xf4
 454 290 407 326 330 326 c 2
 172 326 l 1
 172 73 l 1
172 395 m 1
 316 395 l 2
 386 395 429 426 429 490 c 2
 429 529 l 2xf8
 429 593 386 625 316 625 c 2
 172 625 l 1
 172 395 l 1
EndSplineSet
EndChar

StartChar: C
Encoding: 67 67 32
Width: 600
GlyphClass: 2
Flags: MW
HStem: -12 73<267.5 365.5 267.5 387> 637 73<267.5 365.5>
VStem: 70 89<233 292 292 406>
AnchorPoint: "Anchor-2" 328 698 basechar 0
AnchorPoint: "Anchor-0" 308 0 basechar 0
LayerCount: 2
Fore
SplineSet
323 -12 m 0
 153 -12 70 117 70 349 c 0
 70 581 153 710 323 710 c 0
 451 710 504 633 538 557 c 1
 466 524 l 1
 441 586 408 637 323 637 c 0
 212 637 159 546 159 406 c 2
 159 292 l 2
 159 152 212 61 323 61 c 0
 408 61 441 112 466 174 c 1
 538 141 l 1
 504 65 451 -12 323 -12 c 0
EndSplineSet
EndChar

StartChar: D
Encoding: 68 68 33
Width: 600
GlyphClass: 2
Flags: MW
HStem: 0 73<179 286 286 290> 625 73<179 286 179 179>
VStem: 95 84<73 73 73 625> 455 89<295 403 403 463.5 234.5 473>
AnchorPoint: "Anchor-2" 277 698 basechar 0
AnchorPoint: "Anchor-0" 277 0 basechar 0
LayerCount: 2
Fore
SplineSet
95 0 m 1
 95 698 l 1
 290 698 l 2
 460 698 544 578 544 349 c 0
 544 120 460 0 290 0 c 2
 95 0 l 1
179 73 m 1
 286 73 l 2
 397 73 455 155 455 295 c 2
 455 403 l 2
 455 543 397 625 286 625 c 2
 179 625 l 1
 179 73 l 1
EndSplineSet
EndChar

StartChar: E
Encoding: 69 69 34
Width: 600
GlyphClass: 2
Flags: MW
HStem: 0 73<174 520 174 520> 317 73<174 508 174 508> 625 73<174 520 174 174>
VStem: 90 84<73 317 390 625>
AnchorPoint: "Anchor-2" 305 698 basechar 0
AnchorPoint: "Anchor-1" 520 0 basechar 0
AnchorPoint: "Anchor-0" 305 0 basechar 0
LayerCount: 2
Fore
SplineSet
520 0 m 1
 90 0 l 1
 90 698 l 1
 520 698 l 1
 520 625 l 1
 174 625 l 1
 174 390 l 1
 508 390 l 1
 508 317 l 1
 174 317 l 1
 174 73 l 1
 520 73 l 1
 520 0 l 1
EndSplineSet
EndChar

StartChar: F
Encoding: 70 70 35
Width: 600
GlyphClass: 2
Flags: MW
HStem: 0 21G<90 174 90 90> 317 73<174 500 174 500> 625 73<174 530 174 174>
VStem: 90 84<0 317 390 625>
AnchorPoint: "Anchor-2" 310 698 basechar 0
AnchorPoint: "Anchor-0" 132 0 basechar 0
LayerCount: 2
Fore
SplineSet
174 0 m 1
 90 0 l 1
 90 698 l 1
 530 698 l 1
 530 625 l 1
 174 625 l 1
 174 390 l 1
 500 390 l 1
 500 317 l 1
 174 317 l 1
 174 0 l 1
EndSplineSet
EndChar

StartChar: G
Encoding: 71 71 36
Width: 600
GlyphClass: 2
Flags: MW
HStem: -12 71<243 329> 0 21G<444 444 444 522> 278 67<297 444 297 522> 637 73<252 350>
VStem: 56 89<230 298 298 406> 444 78<0 93 93 93 206 278 278 278>
AnchorPoint: "Anchor-2" 306 698 basechar 0
AnchorPoint: "Anchor-0" 300 0 basechar 0
LayerCount: 2
Fore
SplineSet
444 0 m 1x7c
 444 93 l 1
 439 93 l 1
 416 39 377 -12 281 -12 c 0
 130 -12 56 116 56 344 c 0
 56 582 137 710 305 710 c 0
 436 710 492 633 522 557 c 1
 450 524 l 1
 425 586 392 637 308 637 c 0
 196 637 145 546 145 406 c 2
 145 298 l 2
 145 158 186 59 300 59 c 0xbc
 390 59 444 120 444 206 c 2
 444 278 l 1
 297 278 l 1
 297 345 l 1
 522 345 l 1
 522 0 l 1
 444 0 l 1x7c
EndSplineSet
EndChar

StartChar: H
Encoding: 72 72 37
Width: 600
GlyphClass: 2
Flags: MW
HStem: 0 21G<80 164 80 80 436 520 436 436> 317 73<164 436 164 436> 678 20G<80 164 164 164 436 520 520 520>
VStem: 80 84<0 317 0 390 390 698> 436 84<0 317 317 317 390 698 0 698>
AnchorPoint: "Anchor-2" 300 698 basechar 0
AnchorPoint: "Anchor-0" 300 0 basechar 0
LayerCount: 2
Fore
SplineSet
436 0 m 1
 436 317 l 1
 164 317 l 1
 164 0 l 1
 80 0 l 1
 80 698 l 1
 164 698 l 1
 164 390 l 1
 436 390 l 1
 436 698 l 1
 520 698 l 1
 520 0 l 1
 436 0 l 1
EndSplineSet
EndChar

StartChar: I
Encoding: 73 73 38
Width: 600
GlyphClass: 2
Flags: MW
HStem: 0 67<84 258 342 516 84 258> 631 67<84 258 84 516 342 342 342 516>
VStem: 258 84<67 631 67 631>
AnchorPoint: "Anchor-2" 300 698 basechar 0
AnchorPoint: "Anchor-1" 516 0 basechar 0
AnchorPoint: "Anchor-0" 300 0 basechar 0
LayerCount: 2
Fore
SplineSet
516 0 m 1
 84 0 l 1
 84 67 l 1
 258 67 l 1
 258 631 l 1
 84 631 l 1
 84 698 l 1
 516 698 l 1
 516 631 l 1
 342 631 l 1
 342 67 l 1
 516 67 l 1
 516 0 l 1
EndSplineSet
EndChar

StartChar: J
Encoding: 74 74 39
Width: 600
GlyphClass: 2
Flags: MW
HStem: -12 74<237 314 237 334.5> 625 73<144 396 144 480>
VStem: 396 84<196 625 625 625>
AnchorPoint: "Anchor-2" 313 698 basechar 0
AnchorPoint: "Anchor-0" 277 0 basechar 0
LayerCount: 2
Fore
SplineSet
144 698 m 1
 480 698 l 1
 480 181 l 2
 480 63 395 -12 274 -12 c 0
 168 -12 95 46 74 146 c 1
 154 163 l 1
 167 107 198 62 276 62 c 0
 352 62 396 105 396 196 c 2
 396 625 l 1
 144 625 l 1
 144 698 l 1
EndSplineSet
EndChar

StartChar: K
Encoding: 75 75 40
Width: 600
GlyphClass: 2
Flags: MW
HStem: 0 21G<85 169 85 85 480 578 480 480> 678 20G<85 169 169 169 470 571 571 571>
VStem: 85 84<0 224 334 698>
AnchorPoint: "Anchor-2" 313 698 basechar 0
AnchorPoint: "Anchor-0" 322 0 basechar 0
LayerCount: 2
Fore
SplineSet
480 0 m 1
 269 342 l 1
 169 224 l 1
 169 0 l 1
 85 0 l 1
 85 698 l 1
 169 698 l 1
 169 334 l 1
 172 334 l 1
 264 450 l 1
 470 698 l 1
 571 698 l 1
 326 404 l 1
 578 0 l 1
 480 0 l 1
EndSplineSet
EndChar

StartChar: L
Encoding: 76 76 41
Width: 600
GlyphClass: 2
Flags: MW
HStem: 0 73<204 535 204 535> 678 20G<120 204 204 204>
VStem: 120 84<73 698 73 698 73 698>
AnchorPoint: "Anchor-3" 290 740 basechar 0
AnchorPoint: "Anchor-2" 162 698 basechar 0
AnchorPoint: "Anchor-0" 327 0 basechar 0
LayerCount: 2
Fore
SplineSet
535 0 m 1
 120 0 l 1
 120 698 l 1
 204 698 l 1
 204 73 l 1
 535 73 l 1
 535 0 l 1
EndSplineSet
EndChar

StartChar: M
Encoding: 77 77 42
Width: 600
GlyphClass: 2
Flags: MW
HStem: 0 21G<68 145 68 68 455 532 455 455> 212 178<300 300> 571 127<145 153 145 145 447 455 447 447>
VStem: 68 77<0 350 350 571> 455 77<0 350 350 571 571 571>
AnchorPoint: "Anchor-2" 300 698 basechar 0
AnchorPoint: "Anchor-0" 300 0 basechar 0
LayerCount: 2
Fore
SplineSet
455 0 m 1
 455 350 l 1
 455 571 l 1
 447 571 l 1
 300 212 l 1
 153 571 l 1
 145 571 l 1
 145 350 l 1
 145 0 l 1
 68 0 l 1
 68 698 l 1
 176 698 l 1
 299 390 l 1
 305 390 l 1
 428 698 l 1
 532 698 l 1
 532 0 l 1
 455 0 l 1
EndSplineSet
EndChar

StartChar: N
Encoding: 78 78 43
Width: 600
GlyphClass: 2
Flags: MW
HStem: 0 113<437 444 437 520 401 444> 591 107<156 163 156 156>
VStem: 80 76<0 591 0 698> 444 76<113 698 0 698>
AnchorPoint: "Anchor-2" 300 698 basechar 0
AnchorPoint: "Anchor-0" 300 0 basechar 0
LayerCount: 2
Fore
SplineSet
401 0 m 1
 163 591 l 1
 156 591 l 1
 156 0 l 1
 80 0 l 1
 80 698 l 1
 199 698 l 1
 437 113 l 1
 444 113 l 1
 444 698 l 1
 520 698 l 1
 520 0 l 1
 401 0 l 1
EndSplineSet
EndChar

StartChar: O
Encoding: 79 79 44
Width: 600
GlyphClass: 2
Flags: MW
HStem: -12 73<244.5 355.5 244.5 385> 637 73<244.5 355.5>
VStem: 56 89<235 292 292 406> 455 89<292 406 406 463 235 476>
AnchorPoint: "Anchor-2" 300 698 basechar 0
AnchorPoint: "Anchor-0" 300 0 basechar 0
LayerCount: 2
Fore
SplineSet
300 -12 m 0
 130 -12 56 121 56 349 c 0
 56 577 130 710 300 710 c 0
 470 710 544 577 544 349 c 0
 544 121 470 -12 300 -12 c 0
300 61 m 0
 411 61 455 152 455 292 c 2
 455 406 l 2
 455 546 411 637 300 637 c 0
 189 637 145 546 145 406 c 2
 145 292 l 2
 145 152 189 61 300 61 c 0
EndSplineSet
EndChar

StartChar: P
Encoding: 80 80 45
Width: 600
GlyphClass: 2
Flags: MW
HStem: 0 21G<90 174 90 90> 296 73<174 342 342 344 174 342> 625 73<174 174 174 342>
VStem: 90 84<0 296 369 625> 454 89<471 523 523 555.5>
AnchorPoint: "Anchor-2" 300 698 basechar 0
AnchorPoint: "Anchor-0" 132 0 basechar 0
LayerCount: 2
Fore
SplineSet
174 0 m 1
 90 0 l 1
 90 698 l 1
 344 698 l 2
 473 698 543 623 543 497 c 0
 543 371 473 296 344 296 c 2
 174 296 l 1
 174 0 l 1
174 625 m 1
 174 369 l 1
 342 369 l 2
 412 369 454 406 454 471 c 2
 454 523 l 2
 454 588 412 625 342 625 c 2
 174 625 l 1
EndSplineSet
EndChar

StartChar: Q
Encoding: 81 81 46
Width: 600
GlyphClass: 2
Flags: MW
HStem: -164 68<340 374 374 491> -9 70<260 260 340 340> 637 73<244.5 355.5>
VStem: 56 89<244.5 292 292 406> 260 80<-46 -9 -96 -9> 455 89<292 406 406 463 244.5 476>
CounterMasks: 1 1c
AnchorPoint: "Anchor-2" 300 698 basechar 0
LayerCount: 2
Fore
SplineSet
491 -96 m 1
 491 -164 l 1
 374 -164 l 2
 296 -164 260 -115 260 -46 c 2
 260 -9 l 1
 118 10 56 140 56 349 c 0
 56 577 130 710 300 710 c 0
 470 710 544 577 544 349 c 0
 544 140 481 10 340 -9 c 1
 340 -96 l 1
 491 -96 l 1
300 61 m 0
 411 61 455 152 455 292 c 2
 455 406 l 2
 455 546 411 637 300 637 c 0
 189 637 145 546 145 406 c 2
 145 292 l 2
 145 152 189 61 300 61 c 0
EndSplineSet
EndChar

StartChar: R
Encoding: 82 82 47
Width: 600
GlyphClass: 2
Flags: MW
HStem: 0 21G<90 174 90 90 455 455 455 549> 298 71<174 342 174 285> 625 73<174 342 174 174>
VStem: 90 84<0 298 369 625> 454 89<471 523 523 555.5>
AnchorPoint: "Anchor-2" 308 698 basechar 0
AnchorPoint: "Anchor-0" 308 0 basechar 0
LayerCount: 2
Fore
SplineSet
174 298 m 1
 174 0 l 1
 90 0 l 1
 90 698 l 1
 344 698 l 2
 473 698 543 623 543 497 c 0
 543 385 482 313 371 302 c 1
 549 0 l 1
 455 0 l 1
 285 298 l 1
 174 298 l 1
174 369 m 1
 342 369 l 2
 412 369 454 406 454 471 c 2
 454 523 l 2
 454 588 412 625 342 625 c 2
 174 625 l 1
 174 369 l 1
EndSplineSet
EndChar

StartChar: S
Encoding: 83 83 48
Width: 600
GlyphClass: 2
Flags: MW
HStem: -12 72<259 351.5 259 375.5> 638 72<254 344.5>
VStem: 69 85<487 557.5 487 580> 457 85<151 227>
AnchorPoint: "Anchor-2" 298 698 basechar 0
AnchorPoint: "Anchor-0" 297 0 basechar 0
LayerCount: 2
Fore
SplineSet
298 -12 m 0
 173 -12 97 39 45 111 c 1
 106 161 l 1
 160 93 217 60 301 60 c 0
 402 60 457 109 457 193 c 0
 457 261 422 297 327 313 c 2
 249 326 l 2
 112 349 69 428 69 516 c 0
 69 644 160 710 302 710 c 0
 413 710 489 670 536 603 c 1
 477 552 l 1
 438 603 388 638 301 638 c 0
 207 638 154 597 154 518 c 0
 154 456 186 416 285 399 c 2
 360 386 l 2
 497 362 542 286 542 195 c 0
 542 66 453 -12 298 -12 c 0
EndSplineSet
EndChar

StartChar: T
Encoding: 84 84 49
Width: 600
GlyphClass: 2
Flags: MW
HStem: 0 21G<258 342 258 258> 625 73<25 258 25 575 342 575 342 342>
VStem: 258 84<0 625 0 625>
AnchorPoint: "Anchor-2" 300 698 basechar 0
AnchorPoint: "Anchor-0" 300 0 basechar 0
LayerCount: 2
Fore
SplineSet
575 625 m 1
 342 625 l 1
 342 0 l 1
 258 0 l 1
 258 625 l 1
 25 625 l 1
 25 698 l 1
 575 698 l 1
 575 625 l 1
EndSplineSet
EndChar

StartChar: U
Encoding: 85 85 50
Width: 600
GlyphClass: 2
Flags: MW
HStem: -12 73<234.5 365.5 234.5 395> 678 20G<80 164 164 164 436 520 520 520>
VStem: 80 84<299 698> 436 84<279 299 299 698>
AnchorPoint: "Anchor-2" 300 698 basechar 0
AnchorPoint: "Anchor-1" 394 0 basechar 0
AnchorPoint: "Anchor-0" 300 0 basechar 0
LayerCount: 2
Fore
SplineSet
80 698 m 1
 164 698 l 1
 164 279 l 2
 164 144 169 61 300 61 c 0
 431 61 436 144 436 279 c 2
 436 698 l 1
 520 698 l 1
 520 299 l 2
 520 92 490 -12 300 -12 c 0
 110 -12 80 92 80 299 c 2
 80 698 l 1
EndSplineSet
EndChar

StartChar: V
Encoding: 86 86 51
Width: 600
GlyphClass: 2
Flags: MW
HStem: 0 85<299 304 299 357 243 304> 678 20G<36 125 125 125 478 564 564 564>
VStem: 36 528<698 698>
AnchorPoint: "Anchor-2" 300 698 basechar 0
AnchorPoint: "Anchor-0" 300 0 basechar 0
LayerCount: 2
Fore
SplineSet
357 0 m 1
 243 0 l 1
 36 698 l 1
 125 698 l 1
 224 349 l 1
 299 85 l 1
 304 85 l 1
 379 349 l 1
 478 698 l 1
 564 698 l 1
 357 0 l 1
EndSplineSet
EndChar

StartChar: W
Encoding: 87 87 52
Width: 600
GlyphClass: 2
Flags: MW
HStem: 0 87<154 162 154 211 90 162 440 448> 417 99<296 304 296 296> 678 20G<35 110 110 110 492 565 565 565>
VStem: 35 530<698 698>
AnchorPoint: "Anchor-2" 300 698 basechar 0
AnchorPoint: "Anchor-0" 300 0 basechar 0
LayerCount: 2
Fore
SplineSet
211 0 m 1
 90 0 l 1
 35 698 l 1
 110 698 l 1
 139 298 l 1
 154 87 l 1
 162 87 l 1
 254 516 l 1
 348 516 l 1
 440 87 l 1
 448 87 l 1
 463 298 l 1
 492 698 l 1
 565 698 l 1
 510 0 l 1
 389 0 l 1
 304 417 l 1
 296 417 l 1
 211 0 l 1
EndSplineSet
EndChar

StartChar: X
Encoding: 88 88 53
Width: 600
GlyphClass: 2
Flags: MW
HStem: 0 21G<26 118 26 26 480 575 480 480> 678 20G<39 134 134 134 476 568 568 568>
VStem: 26 549<0 0>
AnchorPoint: "Anchor-2" 300 698 basechar 0
AnchorPoint: "Anchor-0" 300 0 basechar 0
LayerCount: 2
Fore
SplineSet
352 357 m 1
 575 0 l 1
 480 0 l 1
 397 139 l 1
 305 291 l 1
 301 291 l 1
 206 139 l 1
 118 0 l 1
 26 0 l 1
 254 356 l 1
 39 698 l 1
 134 698 l 1
 215 563 l 1
 302 422 l 1
 306 422 l 1
 392 563 l 1
 476 698 l 1
 568 698 l 1
 352 357 l 1
EndSplineSet
EndChar

StartChar: Y
Encoding: 89 89 54
Width: 600
GlyphClass: 2
Flags: MW
HStem: 0 21G<258 342 258 258> 678 20G<17 113 113 113 489 583 583 583>
VStem: 258 84<0 274>
AnchorPoint: "Anchor-2" 300 698 basechar 0
AnchorPoint: "Anchor-0" 300 0 basechar 0
LayerCount: 2
Fore
SplineSet
342 0 m 1
 258 0 l 1
 258 274 l 1
 17 698 l 1
 113 698 l 1
 213 516 l 1
 298 357 l 1
 302 357 l 1
 389 516 l 1
 489 698 l 1
 583 698 l 1
 342 274 l 1
 342 0 l 1
EndSplineSet
EndChar

StartChar: Z
Encoding: 90 90 55
Width: 600
GlyphClass: 2
Flags: MW
HStem: 0 73<139 552 139 552> 625 73<65 443 65 535>
VStem: 48 504<0 73 0 75 0 75>
AnchorPoint: "Anchor-2" 300 698 basechar 0
AnchorPoint: "Anchor-0" 300 0 basechar 0
LayerCount: 2
Fore
SplineSet
552 73 m 1
 552 0 l 1
 48 0 l 1
 48 75 l 1
 443 625 l 1
 65 625 l 1
 65 698 l 1
 535 698 l 1
 535 623 l 1
 139 73 l 1
 552 73 l 1
EndSplineSet
EndChar

StartChar: zero
Encoding: 48 48 56
Width: 600
Flags: MW
HStem: -12 73<244 356 244 385> 290 118<277 323> 637 73<244 356>
VStem: 56 87<235 292 292 406> 238 124<338 360 324.5 373.5> 457 87<292 406 406 463 235 476>
CounterMasks: 1 fc
LayerCount: 2
Fore
SplineSet
300 -12 m 0
 130 -12 56 121 56 349 c 0
 56 577 130 710 300 710 c 0
 470 710 544 577 544 349 c 0
 544 121 470 -12 300 -12 c 0
300 61 m 0
 412 61 457 152 457 292 c 2
 457 406 l 2
 457 546 412 637 300 637 c 0
 188 637 143 546 143 406 c 2
 143 292 l 2
 143 152 188 61 300 61 c 0
300 290 m 0
 254 290 238 311 238 338 c 2
 238 360 l 2
 238 387 254 408 300 408 c 0
 346 408 362 387 362 360 c 2
 362 338 l 2
 362 311 346 290 300 290 c 0
EndSplineSet
Substitution2: "'salt' Stylistic Alternatives lookup 16 subtable" zero.alt02
Substitution2: "'ss04' Style Set 4 lookup 14 subtable" zero.alt02
Substitution2: "'ss03' Style Set 3 lookup 13 subtable" zero.alt01
Substitution2: "'zero' Slashed Zero lookup 10 subtable" zero.alt01
Substitution2: "'sinf' Scientific Inferiors lookup 9 subtable" uni2080
Substitution2: "'sups' Superscript lookup 8 subtable" uni2070
Substitution2: "'dnom' Denominators lookup 7 subtable" zero.dnom
Substitution2: "'numr' Numerators lookup 6 subtable" zero.numr
AlternateSubs2: "'aalt' Access All Alternates lookup 1 subtable" zero.alt01 zero.alt02 zero.numr zero.dnom
EndChar

StartChar: zero.alt01
Encoding: 65540 -1 57
Width: 600
Flags: MW
HStem: -12 73<265.5 356 265.5 385> 637 73<244 334.5>
VStem: 56 87<280.5 292 292 406> 457 87<292 406 406 417.5>
LayerCount: 2
Fore
SplineSet
300 -12 m 0
 130 -12 56 121 56 349 c 0
 56 577 130 710 300 710 c 0
 470 710 544 577 544 349 c 0
 544 121 470 -12 300 -12 c 0
300 637 m 0
 188 637 143 546 143 406 c 2
 143 292 l 2
 143 269 144 247 147 227 c 1
 436 543 l 1
 413 603 369 637 300 637 c 0
300 61 m 0
 412 61 457 152 457 292 c 2
 457 406 l 2
 457 429 456 451 453 471 c 1
 164 155 l 1
 187 95 231 61 300 61 c 0
EndSplineSet
EndChar

StartChar: zero.alt02
Encoding: 65541 -1 58
Width: 600
Flags: MW
HStem: -12 73<244.5 355.5 244.5 385> 637 73<244.5 355.5>
VStem: 56 89<235 292 292 406> 455 89<292 406 406 463 235 476>
LayerCount: 2
Fore
SplineSet
300 -12 m 0
 130 -12 56 121 56 349 c 0
 56 577 130 710 300 710 c 0
 470 710 544 577 544 349 c 0
 544 121 470 -12 300 -12 c 0
300 61 m 0
 411 61 455 152 455 292 c 2
 455 406 l 2
 455 546 411 637 300 637 c 0
 189 637 145 546 145 406 c 2
 145 292 l 2
 145 152 189 61 300 61 c 0
EndSplineSet
EndChar

StartChar: one
Encoding: 49 49 59
Width: 600
GlyphClass: 5
Flags: MW
HStem: 0 73<85 285 369 553 85 285> 636 62<278 285 278 278>
VStem: 285 84<73 636 636 636>
LayerCount: 2
Fore
SplineSet
553 0 m 1
 85 0 l 1
 85 73 l 1
 285 73 l 1
 285 636 l 1
 278 636 l 1
 102 472 l 1
 53 525 l 1
 238 698 l 1
 369 698 l 1
 369 73 l 1
 553 73 l 1
 553 0 l 1
EndSplineSet
Substitution2: "'sinf' Scientific Inferiors lookup 9 subtable" uni2081
Substitution2: "'sups' Superscript lookup 8 subtable" onesuperior
Substitution2: "'dnom' Denominators lookup 7 subtable" one.dnom
Substitution2: "'numr' Numerators lookup 6 subtable" one.numr
AlternateSubs2: "'aalt' Access All Alternates lookup 1 subtable" one.numr one.dnom
EndChar

StartChar: two
Encoding: 50 50 60
Width: 600
GlyphClass: 5
Flags: MW
HStem: 0 73<158 537 158 537> 637 73<247.5 333>
VStem: 421 88<493 505 505 547>
LayerCount: 2
Fore
SplineSet
537 73 m 1
 537 0 l 1
 71 0 l 1
 71 86 l 1
 304 296 l 2
 372 357 421 422 421 493 c 2
 421 505 l 2
 421 589 376 637 290 637 c 0
 205 637 162 590 140 518 c 1
 65 546 l 1
 92 628 155 710 292 710 c 0
 431 710 509 626 509 508 c 0
 509 402 446 324 353 243 c 2
 158 73 l 1
 537 73 l 1
EndSplineSet
Substitution2: "'sinf' Scientific Inferiors lookup 9 subtable" uni2082
Substitution2: "'sups' Superscript lookup 8 subtable" twosuperior
Substitution2: "'dnom' Denominators lookup 7 subtable" two.dnom
Substitution2: "'numr' Numerators lookup 6 subtable" two.numr
AlternateSubs2: "'aalt' Access All Alternates lookup 1 subtable" two.numr two.dnom
EndChar

StartChar: three
Encoding: 51 51 61
Width: 600
GlyphClass: 5
Flags: MW
HStem: -12 73<233 326 233 349.5> 330 72<193 270 270 276 193 270> 637 73<251 326>
VStem: 416 88<518 525 525 562> 430 88<192 200 200 241>
LayerCount: 2
Fore
SplineSet
193 402 m 1xe8
 270 402 l 2
 367 402 416 451 416 518 c 2
 416 525 l 2
 416 599 364 637 288 637 c 0
 214 637 170 601 141 548 c 1
 78 596 l 1
 114 652 176 710 290 710 c 0
 409 710 504 647 504 534 c 0xf0
 504 444 444 390 368 371 c 1
 368 367 l 1
 445 352 518 296 518 191 c 0
 518 71 422 -12 277 -12 c 0
 154 -12 91 47 48 107 c 1
 111 155 l 1
 148 100 189 61 277 61 c 0
 375 61 430 109 430 192 c 2
 430 200 l 2
 430 282 378 330 276 330 c 2
 193 330 l 1
 193 402 l 1xe8
EndSplineSet
Substitution2: "'sinf' Scientific Inferiors lookup 9 subtable" uni2083
Substitution2: "'sups' Superscript lookup 8 subtable" threesuperior
Substitution2: "'dnom' Denominators lookup 7 subtable" three.dnom
Substitution2: "'numr' Numerators lookup 6 subtable" three.numr
AlternateSubs2: "'aalt' Access All Alternates lookup 1 subtable" three.numr three.dnom
EndChar

StartChar: four
Encoding: 52 52 62
Width: 600
GlyphClass: 5
Flags: MW
HStem: 0 21G<378 458 378 378> 137 69<109 378 109 378 458 562> 633 65<374 374 374 378>
VStem: 378 80<0 137 206 633 633 633>
LayerCount: 2
Fore
SplineSet
458 0 m 1
 378 0 l 1
 378 137 l 1
 34 137 l 1
 34 211 l 1
 336 698 l 1
 458 698 l 1
 458 206 l 1
 562 206 l 1
 562 137 l 1
 458 137 l 1
 458 0 l 1
374 633 m 1
 109 206 l 1
 378 206 l 1
 378 633 l 1
 374 633 l 1
EndSplineSet
Substitution2: "'sinf' Scientific Inferiors lookup 9 subtable" uni2084
Substitution2: "'sups' Superscript lookup 8 subtable" uni2074
Substitution2: "'dnom' Denominators lookup 7 subtable" four.dnom
Substitution2: "'numr' Numerators lookup 6 subtable" four.numr
AlternateSubs2: "'aalt' Access All Alternates lookup 1 subtable" four.numr four.dnom
EndChar

StartChar: five
Encoding: 53 53 63
Width: 600
GlyphClass: 5
Flags: MW
HStem: -12 73<254 345 254 369.5> 363 71<285 343.5> 625 73<189 501 189 189>
VStem: 446 87<208 216 216 262>
LayerCount: 2
Fore
SplineSet
501 698 m 1
 501 625 l 1
 189 625 l 1
 169 358 l 1
 176 358 l 1
 210 405 248 434 322 434 c 0
 444 434 533 354 533 219 c 0
 533 83 444 -12 295 -12 c 0
 177 -12 116 47 73 107 c 1
 136 155 l 1
 173 100 211 61 297 61 c 0
 393 61 446 117 446 208 c 2
 446 216 l 2
 446 308 392 363 295 363 c 0
 229 363 197 337 167 304 c 1
 96 314 l 1
 121 698 l 1
 501 698 l 1
EndSplineSet
Substitution2: "'sinf' Scientific Inferiors lookup 9 subtable" uni2085
Substitution2: "'sups' Superscript lookup 8 subtable" uni2075
Substitution2: "'dnom' Denominators lookup 7 subtable" five.dnom
Substitution2: "'numr' Numerators lookup 6 subtable" five.numr
AlternateSubs2: "'aalt' Access All Alternates lookup 1 subtable" five.numr five.dnom
EndChar

StartChar: six
Encoding: 54 54 64
Width: 600
GlyphClass: 5
Flags: MW
HStem: -12 71<252.5 347.5 252.5 372> 365 69<283.5 347.5> 678 20G<317 425 425 425>
VStem: 64 85<173 208 208 216 161 359.5> 451 85<208 216 216 263>
LayerCount: 2
Fore
SplineSet
301 -12 m 0
 154 -12 64 90 64 256 c 0
 64 463 203 625 317 698 c 1
 425 698 l 1
 273 589 189 498 150 336 c 1
 155 334 l 1
 189 391 240 434 327 434 c 0
 449 434 536 351 536 219 c 0
 536 82 443 -12 301 -12 c 0
300 59 m 0
 395 59 451 114 451 208 c 2
 451 216 l 2
 451 310 395 365 300 365 c 0
 205 365 149 310 149 216 c 2
 149 208 l 2
 149 114 205 59 300 59 c 0
EndSplineSet
Substitution2: "'sinf' Scientific Inferiors lookup 9 subtable" uni2086
Substitution2: "'sups' Superscript lookup 8 subtable" uni2076
Substitution2: "'dnom' Denominators lookup 7 subtable" six.dnom
Substitution2: "'numr' Numerators lookup 6 subtable" six.numr
AlternateSubs2: "'aalt' Access All Alternates lookup 1 subtable" six.numr six.dnom
EndChar

StartChar: seven
Encoding: 55 55 65
Width: 600
GlyphClass: 5
Flags: MW
HStem: 0 21G<173 263 173 173> 626 72<140 446 140 140>
VStem: 65 75<496 626 496 698 496 698>
LayerCount: 2
Fore
SplineSet
263 0 m 1
 173 0 l 1
 446 626 l 1
 140 626 l 1
 140 496 l 1
 65 496 l 1
 65 698 l 1
 531 698 l 1
 531 624 l 1
 263 0 l 1
EndSplineSet
Substitution2: "'sinf' Scientific Inferiors lookup 9 subtable" uni2087
Substitution2: "'sups' Superscript lookup 8 subtable" uni2077
Substitution2: "'dnom' Denominators lookup 7 subtable" seven.dnom
Substitution2: "'numr' Numerators lookup 6 subtable" seven.numr
AlternateSubs2: "'aalt' Access All Alternates lookup 1 subtable" seven.numr seven.dnom
EndChar

StartChar: eight
Encoding: 56 56 66
Width: 600
GlyphClass: 5
Flags: MW
HStem: -12 71<251 349 251 381> 333 68<255 345 255 350> 639 71<256 344>
VStem: 55 87<145.5 185 185 207 145.5 237.5> 76 85<495 513 513 527 477.5 588> 439 85<513 527 527 562.5> 458 87<185 207 207 237.5 132.5 247>
LayerCount: 2
Fore
SplineSet
300 -12 m 0xf2
 138 -12 55 75 55 190 c 0xf2
 55 285 112 340 197 363 c 1
 197 371 l 1
 123 396 76 455 76 535 c 0
 76 641 159 710 300 710 c 0
 441 710 524 641 524 535 c 0xec
 524 455 477 396 403 371 c 1
 403 363 l 1
 488 340 545 285 545 190 c 0
 545 75 462 -12 300 -12 c 0xf2
300 59 m 0
 398 59 458 106 458 185 c 2
 458 207 l 2
 458 287 400 333 300 333 c 0
 200 333 142 287 142 207 c 2
 142 185 l 2
 142 106 202 59 300 59 c 0
300 401 m 0
 390 401 439 442 439 513 c 2
 439 527 l 2
 439 598 388 639 300 639 c 0
 212 639 161 598 161 527 c 2
 161 513 l 2xec
 161 442 210 401 300 401 c 0
EndSplineSet
Substitution2: "'sinf' Scientific Inferiors lookup 9 subtable" uni2088
Substitution2: "'sups' Superscript lookup 8 subtable" uni2078
Substitution2: "'dnom' Denominators lookup 7 subtable" eight.dnom
Substitution2: "'numr' Numerators lookup 6 subtable" eight.numr
AlternateSubs2: "'aalt' Access All Alternates lookup 1 subtable" eight.numr eight.dnom
EndChar

StartChar: nine
Encoding: 57 57 67
Width: 600
GlyphClass: 5
Flags: MW
HStem: 0 21G<175 283 175 175> 264 69<252.5 316.5> 639 71<252.5 347.5>
VStem: 64 85<435 482 482 490 435 547.5> 451 85<482 490 490 525 338.5 537>
LayerCount: 2
Fore
SplineSet
536 442 m 0
 536 235 397 73 283 0 c 1
 175 0 l 1
 327 109 411 200 450 362 c 1
 445 364 l 1
 411 307 360 264 273 264 c 0
 151 264 64 347 64 479 c 0
 64 616 157 710 299 710 c 0
 446 710 536 608 536 442 c 0
300 333 m 0
 395 333 451 388 451 482 c 2
 451 490 l 2
 451 584 395 639 300 639 c 0
 205 639 149 584 149 490 c 2
 149 482 l 2
 149 388 205 333 300 333 c 0
EndSplineSet
Substitution2: "'sinf' Scientific Inferiors lookup 9 subtable" uni2089
Substitution2: "'sups' Superscript lookup 8 subtable" uni2079
Substitution2: "'dnom' Denominators lookup 7 subtable" nine.dnom
Substitution2: "'numr' Numerators lookup 6 subtable" nine.numr
AlternateSubs2: "'aalt' Access All Alternates lookup 1 subtable" nine.numr nine.dnom
EndChar

StartChar: ampersand
Encoding: 38 38 68
Width: 600
Flags: MW
HStem: -12 71<199.5 262> 0 21G<477 572 477 477> 314 67<486 561 486 486> 642 68<236 292>
VStem: 25 83<141 177 177 192 141 216> 89 79<515 536 536 544 515 591.5>
LayerCount: 2
Fore
SplineSet
217 -12 m 0xb8
 95 -12 25 74 25 181 c 0xb8
 25 251 54 333 154 384 c 1
 117 432 89 482 89 541 c 0
 89 642 171 710 270 710 c 0
 359 710 417 655 436 604 c 1
 370 570 l 1
 353 611 318 642 266 642 c 0
 206 642 168 601 168 544 c 2
 168 536 l 2
 168 494 188 459 239 395 c 2
 329 284 l 1
 402 194 l 1
 407 194 l 1
 416 246 417 317 420 381 c 1
 561 381 l 1
 561 314 l 1
 486 314 l 1
 477 250 473 206 450 144 c 1
 572 0 l 1
 477 0 l 1x74
 390 103 l 1
 385 103 l 1
 366 34 307 -12 217 -12 c 0xb8
238 59 m 0
 295 59 341 84 366 127 c 1
 192 337 l 1
 131 299 108 249 108 192 c 2
 108 177 l 2
 108 105 161 59 238 59 c 0
EndSplineSet
EndChar

StartChar: at
Encoding: 64 64 69
Width: 600
Flags: MW
HStem: -112 64<229.5 454 331 454> 79 60<347.5 378.5> 448 60<347.5 378.5 308.5 399> 646 64<243.5 356.5>
VStem: 62 75<162 229 229 358> 216 74<219.5 263 263 324 218.5 367> 454 71<91 148 148 148 217 370 370 395.5 439 463 91 519.5>
LayerCount: 2
Fore
SplineSet
454 -48 m 1
 454 -112 l 1
 331 -112 l 2
 128 -112 62 24 62 300 c 0
 62 609 145 710 301 710 c 0
 461 710 525 603 525 463 c 2
 525 91 l 1
 454 91 l 1
 454 148 l 1
 449 148 l 1
 436 114 408 79 349 79 c 0
 268 79 216 146 216 293 c 0
 216 441 268 508 349 508 c 0
 408 508 436 473 449 439 c 1
 454 439 l 1
 454 463 l 2
 454 576 410 646 303 646 c 0
 184 646 137 559 137 358 c 2
 137 229 l 2
 137 74 172 -48 331 -48 c 2
 454 -48 l 1
375 139 m 0
 423 139 454 166 454 217 c 2
 454 370 l 2
 454 421 423 448 375 448 c 0
 320 448 290 413 290 324 c 2
 290 263 l 2
 290 174 320 139 375 139 c 0
EndSplineSet
EndChar

StartChar: hyphen
Encoding: 45 45 70
Width: 600
Flags: MW
HStem: 262 84<155 445 155 445>
VStem: 155 290<262 346 262 346>
LayerCount: 2
Fore
SplineSet
445 262 m 1
 155 262 l 1
 155 346 l 1
 445 346 l 1
 445 262 l 1
EndSplineSet
EndChar

StartChar: uni00AD
Encoding: 173 173 71
Width: 600
Flags: MW
HStem: 262 84<155 445 155 445>
VStem: 155 290<262 346 262 346>
LayerCount: 2
Fore
SplineSet
445 262 m 1
 155 262 l 1
 155 346 l 1
 445 346 l 1
 445 262 l 1
EndSplineSet
EndChar

StartChar: endash
Encoding: 8211 8211 72
Width: 600
Flags: MW
HStem: 267 74<60 540 60 540>
VStem: 60 480<267 341 267 341>
LayerCount: 2
Fore
SplineSet
540 267 m 1
 60 267 l 1
 60 341 l 1
 540 341 l 1
 540 267 l 1
EndSplineSet
EndChar

StartChar: emdash
Encoding: 8212 8212 73
Width: 600
Flags: MW
HStem: 267 74<0 600 0 600>
VStem: 0 600<267 341 267 341>
LayerCount: 2
Fore
SplineSet
600 267 m 1
 0 267 l 1
 0 341 l 1
 600 341 l 1
 600 267 l 1
EndSplineSet
EndChar

StartChar: underscore
Encoding: 95 95 74
Width: 600
Flags: MW
HStem: -169 74<60 540 60 540>
VStem: 60 480<-169 -95 -169 -95>
LayerCount: 2
Fore
SplineSet
540 -169 m 1
 60 -169 l 1
 60 -95 l 1
 540 -95 l 1
 540 -169 l 1
EndSplineSet
EndChar

StartChar: period
Encoding: 46 46 75
Width: 600
Flags: MW
HStem: -9 138<273 327>
VStem: 226 148<51 69 34 86>
LayerCount: 2
Fore
SplineSet
300 -9 m 0
 246 -9 226 17 226 51 c 2
 226 69 l 2
 226 103 246 129 300 129 c 0
 354 129 374 103 374 69 c 2
 374 51 l 2
 374 17 354 -9 300 -9 c 0
EndSplineSet
EndChar

StartChar: ellipsis
Encoding: 8230 8230 76
Width: 600
Flags: MW
HStem: -4 131<84 130 277 323 470 516>
VStem: 44 126<47 76 32.5 90.5> 237 126<47 76 32.5 90.5> 430 126<47 76 32.5 90.5>
CounterMasks: 1 70
LayerCount: 2
Fore
SplineSet
107 -4 m 0
 61 -4 44 18 44 47 c 2
 44 76 l 2
 44 105 61 127 107 127 c 0
 153 127 170 105 170 76 c 2
 170 47 l 2
 170 18 153 -4 107 -4 c 0
300 -4 m 0
 254 -4 237 18 237 47 c 2
 237 76 l 2
 237 105 254 127 300 127 c 0
 346 127 363 105 363 76 c 2
 363 47 l 2
 363 18 346 -4 300 -4 c 0
493 -4 m 0
 447 -4 430 18 430 47 c 2
 430 76 l 2
 430 105 447 127 493 127 c 0
 539 127 556 105 556 76 c 2
 556 47 l 2
 556 18 539 -4 493 -4 c 0
EndSplineSet
EndChar

StartChar: colon
Encoding: 58 58 77
Width: 600
Flags: MW
HStem: -9 138<273 327> 387 138<273 327>
VStem: 226 148<51 69 34 86 447 465>
LayerCount: 2
Fore
SplineSet
300 387 m 0
 246 387 226 413 226 447 c 2
 226 465 l 2
 226 499 246 525 300 525 c 0
 354 525 374 499 374 465 c 2
 374 447 l 2
 374 413 354 387 300 387 c 0
300 -9 m 0xa0
 246 -9 226 17 226 51 c 2
 226 69 l 2
 226 103 246 129 300 129 c 0
 354 129 374 103 374 69 c 2
 374 51 l 2
 374 17 354 -9 300 -9 c 0xa0
EndSplineSet
EndChar

StartChar: comma
Encoding: 44 44 78
Width: 600
Flags: MW
HStem: -141 277<204 386 257 271>
VStem: 204 182
LayerCount: 2
Fore
SplineSet
204 -141 m 1
 257 136 l 1
 386 136 l 1
 271 -141 l 1
 204 -141 l 1
EndSplineSet
EndChar

StartChar: semicolon
Encoding: 59 59 79
Width: 600
Flags: MW
HStem: -141 277<204 386 257 271> 387 138<273 327>
VStem: 204 182 226 148<447 465 430 482>
LayerCount: 2
Fore
SplineSet
300 387 m 0x50
 246 387 226 413 226 447 c 2
 226 465 l 2
 226 499 246 525 300 525 c 0
 354 525 374 499 374 465 c 2
 374 447 l 2
 374 413 354 387 300 387 c 0x50
204 -141 m 1xa0
 257 136 l 1
 386 136 l 1
 271 -141 l 1
 204 -141 l 1xa0
EndSplineSet
EndChar

StartChar: quotesingle
Encoding: 39 39 80
Width: 600
Flags: MW
HStem: 720 20G<262 338 338 338>
VStem: 262 76<463 740>
LayerCount: 2
Fore
SplineSet
338 463 m 1
 262 463 l 1
 262 740 l 1
 338 740 l 1
 338 463 l 1
EndSplineSet
EndChar

StartChar: quotedbl
Encoding: 34 34 81
Width: 600
Flags: MW
HStem: 720 20G<173 249 249 249 351 427 427 427>
VStem: 173 76<463 740> 351 76<463 740>
LayerCount: 2
Fore
SplineSet
427 463 m 1
 351 463 l 1
 351 740 l 1
 427 740 l 1
 427 463 l 1
249 463 m 1xc0
 173 463 l 1
 173 740 l 1
 249 740 l 1
 249 463 l 1xc0
EndSplineSet
EndChar

StartChar: quoteleft
Encoding: 8216 8216 82
Width: 600
Flags: MW
HStem: 720 20G<310 377 377 377>
VStem: 195 182
LayerCount: 2
Fore
SplineSet
195 463 m 1
 310 740 l 1
 377 740 l 1
 324 463 l 1
 195 463 l 1
EndSplineSet
EndChar

StartChar: quoteright
Encoding: 8217 8217 83
Width: 600
Flags: MW
HStem: 720 20G<276 405 405 405>
VStem: 223 182
LayerCount: 2
Fore
SplineSet
223 463 m 1
 276 740 l 1
 405 740 l 1
 290 463 l 1
 223 463 l 1
EndSplineSet
EndChar

StartChar: quotedblleft
Encoding: 8220 8220 84
Width: 600
Flags: MW
HStem: 720 20G<196 263 263 263 436 503 503 503>
VStem: 81 182 321 182
LayerCount: 2
Fore
SplineSet
321 463 m 1
 436 740 l 1
 503 740 l 1
 450 463 l 1
 321 463 l 1
81 463 m 1xc0
 196 740 l 1
 263 740 l 1
 210 463 l 1
 81 463 l 1xc0
EndSplineSet
EndChar

StartChar: quotedblright
Encoding: 8221 8221 85
Width: 600
Flags: MW
HStem: 720 20G<162 291 291 291 402 531 531 531>
VStem: 109 182 349 182
LayerCount: 2
Fore
SplineSet
349 463 m 1
 402 740 l 1
 531 740 l 1
 416 463 l 1
 349 463 l 1
109 463 m 1xc0
 162 740 l 1
 291 740 l 1
 176 463 l 1
 109 463 l 1xc0
EndSplineSet
EndChar

StartChar: quotesinglbase
Encoding: 8218 8218 86
Width: 600
Flags: MW
HStem: -141 277<204 386 257 271>
VStem: 204 182
LayerCount: 2
Fore
SplineSet
204 -141 m 1
 257 136 l 1
 386 136 l 1
 271 -141 l 1
 204 -141 l 1
EndSplineSet
EndChar

StartChar: quotedblbase
Encoding: 8222 8222 87
Width: 600
Flags: MW
HStem: -141 277<109 291 162 176 162 349 402 416>
VStem: 109 182 349 182
LayerCount: 2
Fore
SplineSet
349 -141 m 1
 402 136 l 1
 531 136 l 1
 416 -141 l 1
 349 -141 l 1
109 -141 m 1xc0
 162 136 l 1
 291 136 l 1
 176 -141 l 1
 109 -141 l 1xc0
EndSplineSet
EndChar

StartChar: guilsinglleft
Encoding: 8249 8249 88
Width: 600
Flags: MW
HStem: 56 428<376 376>
VStem: 170 231<113 310 113 310>
LayerCount: 2
Fore
SplineSet
401 113 m 1
 376 56 l 1
 170 230 l 1
 170 310 l 1
 376 484 l 1
 401 427 l 1
 253 270 l 1
 401 113 l 1
EndSplineSet
EndChar

StartChar: guilsinglright
Encoding: 8250 8250 89
Width: 600
Flags: MW
HStem: 56 428<224 224>
VStem: 199 231<113 310 230 427>
LayerCount: 2
Fore
SplineSet
224 56 m 1
 199 113 l 1
 347 270 l 1
 199 427 l 1
 224 484 l 1
 430 310 l 1
 430 230 l 1
 224 56 l 1
EndSplineSet
EndChar

StartChar: guillemotleft
Encoding: 171 171 90
Width: 600
Flags: MW
HStem: 56 428<279 279 279 509>
VStem: 73 231<113 310 113 310> 303 231<113 310 113 310>
LayerCount: 2
Fore
SplineSet
534 113 m 1xa0
 509 56 l 1
 303 230 l 1
 303 310 l 1
 509 484 l 1
 534 427 l 1
 386 270 l 1
 534 113 l 1xa0
304 113 m 1xc0
 279 56 l 1
 73 230 l 1
 73 310 l 1
 279 484 l 1
 304 427 l 1
 156 270 l 1
 304 113 l 1xc0
EndSplineSet
EndChar

StartChar: guillemotright
Encoding: 187 187 91
Width: 600
Flags: MW
HStem: 56 428<91 91 91 321>
VStem: 66 231<113 310 230 427> 296 231<113 310 230 427>
LayerCount: 2
Fore
SplineSet
321 56 m 1xa0
 296 113 l 1
 444 270 l 1
 296 427 l 1
 321 484 l 1
 527 310 l 1
 527 230 l 1
 321 56 l 1xa0
91 56 m 1xc0
 66 113 l 1
 214 270 l 1
 66 427 l 1
 91 484 l 1
 297 310 l 1
 297 230 l 1
 91 56 l 1xc0
EndSplineSet
EndChar

StartChar: exclamdown
Encoding: 161 161 92
Width: 600
Flags: MW
HStem: 387 138<273 327>
VStem: 226 148<447 465 430 482> 256 88<-182 21>
LayerCount: 2
Fore
SplineSet
344 -182 m 1xa0
 256 -182 l 1
 256 21 l 1
 284 283 l 1
 316 283 l 1
 344 21 l 1
 344 -182 l 1xa0
300 387 m 0
 246 387 226 413 226 447 c 2
 226 465 l 2
 226 499 246 525 300 525 c 0
 354 525 374 499 374 465 c 2
 374 447 l 2xc0
 374 413 354 387 300 387 c 0
EndSplineSet
EndChar

StartChar: exclam
Encoding: 33 33 93
Width: 600
Flags: MW
HStem: -9 138<273 327> 678 20G<256 344 344 344>
VStem: 226 148<51 69 34 86> 256 88<495 698 495 698>
LayerCount: 2
Fore
SplineSet
316 233 m 1xd0
 284 233 l 1
 256 495 l 1
 256 698 l 1
 344 698 l 1
 344 495 l 1
 316 233 l 1xd0
300 -9 m 0
 246 -9 226 17 226 51 c 2
 226 69 l 2
 226 103 246 129 300 129 c 0
 354 129 374 103 374 69 c 2
 374 51 l 2xe0
 374 17 354 -9 300 -9 c 0
EndSplineSet
EndChar

StartChar: questiondown
Encoding: 191 191 94
Width: 600
Flags: MW
HStem: -194 73<263.5 342 263.5 363> 387 138<291 345>
VStem: 90 87<-46 -9 -9 5 -46 58> 244 148<447 465 430 482> 282 79<200 301 144 301>
LayerCount: 2
Fore
SplineSet
299 -194 m 0xe8
 172 -194 90 -120 90 -5 c 0
 90 121 188 183 282 200 c 1
 282 301 l 1
 361 301 l 1
 361 144 l 1
 247 139 177 95 177 5 c 2
 177 -9 l 2
 177 -83 225 -121 302 -121 c 0
 382 -121 430 -71 448 -4 c 1
 523 -32 l 1
 497 -120 427 -194 299 -194 c 0xe8
318 387 m 0
 264 387 244 413 244 447 c 2
 244 465 l 2
 244 499 264 525 318 525 c 0
 372 525 392 499 392 465 c 2
 392 447 l 2xf0
 392 413 372 387 318 387 c 0
EndSplineSet
EndChar

StartChar: question
Encoding: 63 63 95
Width: 600
Flags: MW
HStem: -9 138<255 309> 637 73<258 336.5>
VStem: 208 148<51 69 34 86> 239 79<215 316> 423 87<511 525 525 562>
LayerCount: 2
Fore
SplineSet
318 215 m 1xd8
 239 215 l 1
 239 372 l 1
 353 377 423 421 423 511 c 2
 423 525 l 2
 423 599 375 637 298 637 c 0
 218 637 170 587 152 520 c 1
 77 548 l 1
 103 636 173 710 301 710 c 0
 428 710 510 636 510 521 c 0
 510 395 412 333 318 316 c 1
 318 215 l 1xd8
282 -9 m 0
 228 -9 208 17 208 51 c 2
 208 69 l 2
 208 103 228 129 282 129 c 0
 336 129 356 103 356 69 c 2
 356 51 l 2xe8
 356 17 336 -9 282 -9 c 0
EndSplineSet
EndChar

StartChar: parenleft
Encoding: 40 40 96
Width: 600
Flags: MW
HStem: -138 898<413 494 413 494>
VStem: 205 75<213.5 268 268 354>
LayerCount: 2
Fore
SplineSet
205 311 m 0
 205 506 300 676 413 760 c 1
 494 760 l 1
 378 673 280 525 280 354 c 2
 280 268 l 2
 280 97 378 -51 494 -138 c 1
 413 -138 l 1
 300 -54 205 116 205 311 c 0
EndSplineSet
EndChar

StartChar: parenright
Encoding: 41 41 97
Width: 600
Flags: MW
HStem: -138 898<106 187 106 187>
VStem: 320 75<268 354 354 408.5 213.5 439.5>
LayerCount: 2
Fore
SplineSet
395 311 m 0
 395 116 300 -54 187 -138 c 1
 106 -138 l 1
 222 -51 320 97 320 268 c 2
 320 354 l 2
 320 525 222 673 106 760 c 1
 187 760 l 1
 300 676 395 506 395 311 c 0
EndSplineSet
EndChar

StartChar: bracketleft
Encoding: 91 91 98
Width: 600
Flags: MW
HStem: -138 62<294 505 294 505> 698 62<294 505 294 294>
VStem: 225 69<-76 698 -76 760 -76 760>
LayerCount: 2
Fore
SplineSet
505 -138 m 1
 225 -138 l 1
 225 760 l 1
 505 760 l 1
 505 698 l 1
 294 698 l 1
 294 -76 l 1
 505 -76 l 1
 505 -138 l 1
EndSplineSet
EndChar

StartChar: bracketright
Encoding: 93 93 99
Width: 600
Flags: MW
HStem: -138 62<95 306 95 375 95 306> 698 62<95 306 95 375>
VStem: 306 69<-76 698 698 698>
LayerCount: 2
Fore
SplineSet
95 760 m 1
 375 760 l 1
 375 -138 l 1
 95 -138 l 1
 95 -76 l 1
 306 -76 l 1
 306 698 l 1
 95 698 l 1
 95 760 l 1
EndSplineSet
EndChar

StartChar: braceleft
Encoding: 123 123 100
Width: 600
Flags: MW
HStem: -138 62<304 319 319 495> 280 62<105 183 105 183> 698 62<319 495 319 495 304 495>
VStem: 235 69<-56 1 -76 7 -76 43 615 621 621 678 678 698> 321 70<196.5 232 390 425.5>
CounterMasks: 1 e0
LayerCount: 2
Fore
SplineSet
495 -138 m 1
 319 -138 l 2
 264 -138 235 -102 235 -56 c 2
 235 7 l 2
 235 79 267 112 291 142 c 0
 313 169 321 186 321 207 c 0
 321 257 273 280 183 280 c 2
 105 280 l 1
 105 342 l 1
 183 342 l 2
 273 342 321 365 321 415 c 0
 321 436 313 453 291 480 c 0
 267 510 235 543 235 615 c 2
 235 678 l 2
 235 724 264 760 319 760 c 2
 495 760 l 1
 495 698 l 1
 304 698 l 1
 304 621 l 2
 304 566 323 543 344 515 c 0
 366 486 391 456 391 414 c 0
 391 359 348 322 281 313 c 1
 281 309 l 1
 348 300 391 263 391 208 c 0
 391 166 366 136 344 107 c 0
 323 79 304 56 304 1 c 2
 304 -76 l 1
 495 -76 l 1
 495 -138 l 1
EndSplineSet
EndChar

StartChar: braceright
Encoding: 125 125 101
Width: 600
Flags: MW
HStem: -138 62<105 281 105 296> 280 62<372 495 417 495> 698 62<105 281 281 296 105 281>
VStem: 209 70<196.5 232 196.5 235.5 390 425.5> 296 69<-76 -56 -56 1 1 7 -79 28.5 621 678>
CounterMasks: 1 e0
LayerCount: 2
Fore
SplineSet
105 760 m 1
 281 760 l 2
 336 760 365 724 365 678 c 2
 365 615 l 2
 365 543 333 510 309 480 c 0
 287 453 279 436 279 415 c 0
 279 365 327 342 417 342 c 2
 495 342 l 1
 495 280 l 1
 417 280 l 2
 327 280 279 257 279 207 c 0
 279 186 287 169 309 142 c 0
 333 112 365 79 365 7 c 2
 365 -56 l 2
 365 -102 336 -138 281 -138 c 2
 105 -138 l 1
 105 -76 l 1
 296 -76 l 1
 296 1 l 2
 296 56 277 79 256 107 c 0
 234 136 209 166 209 208 c 0
 209 263 252 300 319 309 c 1
 319 313 l 1
 252 322 209 359 209 414 c 0
 209 456 234 486 256 515 c 0
 277 543 296 566 296 621 c 2
 296 698 l 1
 105 698 l 1
 105 760 l 1
EndSplineSet
EndChar

StartChar: slash
Encoding: 47 47 102
Width: 600
GlyphClass: 5
Flags: MW
HStem: -138 898<90 510 90 510>
VStem: 90 420
LayerCount: 2
Fore
SplineSet
162 -138 m 1
 90 -138 l 1
 438 760 l 1
 510 760 l 1
 162 -138 l 1
EndSplineSet
EndChar

StartChar: backslash
Encoding: 92 92 103
Width: 600
Flags: MW
HStem: -138 898<90 510 90 438>
VStem: 90 420
LayerCount: 2
Fore
SplineSet
510 -138 m 1
 438 -138 l 1
 90 760 l 1
 162 760 l 1
 510 -138 l 1
EndSplineSet
EndChar

StartChar: fraction
Encoding: 8260 8260 104
Width: 600
GlyphClass: 5
Flags: MW
HStem: 0 21G<18 18 18 90> 678 20G<510 582 582 582>
VStem: 18 564
LayerCount: 2
Fore
SplineSet
350 398 m 1
 510 698 l 1
 582 698 l 1
 422 398 l 1
 350 398 l 1
18 0 m 1
 178 300 l 1
 250 300 l 1
 90 0 l 1
 18 0 l 1
EndSplineSet
EndChar

StartChar: percent
Encoding: 37 37 105
Width: 600
Flags: MW
HStem: -12 54<407 455 407 474.5> 0 21G<18 18 18 90> 288 54<407 455> 356 54<145 193 145 212.5> 656 54<145 193> 678 20G<510 582 582 582>
VStem: 20 68<476.5 508 508 558 476.5 591.5> 250 68<508 558 558 589.5> 282 68<108.5 140 140 190 108.5 223.5> 512 68<140 190 190 221.5>
LayerCount: 2
Fore
SplineSet
169 356 m 0x7b40
 82 356 20 416 20 533 c 0
 20 650 82 710 169 710 c 0
 256 710 318 650 318 533 c 0
 318 416 256 356 169 356 c 0x7b40
169 410 m 0
 217 410 250 445 250 508 c 2
 250 558 l 2
 250 621 217 656 169 656 c 0
 121 656 88 621 88 558 c 2
 88 508 l 2
 88 445 121 410 169 410 c 0
350 398 m 1x76c0
 510 698 l 1
 582 698 l 1
 422 398 l 1
 350 398 l 1x76c0
18 0 m 1
 178 300 l 1
 250 300 l 1x7b40
 90 0 l 1
 18 0 l 1
431 -12 m 0xbac0
 344 -12 282 48 282 165 c 0
 282 282 344 342 431 342 c 0
 518 342 580 282 580 165 c 0
 580 48 518 -12 431 -12 c 0xbac0
431 42 m 0
 479 42 512 77 512 140 c 2
 512 190 l 2
 512 253 479 288 431 288 c 0
 383 288 350 253 350 190 c 2
 350 140 l 2
 350 77 383 42 431 42 c 0
EndSplineSet
EndChar

StartChar: perthousand
Encoding: 8240 8240 106
Width: 600
Flags: MW
HStem: -12 50<228.5 270.5 441.5 483.5> 248 50<228.5 270.5 206 273.5 441.5 483.5> 400 50<116.5 161.5 116.5 182.5> 660 50<116.5 161.5>
VStem: 0 68<507 531 531 579 507 606> 112 68<95 119 119 167 95 194> 210 68<531 579 579 603> 322 68<119 167 95 191> 532 68<119 167 167 191>
LayerCount: 2
Fore
SplineSet
139 400 m 0
 53 400 0 452 0 555 c 0
 0 657 52 710 139 710 c 0
 225 710 278 658 278 555 c 0
 278 453 226 400 139 400 c 0
139 450 m 0
 184 450 210 483 210 531 c 2
 210 579 l 2
 210 627 184 660 139 660 c 0
 94 660 68 627 68 579 c 2
 68 531 l 2
 68 483 94 450 139 450 c 0
81 278 m 1
 61 328 l 1
 511 504 l 1
 531 454 l 1
 81 278 l 1
248 -12 m 0
 164 -12 112 41 112 143 c 0
 112 245 164 298 248 298 c 0
 293 298 329 280 354 248 c 1
 359 248 l 1
 383 280 419 298 464 298 c 0
 548 298 600 245 600 143 c 0
 600 41 548 -12 464 -12 c 0
 419 -12 383 6 359 38 c 1
 353 38 l 1
 329 6 293 -12 248 -12 c 0
251 38 m 0
 296 38 322 71 322 119 c 2
 322 167 l 2
 322 215 296 248 251 248 c 0
 206 248 180 215 180 167 c 2
 180 119 l 2
 180 71 206 38 251 38 c 0
461 38 m 0
 506 38 532 71 532 119 c 2
 532 167 l 2
 532 215 506 248 461 248 c 0
 416 248 390 215 390 167 c 2
 390 119 l 2
 390 71 416 38 461 38 c 0
EndSplineSet
EndChar

StartChar: bar
Encoding: 124 124 107
Width: 600
Flags: MW
HStem: -138 898<265 335 265 335>
VStem: 265 70<-138 760>
LayerCount: 2
Fore
SplineSet
335 -138 m 1
 265 -138 l 1
 265 760 l 1
 335 760 l 1
 335 -138 l 1
EndSplineSet
EndChar

StartChar: brokenbar
Encoding: 166 166 108
Width: 600
Flags: MW
HStem: -138 898<265 335 265 335>
VStem: 265 70<-138 221 401 760>
LayerCount: 2
Fore
SplineSet
335 401 m 1
 265 401 l 1
 265 760 l 1
 335 760 l 1
 335 401 l 1
335 -138 m 1
 265 -138 l 1
 265 221 l 1
 335 221 l 1
 335 -138 l 1
EndSplineSet
EndChar

StartChar: section
Encoding: 167 167 109
Width: 600
Flags: MW
HStem: -155 69<261.5 325 261.5 346> 641 69<279 342.5>
VStem: 81 79<263.5 304> 117 79<528 580 528 600> 408 79<-25 27> 444 79<251 291.5>
LayerCount: 2
Fore
SplineSet
487 3 m 0xe8
 487 -93 406 -155 286 -155 c 0
 225 -155 163 -139 116 -99 c 1
 163 -43 l 1
 195 -70 236 -86 287 -86 c 0
 363 -86 408 -52 408 2 c 0
 408 52 369 80 302 99 c 2
 238 117 l 2
 128 148 81 204 81 272 c 0xe8
 81 336 122 387 193 415 c 1
 193 420 l 1
 141 452 117 499 117 552 c 0
 117 648 198 710 318 710 c 0
 379 710 441 694 488 654 c 1
 441 598 l 1
 409 625 368 641 317 641 c 0
 241 641 196 607 196 553 c 0
 196 503 235 475 302 456 c 2
 366 438 l 2
 476 407 523 351 523 283 c 0xd4
 523 219 482 168 411 140 c 1
 411 135 l 1
 463 103 487 56 487 3 c 0xe8
444 263 m 0xe4
 444 320 406 353 324 375 c 2
 261 392 l 2
 249 395 237 399 227 403 c 1
 186 375 160 339 160 292 c 0
 160 235 198 202 280 180 c 2
 343 163 l 2
 355 160 367 156 377 152 c 1
 418 180 444 216 444 263 c 0xe4
EndSplineSet
EndChar

StartChar: paragraph
Encoding: 182 182 110
Width: 600
Flags: MW
HStem: 634 64<342 432 342 342>
VStem: 270 72<-149 246 246 246 -149 698> 432 72<-149 634 634 634>
LayerCount: 2
Fore
SplineSet
270 -149 m 1
 270 246 l 1
 146 246 45 341 45 472 c 0
 45 603 146 698 270 698 c 2
 504 698 l 1
 504 -149 l 1
 432 -149 l 1
 432 634 l 1
 342 634 l 1
 342 -149 l 1
 270 -149 l 1
EndSplineSet
EndChar

StartChar: copyright
Encoding: 169 169 111
Width: 600
Flags: MW
HStem: 18 55<231.5 368.5 231.5 383.5> 171 57<279 326 279 337.5> 470 57<279 323.5> 625 55<231.5 368.5>
VStem: 0 63<250.5 319 319 379 250.5 451> 151 72<295 321 321 378 293.5 403.5> 537 63<319 379 379 447.5>
LayerCount: 2
Fore
SplineSet
300 18 m 0
 133 18 0 145 0 349 c 0
 0 553 133 680 300 680 c 0
 467 680 600 553 600 349 c 0
 600 145 467 18 300 18 c 0
300 73 m 0
 437 73 537 182 537 319 c 2
 537 379 l 2
 537 516 437 625 300 625 c 0
 163 625 63 516 63 379 c 2
 63 319 l 2
 63 182 163 73 300 73 c 0
305 171 m 0
 208 171 151 241 151 349 c 0
 151 458 209 527 305 527 c 0
 368 527 409 495 431 447 c 1
 378 418 l 1
 364 450 342 470 305 470 c 0
 253 470 223 432 223 378 c 2
 223 321 l 2
 223 266 252 228 306 228 c 0
 346 228 368 250 386 283 c 1
 436 252 l 1
 414 205 370 171 305 171 c 0
EndSplineSet
EndChar

StartChar: registered
Encoding: 174 174 112
Width: 600
Flags: MW
HStem: 346 41<261.5 338.5 261.5 351> 506 29<270 306 270 299> 590 31<270 306 270 270> 669 41<261.5 338.5>
VStem: 117 48<478.5 518 518 538 478.5 580> 230 40<436 506 535 590> 332 42<559 566 566 573.5> 435 48<518 538 538 577.5>
LayerCount: 2
Fore
SplineSet
300 346 m 0
 198 346 117 424 117 528 c 0
 117 632 198 710 300 710 c 0
 402 710 483 632 483 528 c 0
 483 424 402 346 300 346 c 0
300 387 m 0
 377 387 435 439 435 518 c 2
 435 538 l 2
 435 617 377 669 300 669 c 0
 223 669 165 617 165 538 c 2
 165 518 l 2
 165 439 223 387 300 387 c 0
270 506 m 1
 270 436 l 1
 230 436 l 1
 230 621 l 1
 315 621 l 2
 352 621 374 599 374 564 c 0
 374 539 360 520 337 512 c 1
 383 436 l 1
 338 436 l 1
 299 506 l 1
 270 506 l 1
270 535 m 1
 306 535 l 2
 322 535 332 544 332 559 c 2
 332 566 l 2
 332 581 322 590 306 590 c 2
 270 590 l 1
 270 535 l 1
EndSplineSet
EndChar

StartChar: trademark
Encoding: 8482 8482 113
Width: 600
Flags: MW
HStem: 652 46<16 102 16 240 154 154 154 240>
VStem: 102 52<419 652> 282 51<629 629 629 698> 491 51<629 629>
LayerCount: 2
Fore
SplineSet
154 419 m 1
 102 419 l 1
 102 652 l 1
 16 652 l 1
 16 698 l 1
 240 698 l 1
 240 652 l 1
 154 652 l 1
 154 419 l 1
330 419 m 1
 282 419 l 1
 282 698 l 1
 347 698 l 1
 412 564 l 1
 415 564 l 1
 480 698 l 1
 542 698 l 1
 542 419 l 1
 494 419 l 1
 494 546 l 1
 495 629 l 1
 491 629 l 1
 412 473 l 1
 333 629 l 1
 329 629 l 1
 330 546 l 1
 330 419 l 1
EndSplineSet
EndChar

StartChar: ordfeminine
Encoding: 170 170 114
Width: 600
Flags: MW
HStem: 349 51<242 280> 357 56<425 429 429 463> 506 46<259.5 362 289 362 289 362> 658 52<262 310>
VStem: 138 63<432 449 449 459 432 483.5> 362 63<410 583 465 506 506 506 552 580 580 583 413 606.5>
LayerCount: 2
Fore
SplineSet
463 357 m 1x7c
 429 357 l 2x7c
 385 357 368 377 366 410 c 1
 362 410 l 1
 347 379 311 349 249 349 c 0xbc
 177 349 138 389 138 448 c 0
 138 519 193 552 289 552 c 2
 362 552 l 1
 362 580 l 2
 362 633 335 658 285 658 c 0
 239 658 207 636 192 606 c 1
 150 640 l 1
 170 674 214 710 288 710 c 0
 373 710 425 664 425 583 c 2
 425 413 l 1
 463 413 l 1
 463 357 l 1x7c
362 506 m 1
 287 506 l 2
 232 506 201 490 201 459 c 2
 201 449 l 2
 201 415 222 400 262 400 c 0xbc
 315 400 362 425 362 465 c 2
 362 506 l 1
EndSplineSet
EndChar

StartChar: ordmasculine
Encoding: 186 186 115
Width: 600
Flags: MW
HStem: 349 53<270 330 270 350> 657 53<270 330>
VStem: 140 69<474 500 500 559 471.5 585.5> 391 69<500 559 559 585.5 474 587.5>
LayerCount: 2
Fore
SplineSet
300 349 m 0
 199 349 140 418 140 530 c 0
 140 641 200 710 300 710 c 0
 400 710 460 641 460 530 c 0
 460 418 400 349 300 349 c 0
300 402 m 0
 360 402 391 443 391 500 c 2
 391 559 l 2
 391 616 360 657 300 657 c 0
 240 657 209 616 209 559 c 2
 209 500 l 2
 209 443 240 402 300 402 c 0
EndSplineSet
EndChar

StartChar: degree
Encoding: 176 176 116
Width: 600
Flags: MW
HStem: 368 64<269.5 330.5 269.5 348> 646 64<269.5 330.5>
VStem: 129 70<509 569 509 587.5> 401 70<509 569>
LayerCount: 2
Fore
SplineSet
300 368 m 0
 204 368 129 442 129 539 c 0
 129 636 204 710 300 710 c 0
 396 710 471 636 471 539 c 0
 471 442 396 368 300 368 c 0
300 432 m 0
 361 432 401 479 401 539 c 0
 401 599 361 646 300 646 c 0
 239 646 199 599 199 539 c 0
 199 479 239 432 300 432 c 0
EndSplineSet
EndChar

StartChar: asterisk
Encoding: 42 42 117
Width: 600
Flags: MW
HStem: 55 493<145 384 312 392>
VStem: 56 506<332 336>
LayerCount: 2
Fore
SplineSet
296 227 m 1
 145 55 l 1
 92 99 l 1
 242 267 l 1
 56 336 l 1
 86 396 l 1
 276 332 l 1
 312 548 l 1
 384 548 l 1
 348 332 l 1
 553 396 l 1
 562 332 l 1
 355 264 l 1
 450 96 l 1
 392 55 l 1
 296 227 l 1
EndSplineSet
EndChar

StartChar: dagger
Encoding: 8224 8224 118
Width: 600
Flags: MW
HStem: -200 21G<265 335 265 265> 452 64<70 265 70 265 335 530> 720 20G<265 335 335 335>
VStem: 265 70<-200 452 516 740>
LayerCount: 2
Fore
SplineSet
335 -200 m 1
 265 -200 l 1
 265 452 l 1
 70 452 l 1
 70 516 l 1
 265 516 l 1
 265 740 l 1
 335 740 l 1
 335 516 l 1
 530 516 l 1
 530 452 l 1
 335 452 l 1
 335 -200 l 1
EndSplineSet
EndChar

StartChar: daggerdbl
Encoding: 8225 8225 119
Width: 600
Flags: MW
HStem: -200 21G<265 335 265 265> 24 64<70 265 70 265 335 530> 452 64<70 265 70 265 335 530> 720 20G<265 335 335 335>
VStem: 265 70<-200 24 88 452 516 740>
LayerCount: 2
Fore
SplineSet
335 -200 m 1
 265 -200 l 1
 265 24 l 1
 70 24 l 1
 70 88 l 1
 265 88 l 1
 265 452 l 1
 70 452 l 1
 70 516 l 1
 265 516 l 1
 265 740 l 1
 335 740 l 1
 335 516 l 1
 530 516 l 1
 530 452 l 1
 335 452 l 1
 335 88 l 1
 530 88 l 1
 530 24 l 1
 335 24 l 1
 335 -200 l 1
EndSplineSet
EndChar

StartChar: numbersign
Encoding: 35 35 120
Width: 600
Flags: MW
HStem: 0 21G<110 110 110 183 294 367 294 294> 216 66<16 148 16 160 417 548> 416 66<52 183 52 195 452 584> 678 20G<233 306 306 306 417 490 490 490>
VStem: 16 568<216 482 282 482>
LayerCount: 2
Fore
SplineSet
110 0 m 1
 148 216 l 1
 16 216 l 1
 16 282 l 1
 160 282 l 1
 183 416 l 1
 52 416 l 1
 52 482 l 1
 195 482 l 1
 233 698 l 1
 306 698 l 1
 183 0 l 1
 110 0 l 1
294 0 m 1
 417 698 l 1
 490 698 l 1
 452 482 l 1
 584 482 l 1
 584 416 l 1
 440 416 l 1
 417 282 l 1
 548 282 l 1
 548 216 l 1
 405 216 l 1
 367 0 l 1
 294 0 l 1
EndSplineSet
EndChar

StartChar: asciicircum
Encoding: 94 94 121
Width: 600
Flags: MW
HStem: 287 411<107 345 255 489>
VStem: 45 510<318 318>
LayerCount: 2
Fore
SplineSet
555 318 m 1
 489 287 l 1
 300 629 l 1
 296 629 l 1
 107 287 l 1
 45 318 l 1
 255 698 l 1
 345 698 l 1
 555 318 l 1
EndSplineSet
EndChar

StartChar: asciitilde
Encoding: 126 126 122
Width: 600
Flags: MW
HStem: 237 67<392.5 428.5 392.5 445> 306 67<171.5 207.5>
VStem: 52 496<262 348>
LayerCount: 2
Fore
SplineSet
408 237 m 0
 367 237 330 252 295 269 c 0
 260 286 224 306 191 306 c 0
 152 306 130 277 113 237 c 1
 52 262 l 1
 70 325 118 373 192 373 c 0
 233 373 270 358 305 341 c 0
 340 324 376 304 409 304 c 0
 448 304 470 333 487 373 c 1
 548 348 l 1
 530 285 482 237 408 237 c 0
EndSplineSet
EndChar

StartChar: plus
Encoding: 43 43 123
Width: 600
Flags: MW
HStem: 271 68<62 262 62 262 338 538>
VStem: 262 76<62 271 339 548>
LayerCount: 2
Fore
SplineSet
338 62 m 1
 262 62 l 1
 262 271 l 1
 62 271 l 1
 62 339 l 1
 262 339 l 1
 262 548 l 1
 338 548 l 1
 338 339 l 1
 538 339 l 1
 538 271 l 1
 338 271 l 1
 338 62 l 1
EndSplineSet
EndChar

StartChar: minus
Encoding: 8722 8722 124
Width: 600
Flags: MW
HStem: 271 68<62 538 62 538>
VStem: 62 476<271 339 271 339>
LayerCount: 2
Fore
SplineSet
538 271 m 1
 62 271 l 1
 62 339 l 1
 538 339 l 1
 538 271 l 1
EndSplineSet
EndChar

StartChar: plusminus
Encoding: 177 177 125
Width: 600
Flags: MW
HStem: 0 68<62 538 62 538> 351 68<62 262 62 262 338 538>
VStem: 262 76<152 351 419 618>
LayerCount: 2
Fore
SplineSet
338 152 m 1
 262 152 l 1
 262 351 l 1
 62 351 l 1
 62 419 l 1
 262 419 l 1
 262 618 l 1
 338 618 l 1
 338 419 l 1
 538 419 l 1
 538 351 l 1
 338 351 l 1
 338 152 l 1
538 0 m 1
 62 0 l 1
 62 68 l 1
 538 68 l 1
 538 0 l 1
EndSplineSet
EndChar

StartChar: multiply
Encoding: 215 215 126
Width: 600
Flags: MW
HStem: 93 424<137 137 137 463>
VStem: 88 424<142 142 142 468>
LayerCount: 2
Fore
SplineSet
463 93 m 1
 300 256 l 1
 137 93 l 1
 88 142 l 1
 251 305 l 1
 88 468 l 1
 137 517 l 1
 300 354 l 1
 463 517 l 1
 512 468 l 1
 349 305 l 1
 512 142 l 1
 463 93 l 1
EndSplineSet
EndChar

StartChar: divide
Encoding: 247 247 127
Width: 600
Flags: MW
HStem: 52 118<277 323> 271 68<62 538 62 538> 440 118<277 323>
VStem: 238 124<100 122 86.5 135.5 488 510>
CounterMasks: 1 e0
LayerCount: 2
Fore
SplineSet
538 271 m 1
 62 271 l 1
 62 339 l 1
 538 339 l 1
 538 271 l 1
300 52 m 0
 254 52 238 73 238 100 c 2
 238 122 l 2
 238 149 254 170 300 170 c 0
 346 170 362 149 362 122 c 2
 362 100 l 2
 362 73 346 52 300 52 c 0
300 440 m 0
 254 440 238 461 238 488 c 2
 238 510 l 2
 238 537 254 558 300 558 c 0
 346 558 362 537 362 510 c 2
 362 488 l 2
 362 461 346 440 300 440 c 0
EndSplineSet
EndChar

StartChar: equal
Encoding: 61 61 128
Width: 600
Flags: MW
HStem: 172 68<62 538 62 538> 372 68<62 538 62 538>
VStem: 62 476<172 240 172 240 372 440 172 440>
LayerCount: 2
Fore
SplineSet
538 372 m 1
 62 372 l 1
 62 440 l 1
 538 440 l 1
 538 372 l 1
538 172 m 1
 62 172 l 1
 62 240 l 1
 538 240 l 1
 538 172 l 1
EndSplineSet
EndChar

StartChar: approxequal
Encoding: 8776 8776 129
Width: 600
Flags: MW
HStem: 138 67<392.5 428.5 392.5 445> 207 67<171.5 207.5> 337 67<392.5 428.5 392.5 445> 406 67<171.5 207.5>
VStem: 52 496<163 249 249 362>
LayerCount: 2
Fore
SplineSet
408 138 m 0
 367 138 330 153 295 170 c 0
 260 187 224 207 191 207 c 0
 152 207 130 178 113 138 c 1
 52 163 l 1
 70 226 118 274 192 274 c 0
 233 274 270 259 305 242 c 0
 340 225 376 205 409 205 c 0
 448 205 470 234 487 274 c 1
 548 249 l 1
 530 186 482 138 408 138 c 0
408 337 m 0x38
 367 337 330 352 295 369 c 0
 260 386 224 406 191 406 c 0
 152 406 130 377 113 337 c 1
 52 362 l 1
 70 425 118 473 192 473 c 0
 233 473 270 458 305 441 c 0
 340 424 376 404 409 404 c 0
 448 404 470 433 487 473 c 1
 548 448 l 1
 530 385 482 337 408 337 c 0x38
EndSplineSet
EndChar

StartChar: notequal
Encoding: 8800 8800 130
Width: 600
Flags: MW
HStem: 172 68<62 192 62 229 62 263 300 538> 372 68<62 300 62 337 62 371 408 538>
VStem: 62 476<172 240 172 240 372 440 172 440>
LayerCount: 2
Fore
SplineSet
209 72 m 1
 137 72 l 1
 192 172 l 1
 62 172 l 1
 62 240 l 1
 229 240 l 1
 300 372 l 1
 62 372 l 1
 62 440 l 1
 337 440 l 1
 391 540 l 1
 463 540 l 1
 408 440 l 1
 538 440 l 1
 538 372 l 1
 371 372 l 1
 300 240 l 1
 538 240 l 1
 538 172 l 1
 263 172 l 1
 209 72 l 1
EndSplineSet
EndChar

StartChar: less
Encoding: 60 60 131
Width: 600
Flags: MW
HStem: 16 578<515 515>
VStem: 85 430<16 345 16 345>
LayerCount: 2
Fore
SplineSet
515 16 m 1
 85 265 l 1
 85 345 l 1
 515 594 l 1
 515 511 l 1
 160 310 l 1
 160 302 l 1
 515 101 l 1
 515 16 l 1
EndSplineSet
EndChar

StartChar: greater
Encoding: 62 62 132
Width: 600
Flags: MW
HStem: 16 578<85 85>
VStem: 85 430<16 345 99 345 265 594 265 594>
LayerCount: 2
Fore
SplineSet
85 16 m 1
 85 99 l 1
 440 300 l 1
 440 308 l 1
 85 509 l 1
 85 594 l 1
 515 345 l 1
 515 265 l 1
 85 16 l 1
EndSplineSet
EndChar

StartChar: lessequal
Encoding: 8804 8804 133
Width: 600
Flags: MW
HStem: 0 68<85 515 85 515>
VStem: 85 430<0 68 0 68 0 401 0 401>
LayerCount: 2
Fore
SplineSet
515 0 m 1
 85 0 l 1
 85 68 l 1
 515 68 l 1
 515 0 l 1
515 593 m 1
 515 513 l 1
 160 361 l 1
 160 354 l 1
 515 203 l 1
 515 121 l 1
 85 312 l 1
 85 401 l 1
 515 593 l 1
EndSplineSet
EndChar

StartChar: greaterequal
Encoding: 8805 8805 134
Width: 600
Flags: MW
HStem: 0 68<85 515 85 515>
VStem: 85 430<0 68 0 68 0 201 0 201>
LayerCount: 2
Fore
SplineSet
85 121 m 1
 85 201 l 1
 440 353 l 1
 440 360 l 1
 85 511 l 1
 85 593 l 1
 515 402 l 1
 515 313 l 1
 85 121 l 1
85 0 m 1
 85 68 l 1
 515 68 l 1
 515 0 l 1
 85 0 l 1
EndSplineSet
EndChar

StartChar: periodcentered
Encoding: 183 183 135
Width: 600
Flags: MW
HStem: 235 138<273 327>
VStem: 226 148<295 313 278 330>
LayerCount: 2
Fore
SplineSet
300 235 m 0
 246 235 226 261 226 295 c 2
 226 313 l 2
 226 347 246 373 300 373 c 0
 354 373 374 347 374 313 c 2
 374 295 l 2
 374 261 354 235 300 235 c 0
EndSplineSet
EndChar

StartChar: bullet
Encoding: 8226 8226 136
Width: 600
Flags: MW
HStem: 186 236<255.5 344.5>
VStem: 178 244<290 318 260.5 347.5>
LayerCount: 2
Fore
SplineSet
300 186 m 0
 211 186 178 231 178 290 c 2
 178 318 l 2
 178 377 211 422 300 422 c 0
 389 422 422 377 422 318 c 2
 422 290 l 2
 422 231 389 186 300 186 c 0
EndSplineSet
EndChar

StartChar: lozenge
Encoding: 9674 9674 137
Width: 600
Flags: MW
HStem: 0 21G<260 341 260 260> 678 20G<260 341 341 341>
VStem: 42 517<349 349>
LayerCount: 2
Fore
SplineSet
341 0 m 1
 260 0 l 1
 42 349 l 1
 260 698 l 1
 341 698 l 1
 559 349 l 1
 341 0 l 1
297 75 m 1
 304 75 l 1
 475 349 l 1
 304 623 l 1
 297 623 l 1
 126 349 l 1
 297 75 l 1
EndSplineSet
EndChar

StartChar: logicalnot
Encoding: 172 172 138
Width: 600
Flags: MW
HStem: 271 68<62 453 62 522>
VStem: 453 69<78 271 271 271>
LayerCount: 2
Fore
SplineSet
522 78 m 1
 453 78 l 1
 453 271 l 1
 62 271 l 1
 62 339 l 1
 522 339 l 1
 522 78 l 1
EndSplineSet
EndChar

StartChar: radical
Encoding: 8730 8730 139
Width: 600
Flags: MW
HStem: 0 67<309 314 309 367 253 314> 452 64<24 126 24 187> 678 20G<494 572 572 572>
VStem: 24 548<452 698 516 698>
LayerCount: 2
Fore
SplineSet
367 0 m 1
 253 0 l 1
 126 452 l 1
 24 452 l 1
 24 516 l 1
 187 516 l 1
 232 351 l 1
 309 67 l 1
 314 67 l 1
 395 351 l 1
 494 698 l 1
 572 698 l 1
 367 0 l 1
EndSplineSet
EndChar

StartChar: integral
Encoding: 8747 8747 140
Width: 600
Flags: MW
HStem: -200 68<35 247 35 213> 671 69<361 539 361 539 327 539>
VStem: 247 80<-116.5 -82 -82 622 622 656.5>
LayerCount: 2
Fore
SplineSet
35 -200 m 1
 35 -132 l 1
 247 -132 l 1
 247 622 l 2
 247 691 283 740 361 740 c 2
 539 740 l 1
 539 671 l 1
 327 671 l 1
 327 -82 l 2
 327 -151 291 -200 213 -200 c 2
 35 -200 l 1
EndSplineSet
EndChar

StartChar: infinity
Encoding: 8734 8734 141
Width: 600
Flags: MW
HStem: 126 62<142 185.5 411.5 458> 422 62<142 188.5 413.5 458>
VStem: 11 76<249 278 278 332 249 361.5> 513 76<278 332 332 361>
LayerCount: 2
Fore
SplineSet
157 126 m 0
 64 126 11 192 11 305 c 0
 11 418 69 484 165 484 c 0
 236 484 287 444 316 351 c 1
 320 351 l 1
 337 439 385 484 442 484 c 0
 535 484 589 418 589 305 c 0
 589 192 531 126 435 126 c 0
 364 126 313 166 284 259 c 1
 280 259 l 1
 263 171 214 126 157 126 c 0
166 188 m 0
 211 188 248 234 269 307 c 1
 248 378 211 422 166 422 c 0
 118 422 87 390 87 332 c 2
 87 278 l 2
 87 220 118 188 166 188 c 0
434 188 m 0
 482 188 513 220 513 278 c 2
 513 332 l 2
 513 390 482 422 434 422 c 0
 389 422 352 376 331 303 c 1
 352 232 389 188 434 188 c 0
EndSplineSet
EndChar

StartChar: uni212E
Encoding: 8494 8494 142
Width: 600
Flags: MW
HStem: -12 46<265.5 351 265.5 362> 349 40<145 455 145 455 145 574> 666 44<266 334>
VStem: 26 119<245.5 349 389 452.5> 455 119<389 452.5 349 594>
LayerCount: 2
Fore
SplineSet
145 349 m 1
 145 109 l 1
 177 69 231 34 300 34 c 0
 402 34 462 91 505 170 c 1
 546 147 l 1
 499 60 424 -12 300 -12 c 0
 134 -12 26 142 26 349 c 0
 26 556 134 710 300 710 c 0
 466 710 574 556 574 349 c 1
 145 349 l 1
145 389 m 1
 455 389 l 1
 455 594 l 1
 421 635 368 666 300 666 c 0
 232 666 179 635 145 594 c 1
 145 389 l 1
EndSplineSet
EndChar

StartChar: uni2113
Encoding: 8467 8467 143
Width: 600
Flags: MW
HStem: -12 67<297.5 354.5 297.5 371> 685 67<287.5 327>
VStem: 159 79<159 178 178 183 183 183 309 555 555 562> 373 75<575 592 592 626>
LayerCount: 2
Fore
SplineSet
321 -12 m 0
 215 -12 159 58 159 159 c 2
 159 183 l 1
 140 169 123 158 103 146 c 1
 70 200 l 1
 99 218 131 237 159 259 c 1
 159 555 l 2
 159 698 219 752 307 752 c 0
 398 752 448 693 448 585 c 0
 448 452 374 343 238 223 c 1
 238 178 l 2
 238 88 270 55 325 55 c 0
 384 55 415 94 452 162 c 1
 510 127 l 1
 479 50 421 -12 321 -12 c 0
308 685 m 0
 267 685 238 655 238 562 c 2
 238 309 l 1
 325 398 373 485 373 575 c 2
 373 592 l 2
 373 660 346 685 308 685 c 0
EndSplineSet
EndChar

StartChar: uni2116
Encoding: 8470 8470 144
Width: 600
Flags: MW
HStem: 0 90<206 265 259 265 259 333> 256 57<377 585 377 585> 345 54<462 499.5 462 516.5> 608 90<111 117 111 111> 652 54<462 499.5>
VStem: 43 68<0 608> 265 68<90 698 0 698> 373 62<465 488 488 563> 527 62<488 563 563 586.5 465 591.5>
LayerCount: 2
Fore
SplineSet
481 345 m 0xef80
 409 345 373 404 373 526 c 0
 373 647 410 706 481 706 c 0
 552 706 589 647 589 526 c 0
 589 404 552 345 481 345 c 0xef80
111 0 m 1
 43 0 l 1
 43 698 l 1
 170 698 l 1
 221 349 l 1
 259 90 l 1
 265 90 l 1
 265 698 l 1
 333 698 l 1
 333 0 l 1
 206 0 l 1
 155 349 l 1
 117 608 l 1
 111 608 l 1xf780
 111 0 l 1
481 399 m 0
 518 399 527 431 527 488 c 2
 527 563 l 2
 527 620 518 652 481 652 c 0xef80
 443 652 435 620 435 563 c 2
 435 488 l 2
 435 431 443 399 481 399 c 0
585 256 m 1
 377 256 l 1
 377 313 l 1
 585 313 l 1
 585 256 l 1
EndSplineSet
EndChar

StartChar: partialdiff
Encoding: 8706 8706 145
Width: 600
Flags: MW
HStem: -12 69<255.5 344.5 255.5 374.5> 435 69<255.5 320 217.5 344.5> 678 20G<142 273 273 273>
VStem: 66 85<167.5 211 211 281 159 325> 449 85<211 281 281 333 175 410>
LayerCount: 2
Fore
SplineSet
534 272 m 0
 534 78 445 -12 304 -12 c 0
 154 -12 66 89 66 246 c 0
 66 404 156 504 279 504 c 0
 361 504 412 460 445 408 c 1
 449 410 l 1
 404 538 281 632 142 698 c 1
 273 698 l 1
 376 636 534 530 534 272 c 0
300 57 m 0
 389 57 449 107 449 211 c 2
 449 281 l 2
 449 385 389 435 300 435 c 0
 211 435 151 385 151 281 c 2
 151 211 l 2
 151 107 211 57 300 57 c 0
EndSplineSet
EndChar

StartChar: cent
Encoding: 162 162 146
Width: 600
Flags: MW
HStem: -11 69<340 341> 458 69<340 341>
VStem: 84 86<184 214 214 302> 279 62<-114 -11 527 630>
LayerCount: 2
Fore
SplineSet
341 -114 m 1
 279 -114 l 1
 279 -9 l 1
 155 8 84 110 84 258 c 0
 84 407 156 508 279 525 c 1
 279 630 l 1
 341 630 l 1
 341 527 l 1
 427 520 481 473 508 409 c 1
 444 375 l 1
 427 421 392 451 340 458 c 1
 340 58 l 1
 397 64 436 97 459 147 c 1
 516 108 l 1
 488 44 431 -4 341 -11 c 1
 341 -114 l 1
170 214 m 2
 170 136 208 76 280 61 c 1
 280 455 l 1
 209 440 170 380 170 302 c 2
 170 214 l 2
EndSplineSet
EndChar

StartChar: Euro
Encoding: 8364 8364 147
Width: 600
Flags: MW
HStem: -12 71<275 366 275 387> 234 69<160 388 160 160> 395 69<160 388 160 388 157 388> 639 71<275 366>
VStem: 70 87<303 395 303 465>
LayerCount: 2
Fore
SplineSet
323 -12 m 0
 153 -12 70 117 70 349 c 0
 70 581 153 710 323 710 c 0
 451 710 504 633 538 557 c 1
 468 525 l 1
 443 588 409 639 323 639 c 0
 227 639 174 572 160 464 c 1
 388 464 l 1
 388 395 l 1
 157 395 l 1
 157 303 l 1
 388 303 l 1
 388 234 l 1
 160 234 l 1
 174 126 227 59 323 59 c 0
 409 59 443 110 468 173 c 1
 538 141 l 1
 504 65 451 -12 323 -12 c 0
EndSplineSet
EndChar

StartChar: florin
Encoding: 402 402 148
Width: 600
Flags: MW
HStem: -200 68<-43 180 -31 139> 370 68<89 263 78 275 354 528> 629 69<427 598 386 610>
VStem: -43 653
LayerCount: 2
Fore
SplineSet
-43 -200 m 1
 -31 -132 l 1
 180 -132 l 1
 263 370 l 1
 78 370 l 1
 89 438 l 1
 275 438 l 1
 299 585 l 2
 311 654 349 698 427 698 c 2
 610 698 l 1
 598 629 l 1
 386 629 l 1
 354 438 l 1
 539 438 l 1
 528 370 l 1
 343 370 l 1
 267 -87 l 2
 255 -156 217 -200 139 -200 c 2
 -43 -200 l 1
EndSplineSet
EndChar

StartChar: sterling
Encoding: 163 163 149
Width: 600
Flags: MW
HStem: 0 80<154 538 154 538 75 538> 286 69<52 130 52 149 52 130 233 233 233 415> 637 73<283.5 365>
VStem: 98 86<471.5 545 467 561> 154 82<206 245.5>
LayerCount: 2
Fore
SplineSet
538 0 m 1xe8
 75 0 l 1
 75 105 l 1
 131 128 154 175 154 237 c 0xe8
 154 254 152 270 149 286 c 1
 52 286 l 1
 52 355 l 1
 130 355 l 1
 115 400 98 444 98 499 c 0
 98 623 187 710 332 710 c 0
 438 710 506 664 550 596 c 1
 487 551 l 1
 450 605 403 637 327 637 c 0
 240 637 184 596 184 494 c 0xf0
 184 440 200 397 214 355 c 1
 415 355 l 1
 415 286 l 1
 233 286 l 1
 235 273 236 261 236 247 c 0
 236 165 192 110 154 85 c 1
 154 80 l 1
 538 80 l 1
 538 0 l 1xe8
EndSplineSet
EndChar

StartChar: dollar
Encoding: 36 36 150
Width: 600
Flags: MW
HStem: -11 73<279 340 340 341> 637 72<279 280>
VStem: 75 81<487.5 554.5 487.5 576> 279 62<-113 -11 -113 -11 709 811> 471 81<153.5 225.5>
LayerCount: 2
Fore
SplineSet
279 -113 m 1
 279 -11 l 1
 168 -4 98 44 50 111 c 1
 111 161 l 1
 159 101 210 68 280 61 c 1
 280 322 l 1
 257 326 l 2
 119 349 75 429 75 520 c 0
 75 632 153 700 279 709 c 1
 279 811 l 1
 341 811 l 1
 341 709 l 1
 433 702 499 664 549 596 c 1
 486 551 l 1
 450 599 406 629 340 636 c 1
 340 391 l 1
 370 386 l 2
 507 363 552 285 552 191 c 0
 552 75 476 0 341 -11 c 1
 341 -113 l 1
 279 -113 l 1
156 520 m 0
 156 455 191 419 280 401 c 1
 280 637 l 1
 201 629 156 589 156 520 c 0
471 190 m 0
 471 261 433 296 340 312 c 1
 340 62 l 1
 424 71 471 117 471 190 c 0
EndSplineSet
EndChar

StartChar: yen
Encoding: 165 165 151
Width: 600
Flags: MW
HStem: 0 69<75 260 75 260 340 525> 255 69<75 216 75 260 75 216 384 525> 678 20G<22 115 115 115 487 578 578 578>
VStem: 260 80<69 255 69 255>
LayerCount: 2
Fore
SplineSet
75 0 m 1
 75 69 l 1
 260 69 l 1
 260 255 l 1
 75 255 l 1
 75 324 l 1
 216 324 l 1
 22 698 l 1
 115 698 l 1
 299 324 l 1
 303 324 l 1
 487 698 l 1
 578 698 l 1
 384 324 l 1
 525 324 l 1
 525 255 l 1
 340 255 l 1
 340 69 l 1
 525 69 l 1
 525 0 l 1
 75 0 l 1
EndSplineSet
EndChar

StartChar: uni0E3F
Encoding: 3647 3647 152
Width: 600
Flags: MW
HStem: 0 71<170 264 326 350 326 326> 327 67<170 265 170 265 325 363> 627 71<170 264 88 265 170 170 326 334 334 363>
VStem: 88 82<71 71 71 327 394 627> 264 62<-113 0 -113 0 698 811> 442 84<489 530 530 562> 453 85<177 221 221 247.5 144.5 256>
LayerCount: 2
Fore
SplineSet
326 0 m 1xfa
 326 -113 l 1
 264 -113 l 1
 264 0 l 1
 88 0 l 1
 88 698 l 1
 264 698 l 1
 264 811 l 1
 326 811 l 1
 326 698 l 1
 334 698 l 2
 453 698 526 627 526 518 c 0xfc
 526 429 478 385 413 364 c 1
 413 361 l 1
 483 339 538 294 538 201 c 0
 538 88 458 0 350 0 c 2
 326 0 l 1xfa
170 394 m 1
 265 394 l 1
 265 627 l 1
 170 627 l 1
 170 394 l 1
325 627 m 1
 325 394 l 1
 401 394 442 425 442 489 c 2
 442 530 l 2
 442 594 401 627 325 627 c 1
170 71 m 1
 265 71 l 1
 265 327 l 1
 170 327 l 1
 170 71 l 1
325 327 m 1
 325 71 l 1
 408 71 453 106 453 177 c 2
 453 221 l 2xfa
 453 291 408 327 325 327 c 1
EndSplineSet
EndChar

StartChar: uni20A1
Encoding: 8353 8353 153
Width: 600
Flags: MW
HStem: -11 69<296 305> 641 69<319.5 323 323 331>
VStem: 70 83<272.5 292 292 406>
LayerCount: 2
Fore
SplineSet
285 -113 m 1
 296 -11 l 1
 275 -9 256 -5 239 1 c 1
 227 -113 l 1
 165 -113 l 1
 180 32 l 1
 106 88 70 196 70 349 c 0
 70 545 129 668 250 701 c 1
 262 811 l 1
 324 811 l 1
 313 710 l 1
 323 710 l 2
 340 710 357 709 371 706 c 1
 382 811 l 1
 444 811 l 1
 431 686 l 1
 485 657 516 607 538 557 c 1
 470 527 l 1
 458 558 443 586 421 606 c 1
 363 61 l 1
 422 75 449 120 470 172 c 1
 538 141 l 1
 507 72 461 3 358 -10 c 1
 347 -113 l 1
 285 -113 l 1
323 641 m 0
 316 641 310 641 304 640 c 1
 245 76 l 1
 262 66 282 60 305 58 c 1
 366 636 l 1
 353 639 339 641 323 641 c 0
153 292 m 2
 153 223 166 167 192 126 c 1
 244 622 l 1
 183 588 153 511 153 406 c 2
 153 292 l 2
EndSplineSet
EndChar

StartChar: uni20A4
Encoding: 8356 8356 154
Width: 600
Flags: MW
HStem: 0 80<154 538 154 538 75 538> 209 65<52 151 52 152 52 151 234 415> 356 65<52 109 52 130 52 109 213 213 213 415> 637 73<283.5 365>
VStem: 98 86<485 545 480.5 561> 151 83<274 274>
LayerCount: 2
Fore
SplineSet
538 80 m 1xf4
 538 0 l 1
 75 0 l 1
 75 105 l 1
 122 124 146 161 152 209 c 1
 52 209 l 1
 52 274 l 1
 151 274 l 1xf4
 147 303 139 330 130 356 c 1
 52 356 l 1
 52 421 l 1
 109 421 l 1
 103 445 98 471 98 499 c 0
 98 623 187 710 332 710 c 0
 438 710 506 664 550 596 c 1
 487 551 l 1
 450 605 403 637 327 637 c 0
 240 637 184 596 184 494 c 0xf8
 184 467 188 444 193 421 c 1
 415 421 l 1
 415 356 l 1
 213 356 l 1
 222 329 231 303 234 274 c 1
 415 274 l 1
 415 209 l 1
 233 209 l 1
 222 148 186 106 154 85 c 1
 154 80 l 1
 538 80 l 1xf4
EndSplineSet
EndChar

StartChar: uni20A6
Encoding: 8358 8358 155
Width: 600
Flags: MW
HStem: 0 76<431 438 431 508 383 438> 244 65<27 92 27 92 508 573> 389 65<27 92 27 92 508 573> 622 76<162 169 162 162>
VStem: 92 70<0 244 244 244 309 389 389 389 454 622> 438 70<76 244 309 389 454 698>
LayerCount: 2
Fore
SplineSet
508 389 m 1
 508 309 l 1
 573 309 l 1
 573 244 l 1
 508 244 l 1
 508 0 l 1
 383 0 l 1
 298 248 l 1
 162 248 l 1
 162 0 l 1
 92 0 l 1
 92 244 l 1
 27 244 l 1
 27 309 l 1
 92 309 l 1
 92 389 l 1
 27 389 l 1
 27 454 l 1
 92 454 l 1
 92 698 l 1
 217 698 l 1
 302 450 l 1
 438 450 l 1
 438 698 l 1
 508 698 l 1
 508 454 l 1
 573 454 l 1
 573 389 l 1
 508 389 l 1
162 304 m 1
 278 304 l 1
 169 622 l 1
 162 622 l 1
 162 304 l 1
322 394 m 1
 431 76 l 1
 438 76 l 1
 438 394 l 1
 322 394 l 1
EndSplineSet
EndChar

StartChar: uni20A8
Encoding: 8360 8360 156
Width: 600
Flags: MW
HStem: -12 67<413 462 413 485> 0 21G<49 129 49 49> 322 70<129 171 171 173 129 171> 412 64<476.5 504.5> 626 72<129 171 129 129>
VStem: 49 80<0 322 392 626> 268 82<486 532 532 562.5> 367 75<346 377 346 393.5> 514 75<99 140>
LayerCount: 2
Fore
SplineSet
129 0 m 1x7f80
 49 0 l 1x7f80
 49 698 l 1
 178 698 l 2
 300 698 350 630 350 511 c 0
 350 421 321 361 250 338 c 1
 338 130 l 2
 360 78 388 55 438 55 c 0
 486 55 514 77 514 121 c 0
 514 159 494 173 460 207 c 2
 441 226 l 2
 399 268 367 306 367 361 c 0
 367 426 411 476 489 476 c 0
 522 476 555 467 585 444 c 1
 553 390 l 1
 536 403 516 412 493 412 c 0
 460 412 442 393 442 361 c 0
 442 331 457 314 496 275 c 2
 511 260 l 2
 554 217 589 187 589 121 c 0
 589 42 539 -12 431 -12 c 0xbf80
 354 -12 298 15 266 93 c 2
 173 322 l 1
 129 322 l 1
 129 0 l 1x7f80
129 392 m 1
 171 392 l 2
 238 392 268 425 268 486 c 2
 268 532 l 2
 268 593 238 626 171 626 c 2
 129 626 l 1
 129 392 l 1
EndSplineSet
EndChar

StartChar: uni20A9
Encoding: 8361 8361 157
Width: 600
Flags: MW
HStem: 0 74<160 177 160 227 97 177 425 442> 248 65<26 87 26 89 26 87 513 574> 399 65<26 82 26 84 26 82 518 574> 678 20G<75 150 150 150 452 525 525 525>
VStem: 26 548<248 313 248 313 399 464 248 464>
LayerCount: 2
Fore
SplineSet
516 399 m 1
 513 313 l 1
 574 313 l 1
 574 248 l 1
 511 248 l 1
 503 0 l 1
 373 0 l 1
 308 404 l 1
 292 404 l 1
 227 0 l 1
 97 0 l 1
 89 248 l 1
 26 248 l 1
 26 313 l 1
 87 313 l 1
 84 399 l 1
 26 399 l 1
 26 464 l 1
 82 464 l 1
 75 698 l 1
 150 698 l 1
 153 459 l 1
 449 459 l 1
 452 698 l 1
 525 698 l 1
 518 464 l 1
 574 464 l 1
 574 399 l 1
 516 399 l 1
160 74 m 1
 177 74 l 1
 231 404 l 1
 154 404 l 1
 160 74 l 1
425 74 m 1
 442 74 l 1
 448 404 l 1
 371 404 l 1
 425 74 l 1
EndSplineSet
EndChar

StartChar: uni20AA
Encoding: 8362 8362 158
Width: 600
Flags: MW
HStem: 0 64<272 356 272 356> 634 64<136 221 136 136>
VStem: 59 77<0 634> 196 76<64 551 64 551 64 551> 332 76<147 500 147 516 147 560> 468 77<182 198 198 698>
LayerCount: 2
Fore
SplineSet
196 0 m 1
 196 551 l 1
 272 551 l 1
 272 64 l 1
 356 64 l 2
 412 64 468 94 468 182 c 2
 468 698 l 1
 545 698 l 1
 545 198 l 2
 545 65 466 0 356 0 c 2
 196 0 l 1
136 0 m 1
 59 0 l 1
 59 698 l 1
 221 698 l 2
 331 698 408 633 408 500 c 2
 408 147 l 1
 332 147 l 1
 332 516 l 2
 332 604 277 634 221 634 c 2
 136 634 l 1
 136 0 l 1
EndSplineSet
EndChar

StartChar: uni20AB
Encoding: 8363 8363 159
Width: 600
Flags: MW
HStem: 0 68<82 518 82 518> 130 64<253 297> 497 64<253 297 208 325.5> 619 61<258 411 258 411 487 556> 720 20G<411 487 487 487>
VStem: 83 81<276 311 311 380 275.5 414.5> 411 76<139 208 208 208 286 405 405 432.5 483 619 139 619 680 740>
LayerCount: 2
Fore
SplineSet
411 139 m 1
 411 208 l 1
 407 208 l 1
 378 158 330 130 264 130 c 0
 152 130 83 207 83 345 c 0
 83 484 152 561 264 561 c 0
 330 561 378 533 407 483 c 1
 411 483 l 1
 411 619 l 1
 258 619 l 1
 258 680 l 1
 411 680 l 1
 411 740 l 1
 487 740 l 1
 487 680 l 1
 556 680 l 1
 556 619 l 1
 487 619 l 1
 487 139 l 1
 411 139 l 1
294 194 m 0
 357 194 411 230 411 286 c 2
 411 405 l 2
 411 460 357 497 294 497 c 0
 212 497 164 451 164 380 c 2
 164 311 l 2
 164 240 212 194 294 194 c 0
518 0 m 1
 82 0 l 1
 82 68 l 1
 518 68 l 1
 518 0 l 1
EndSplineSet
EndChar

StartChar: uni20AD
Encoding: 8365 8365 160
Width: 600
Flags: MW
HStem: 0 21G<100 184 100 100 460 460 460 562> 327 69<28 100 28 100 184 238 337 337 337 546> 678 20G<100 184 184 184 451 546 546 546>
VStem: 100 84<0 327 0 327 396 698>
LayerCount: 2
Fore
SplineSet
184 327 m 1
 184 0 l 1
 100 0 l 1
 100 327 l 1
 28 327 l 1
 28 396 l 1
 100 396 l 1
 100 698 l 1
 184 698 l 1
 184 396 l 1
 238 396 l 1
 451 698 l 1
 546 698 l 1
 330 396 l 1
 546 396 l 1
 546 327 l 1
 337 327 l 1
 562 0 l 1
 460 0 l 1
 240 327 l 1
 184 327 l 1
EndSplineSet
EndChar

StartChar: uni20AE
Encoding: 8366 8366 161
Width: 600
Flags: MW
HStem: 0 21G<258 343 258 258> 625 73<26 258 26 575 343 343 343 575>
VStem: 258 85<0 177 177 177 0 286 286 337 337 337 446 625>
LayerCount: 2
Fore
SplineSet
483 282 m 1
 343 217 l 1
 343 0 l 1
 258 0 l 1
 258 177 l 1
 118 112 l 1
 118 181 l 1
 258 246 l 1
 258 337 l 1
 118 272 l 1
 118 341 l 1
 258 406 l 1
 258 625 l 1
 26 625 l 1
 26 698 l 1
 575 698 l 1
 575 625 l 1
 343 625 l 1
 343 446 l 1
 483 511 l 1
 483 442 l 1
 343 377 l 1
 343 286 l 1
 483 351 l 1
 483 282 l 1
EndSplineSet
EndChar

StartChar: uni20B1
Encoding: 8369 8369 162
Width: 600
Flags: MW
HStem: 0 21G<83 165 83 83> 194 69<165 322 165 322 322 324> 341 65<28 83 28 83 517 574> 486 65<28 83 28 83 517 517 517 574> 629 69<165 165 165 322>
VStem: 83 82<0 194 263 341 341 341 406 486 486 486 551 629> 436 81<406 406 406 486 406 488>
LayerCount: 2
Fore
SplineSet
165 194 m 1
 165 0 l 1
 83 0 l 1
 83 341 l 1
 28 341 l 1
 28 406 l 1
 83 406 l 1
 83 486 l 1
 28 486 l 1
 28 551 l 1
 83 551 l 1
 83 698 l 1
 324 698 l 2
 428 698 485 643 507 551 c 1
 574 551 l 1
 574 486 l 1
 517 486 l 1
 518 473 518 460 518 446 c 0
 518 432 518 419 517 406 c 1
 574 406 l 1
 574 341 l 1
 507 341 l 1
 485 249 428 194 324 194 c 2
 165 194 l 1
165 629 m 1
 165 549 l 1
 432 549 l 1
 420 600 384 629 322 629 c 2
 165 629 l 1
165 404 m 1
 436 404 l 1
 436 488 l 1
 165 488 l 1
 165 404 l 1
165 263 m 1
 322 263 l 2
 384 263 420 292 432 343 c 1
 165 343 l 1
 165 263 l 1
EndSplineSet
EndChar

StartChar: uni20B2
Encoding: 8370 8370 163
Width: 600
Flags: MW
HStem: -10 65<270 350> 280 65<332 446 320 522> 640 69<323 334>
VStem: 56 83<257.5 292 292 406> 446 76<228 244 244 280 280 280>
LayerCount: 2
Fore
SplineSet
189 -113 m 1
 210 5 l 1
 108 48 56 166 56 349 c 0
 56 582 140 710 308 710 c 0
 317 710 326 710 334 709 c 1
 352 811 l 1
 415 811 l 1
 395 696 l 1
 464 670 499 613 524 557 c 1
 456 527 l 1
 439 568 419 605 381 625 c 1
 332 345 l 1
 522 345 l 1
 522 244 l 2
 522 95 454 -12 304 -12 c 0
 292 -12 281 -11 270 -10 c 1
 252 -113 l 1
 189 -113 l 1
223 78 m 1
 323 640 l 1
 319 641 314 641 309 641 c 0
 195 641 139 549 139 406 c 2
 139 292 l 2
 139 190 168 114 223 78 c 1
305 55 m 0
 395 55 446 120 446 228 c 2
 446 280 l 1
 320 280 l 1
 281 57 l 1
 288 56 297 55 305 55 c 0
EndSplineSet
EndChar

StartChar: uni20B4
Encoding: 8372 8372 164
Width: 600
Flags: MW
HStem: -12 70<269.5 336 269.5 345.5> 254 65<27 121 27 172 27 206 281 573> 409 65<27 316 27 394 27 425 476 573> 640 70<266 328>
VStem: 102 81<141.5 190> 409 81<525.5 566.5>
LayerCount: 2
Fore
SplineSet
304 -12 m 0
 179 -12 102 66 102 172 c 0
 102 208 111 233 121 254 c 1
 27 254 l 1
 27 319 l 1
 172 319 l 1
 316 406 l 1
 316 409 l 1
 27 409 l 1
 27 474 l 1
 394 474 l 1
 404 490 409 507 409 531 c 0
 409 602 365 640 291 640 c 0
 241 640 192 622 151 575 c 1
 98 624 l 1
 155 685 227 710 298 710 c 0
 413 710 490 643 490 540 c 0
 490 511 484 491 476 474 c 1
 573 474 l 1
 573 409 l 1
 425 409 l 1
 281 322 l 1
 281 319 l 1
 573 319 l 1
 573 254 l 1
 206 254 l 1
 191 234 183 211 183 180 c 0
 183 103 230 58 309 58 c 0
 363 58 414 79 469 136 c 1
 520 85 l 1
 466 22 387 -12 304 -12 c 0
EndSplineSet
EndChar

StartChar: uni20B5
Encoding: 8373 8373 165
Width: 600
Flags: MW
HStem: -12 69<316.5 367 316.5 387> 641 69<323 328>
VStem: 70 83<260.5 292 292 406>
LayerCount: 2
Fore
SplineSet
194 -113 m 1
 216 10 l 1
 118 55 70 172 70 349 c 0
 70 581 153 710 323 710 c 2
 339 710 l 1
 357 811 l 1
 420 811 l 1
 400 699 l 1
 474 675 512 616 538 557 c 1
 470 527 l 1
 452 571 430 610 387 629 c 1
 286 61 l 1
 298 58 310 57 323 57 c 0
 411 57 445 110 470 172 c 1
 538 141 l 1
 504 65 451 -12 323 -12 c 0
 306 -12 291 -11 276 -8 c 1
 257 -113 l 1
 194 -113 l 1
230 85 m 1
 328 641 l 1
 207 641 153 549 153 406 c 2
 153 292 l 2
 153 196 178 123 230 85 c 1
EndSplineSet
EndChar

StartChar: uni20B8
Encoding: 8376 8376 166
Width: 600
Flags: MW
HStem: 0 21G<258 342 258 258> 470 69<45 258 45 555 342 555 342 342> 629 69<45 555 45 555>
VStem: 258 84<0 470 0 470>
LayerCount: 2
Fore
SplineSet
555 629 m 1
 45 629 l 1
 45 698 l 1
 555 698 l 1
 555 629 l 1
555 470 m 1
 342 470 l 1
 342 0 l 1
 258 0 l 1
 258 470 l 1
 45 470 l 1
 45 539 l 1
 555 539 l 1
 555 470 l 1
EndSplineSet
EndChar

StartChar: uni20B9
Encoding: 8377 8377 167
Width: 600
Flags: MW
HStem: 0 21G<403 506 403 403> 291 69<56 181 56 228> 470 69<56 349 56 352 56 349 434 434 434 554> 629 69<56 228 56 554 363 363 363 554>
VStem: 352 82<433 470>
LayerCount: 2
Fore
SplineSet
506 0 m 1
 403 0 l 1
 181 291 l 1
 56 291 l 1
 56 360 l 1
 228 360 l 2
 301 360 352 396 352 470 c 1
 56 470 l 1
 56 539 l 1
 349 539 l 1
 343 596 293 629 228 629 c 2
 56 629 l 1
 56 698 l 1
 554 698 l 1
 554 629 l 1
 363 629 l 1
 363 624 l 1
 389 612 416 587 428 539 c 1
 554 539 l 1
 554 470 l 1
 434 470 l 1
 428 382 372 314 279 296 c 1
 506 0 l 1
EndSplineSet
EndChar

StartChar: uni20BA
Encoding: 8378 8378 168
Width: 600
Flags: MW
HStem: 0 73<239 291 291 296> 678 20G<155 239 239 239>
VStem: 155 84<73 247 247 247 355 407 407 407 515 698> 472 82<234 305>
LayerCount: 2
Fore
SplineSet
155 0 m 1
 155 247 l 1
 56 201 l 1
 56 270 l 1
 155 316 l 1
 155 407 l 1
 56 361 l 1
 56 430 l 1
 155 476 l 1
 155 698 l 1
 239 698 l 1
 239 515 l 1
 421 600 l 1
 421 531 l 1
 239 446 l 1
 239 355 l 1
 421 440 l 1
 421 371 l 1
 239 286 l 1
 239 73 l 1
 291 73 l 2
 404 73 472 163 472 305 c 1
 554 305 l 1
 554 135 467 0 296 0 c 2
 155 0 l 1
EndSplineSet
EndChar

StartChar: uni20BD
Encoding: 8381 8381 169
Width: 600
Flags: MW
HStem: 0 21G<128 212 128 128> 134 69<45 128 45 128 212 439> 294 69<45 128 45 128 212 355> 625 73<212 212 212 356>
VStem: 128 84<0 134 0 134 203 294 363 625> 468 87<463 525 525 557>
LayerCount: 2
Fore
SplineSet
439 134 m 1
 212 134 l 1
 212 0 l 1
 128 0 l 1
 128 134 l 1
 45 134 l 1
 45 203 l 1
 128 203 l 1
 128 294 l 1
 45 294 l 1
 45 363 l 1
 128 363 l 1
 128 698 l 1
 356 698 l 2
 485 698 555 621 555 494 c 0
 555 367 484 294 355 294 c 2
 212 294 l 1
 212 203 l 1
 439 203 l 1
 439 134 l 1
212 625 m 1
 212 363 l 1
 356 363 l 2
 426 363 468 399 468 463 c 2
 468 525 l 2
 468 589 426 625 356 625 c 2
 212 625 l 1
EndSplineSet
EndChar

StartChar: uni20BF
Encoding: 8383 8383 170
Width: 600
Flags: MW
HStem: 0 72<172 188 250 319 250 250> 326 69<172 317 172 317 317 331> 626 72<172 172 172 188 250 317>
VStem: 88 84<72 326 395 626> 188 62<-113 0 -113 0 698 811> 319 62<-113 0 0 0 698 811> 429 88<490 529 529 561> 454 89<179 220 220 248.5 149 255>
LayerCount: 2
Fore
SplineSet
319 -113 m 1xfd
 319 0 l 1
 250 0 l 1
 250 -113 l 1
 188 -113 l 1
 188 0 l 1
 88 0 l 1
 88 698 l 1
 188 698 l 1
 188 811 l 1
 250 811 l 1
 250 698 l 1
 319 698 l 1
 319 811 l 1
 381 811 l 1
 381 692 l 1
 466 673 517 609 517 518 c 0xfe
 517 436 474 390 408 368 c 1
 408 365 l 1
 489 346 543 296 543 201 c 0
 543 97 476 15 381 2 c 1
 381 -113 l 1
 319 -113 l 1xfd
172 626 m 1
 172 395 l 1
 317 395 l 2
 387 395 429 426 429 490 c 2
 429 529 l 2
 429 593 387 626 317 626 c 2
 172 626 l 1
172 326 m 1
 172 72 l 1
 331 72 l 2
 408 72 454 108 454 179 c 2
 454 220 l 2xfd
 454 290 408 326 331 326 c 2
 172 326 l 1
EndSplineSet
EndChar

StartChar: fi
Encoding: 64257 64257 171
Width: 600
Flags: MW
HStem: 0 21G<108 108 108 188 422 422 422 502> 448 68<38 108 38 108 188 422> 630 118<439 485> 672 68<222 335 222 335 188 335>
VStem: 108 80<0 448 0 448 516 622 622 656.5> 399 126<681 697 666.5 711.5> 422 80<0 448 448 448>
LayerCount: 2
Fore
SplineSet
108 0 m 1xda
 108 448 l 1
 38 448 l 1
 38 516 l 1
 108 516 l 1
 108 622 l 2
 108 691 144 740 222 740 c 2
 335 740 l 1
 335 672 l 1
 188 672 l 1
 188 516 l 1
 502 516 l 1
 502 0 l 1
 422 0 l 1
 422 448 l 1
 188 448 l 1
 188 0 l 1
 108 0 l 1xda
462 630 m 0xec
 416 630 399 652 399 681 c 2
 399 697 l 2
 399 726 416 748 462 748 c 0
 508 748 525 726 525 697 c 2
 525 681 l 2
 525 652 508 630 462 630 c 0xec
EndSplineSet
EndChar

StartChar: fl
Encoding: 64258 64258 172
Width: 600
Flags: MW
HStem: 0 21G<108 108 108 188 422 502 422 422> 448 68<38 108 38 108 188 345> 672 68<222 345 222 345 188 345>
VStem: 108 80<0 448 0 448 516 622 622 656.5> 422 80<0 740 0 740>
LayerCount: 2
Fore
SplineSet
108 0 m 1
 108 448 l 1
 38 448 l 1
 38 516 l 1
 108 516 l 1
 108 622 l 2
 108 691 144 740 222 740 c 2
 345 740 l 1
 345 672 l 1
 188 672 l 1
 188 516 l 1
 345 516 l 1
 345 448 l 1
 188 448 l 1
 188 0 l 1
 108 0 l 1
422 0 m 1
 422 740 l 1
 502 740 l 1
 502 0 l 1
 422 0 l 1
EndSplineSet
EndChar

StartChar: aacute
Encoding: 225 225 173
Width: 600
Flags: MW
HStem: -12 67<224 285> 0 70<478 495 495 550> 235 60<240.5 398 288 398> 460 68<240.5 314> 585 194<290 323>
VStem: 66 84<109.5 136 136 157 109.5 192.5> 238 158<609 744> 398 80<84 84 150 235 235 235 295 346 346 354 70 383.5>
LayerCount: 2
Fore
SplineSet
396 744 m 1x0a
 290 585 l 1
 238 609 l 1
 323 779 l 1
 396 744 l 1x0a
550 0 m 1x75
 495 0 l 2x75
 433 0 409 36 403 84 c 1
 398 84 l 1
 376 25 327 -12 243 -12 c 0xb5
 135 -12 66 48 66 145 c 0
 66 240 133 295 288 295 c 2
 398 295 l 1
 398 346 l 2
 398 421 353 460 275 460 c 0
 206 460 164 431 137 384 c 1
 83 424 l 1
 109 478 175 528 280 528 c 0
 401 528 478 463 478 354 c 2
 478 70 l 1
 550 70 l 1
 550 0 l 1x75
257 55 m 0xb5
 339 55 398 97 398 150 c 2
 398 235 l 1
 288 235 l 2
 193 235 150 207 150 157 c 2
 150 136 l 2
 150 83 191 55 257 55 c 0xb5
EndSplineSet
Substitution2: "'salt' Stylistic Alternatives lookup 16 subtable" aacute.alt01
Substitution2: "'ss01' Style Set 1 lookup 11 subtable" aacute.alt01
Substitution2: "'aalt' Access All Alternates lookup 0 subtable" aacute.alt01
EndChar

StartChar: abreve
Encoding: 259 259 174
Width: 600
Flags: MW
HStem: -12 67<224 285> 0 70<478 495 495 550> 235 60<240.5 398 288 398> 460 68<240.5 314> 595 65<261 305 261 336.5>
VStem: 66 84<109.5 136 136 157 109.5 192.5> 122 322<746 746> 398 80<84 84 150 235 235 235 295 346 346 354 70 383.5>
LayerCount: 2
Fore
SplineSet
283 595 m 0x0a
 176 595 141 685 122 746 c 1
 173 768 l 1
 194 734 l 2
 225 684 239 660 283 660 c 0
 327 660 341 684 372 734 c 2
 393 768 l 1
 444 746 l 1
 425 685 390 595 283 595 c 0x0a
550 0 m 1x75
 495 0 l 2x75
 433 0 409 36 403 84 c 1
 398 84 l 1
 376 25 327 -12 243 -12 c 0xb5
 135 -12 66 48 66 145 c 0
 66 240 133 295 288 295 c 2
 398 295 l 1
 398 346 l 2
 398 421 353 460 275 460 c 0
 206 460 164 431 137 384 c 1
 83 424 l 1
 109 478 175 528 280 528 c 0
 401 528 478 463 478 354 c 2
 478 70 l 1
 550 70 l 1
 550 0 l 1x75
257 55 m 0xb5
 339 55 398 97 398 150 c 2
 398 235 l 1
 288 235 l 2
 193 235 150 207 150 157 c 2
 150 136 l 2
 150 83 191 55 257 55 c 0xb5
EndSplineSet
Substitution2: "'salt' Stylistic Alternatives lookup 16 subtable" abreve.alt01
Substitution2: "'ss01' Style Set 1 lookup 11 subtable" abreve.alt01
Substitution2: "'aalt' Access All Alternates lookup 0 subtable" abreve.alt01
EndChar

StartChar: acircumflex
Encoding: 226 226 175
Width: 600
Flags: MW
HStem: -12 67<224 285> 0 70<478 495 495 550> 235 60<240.5 398 288 398> 460 68<240.5 314> 591 174<165 333 233 399>
VStem: 66 84<109.5 136 136 157 109.5 192.5> 122 322<622 622> 398 80<84 84 150 235 235 235 295 346 346 354 70 383.5>
LayerCount: 2
Fore
SplineSet
233 765 m 1x0a
 333 765 l 1
 444 622 l 1
 399 591 l 1
 282 708 l 1
 165 591 l 1
 122 622 l 1
 233 765 l 1x0a
550 0 m 1x75
 495 0 l 2x75
 433 0 409 36 403 84 c 1
 398 84 l 1
 376 25 327 -12 243 -12 c 0xb5
 135 -12 66 48 66 145 c 0
 66 240 133 295 288 295 c 2
 398 295 l 1
 398 346 l 2
 398 421 353 460 275 460 c 0
 206 460 164 431 137 384 c 1
 83 424 l 1
 109 478 175 528 280 528 c 0
 401 528 478 463 478 354 c 2
 478 70 l 1
 550 70 l 1
 550 0 l 1x75
257 55 m 0xb5
 339 55 398 97 398 150 c 2
 398 235 l 1
 288 235 l 2
 193 235 150 207 150 157 c 2
 150 136 l 2
 150 83 191 55 257 55 c 0xb5
EndSplineSet
Substitution2: "'salt' Stylistic Alternatives lookup 16 subtable" acircumflex.alt01
Substitution2: "'ss01' Style Set 1 lookup 11 subtable" acircumflex.alt01
Substitution2: "'aalt' Access All Alternates lookup 0 subtable" acircumflex.alt01
EndChar

StartChar: adieresis
Encoding: 228 228 176
Width: 600
Flags: MW
HStem: -12 67<224 285> 0 70<478 495 495 550> 235 60<240.5 398 288 398> 460 68<240.5 314> 618 106<169.5 210.5 355.5 396.5>
VStem: 66 84<109.5 136 136 157 109.5 192.5> 133 114<664 678 651 691> 319 114<664 678 651 691> 398 80<84 84 150 235 235 235 295 346 346 354 70 383.5>
LayerCount: 2
Fore
SplineSet
190 618 m 0x0b
 149 618 133 638 133 664 c 2
 133 678 l 2
 133 704 149 724 190 724 c 0
 231 724 247 704 247 678 c 2
 247 664 l 2
 247 638 231 618 190 618 c 0x0b
376 618 m 0
 335 618 319 638 319 664 c 2
 319 678 l 2
 319 704 335 724 376 724 c 0
 417 724 433 704 433 678 c 2
 433 664 l 2
 433 638 417 618 376 618 c 0
550 0 m 1x7480
 495 0 l 2x7480
 433 0 409 36 403 84 c 1
 398 84 l 1
 376 25 327 -12 243 -12 c 0xb480
 135 -12 66 48 66 145 c 0
 66 240 133 295 288 295 c 2
 398 295 l 1
 398 346 l 2
 398 421 353 460 275 460 c 0
 206 460 164 431 137 384 c 1
 83 424 l 1
 109 478 175 528 280 528 c 0
 401 528 478 463 478 354 c 2
 478 70 l 1
 550 70 l 1
 550 0 l 1x7480
257 55 m 0xb480
 339 55 398 97 398 150 c 2
 398 235 l 1
 288 235 l 2
 193 235 150 207 150 157 c 2
 150 136 l 2
 150 83 191 55 257 55 c 0xb480
EndSplineSet
Substitution2: "'salt' Stylistic Alternatives lookup 16 subtable" adieresis.alt01
Substitution2: "'ss01' Style Set 1 lookup 11 subtable" adieresis.alt01
Substitution2: "'aalt' Access All Alternates lookup 0 subtable" adieresis.alt01
EndChar

StartChar: uni1EA1
Encoding: 7841 7841 177
Width: 600
Flags: MW
HStem: -172 106<262.5 303.5> -12 67<224 285> 0 70<478 495 495 550> 235 60<240.5 398 288 398> 460 68<240.5 314>
VStem: 66 84<109.5 136 136 157 109.5 192.5> 226 114<-126 -112 -139 -99> 398 80<84 84 150 235 235 235 295 346 346 354 70 383.5>
LayerCount: 2
Fore
SplineSet
283 -172 m 0x82
 242 -172 226 -152 226 -126 c 2
 226 -112 l 2
 226 -86 242 -66 283 -66 c 0
 324 -66 340 -86 340 -112 c 2
 340 -126 l 2
 340 -152 324 -172 283 -172 c 0x82
550 0 m 1x3d
 495 0 l 2x3d
 433 0 409 36 403 84 c 1
 398 84 l 1
 376 25 327 -12 243 -12 c 0x5d
 135 -12 66 48 66 145 c 0
 66 240 133 295 288 295 c 2
 398 295 l 1
 398 346 l 2
 398 421 353 460 275 460 c 0
 206 460 164 431 137 384 c 1
 83 424 l 1
 109 478 175 528 280 528 c 0
 401 528 478 463 478 354 c 2
 478 70 l 1
 550 70 l 1
 550 0 l 1x3d
257 55 m 0x5d
 339 55 398 97 398 150 c 2
 398 235 l 1
 288 235 l 2
 193 235 150 207 150 157 c 2
 150 136 l 2
 150 83 191 55 257 55 c 0x5d
EndSplineSet
Substitution2: "'salt' Stylistic Alternatives lookup 16 subtable" uni1EA1.alt01
Substitution2: "'ss01' Style Set 1 lookup 11 subtable" uni1EA1.alt01
Substitution2: "'aalt' Access All Alternates lookup 0 subtable" uni1EA1.alt01
EndChar

StartChar: agrave
Encoding: 224 224 178
Width: 600
Flags: MW
HStem: -12 67<224 285> 0 70<478 495 495 550> 235 60<240.5 398 288 398> 460 68<240.5 314> 585 194<243 276>
VStem: 66 84<109.5 136 136 157 109.5 192.5> 170 158<609 744> 398 80<84 84 150 235 235 235 295 346 346 354 70 383.5>
LayerCount: 2
Fore
SplineSet
276 585 m 1x0a
 170 744 l 1
 243 779 l 1
 328 609 l 1
 276 585 l 1x0a
550 0 m 1x75
 495 0 l 2x75
 433 0 409 36 403 84 c 1
 398 84 l 1
 376 25 327 -12 243 -12 c 0xb5
 135 -12 66 48 66 145 c 0
 66 240 133 295 288 295 c 2
 398 295 l 1
 398 346 l 2
 398 421 353 460 275 460 c 0
 206 460 164 431 137 384 c 1
 83 424 l 1
 109 478 175 528 280 528 c 0
 401 528 478 463 478 354 c 2
 478 70 l 1
 550 70 l 1
 550 0 l 1x75
257 55 m 0xb5
 339 55 398 97 398 150 c 2
 398 235 l 1
 288 235 l 2
 193 235 150 207 150 157 c 2
 150 136 l 2
 150 83 191 55 257 55 c 0xb5
EndSplineSet
Substitution2: "'salt' Stylistic Alternatives lookup 16 subtable" agrave.alt01
Substitution2: "'ss01' Style Set 1 lookup 11 subtable" agrave.alt01
Substitution2: "'aalt' Access All Alternates lookup 0 subtable" agrave.alt01
EndChar

StartChar: uni1EA3
Encoding: 7843 7843 179
Width: 600
Flags: MW
HStem: -12 67<224 285> 0 70<478 495 495 550> 235 60<240.5 398 288 398> 460 68<240.5 314> 704 61<199 308 199 308 308 317>
VStem: 66 84<109.5 136 136 157 109.5 192.5> 317 61<704 704> 398 80<84 84 150 235 235 235 295 346 346 354 70 383.5>
LayerCount: 2
Fore
SplineSet
199 704 m 1x0a
 199 765 l 1
 308 765 l 2
 359 765 378 740 378 710 c 0
 378 681 360 646 329 607 c 2
 305 577 l 1
 259 600 l 1
 317 704 l 1
 199 704 l 1x0a
550 0 m 1x75
 495 0 l 2x75
 433 0 409 36 403 84 c 1
 398 84 l 1
 376 25 327 -12 243 -12 c 0xb5
 135 -12 66 48 66 145 c 0
 66 240 133 295 288 295 c 2
 398 295 l 1
 398 346 l 2
 398 421 353 460 275 460 c 0
 206 460 164 431 137 384 c 1
 83 424 l 1
 109 478 175 528 280 528 c 0
 401 528 478 463 478 354 c 2
 478 70 l 1
 550 70 l 1
 550 0 l 1x75
257 55 m 0xb5
 339 55 398 97 398 150 c 2
 398 235 l 1
 288 235 l 2
 193 235 150 207 150 157 c 2
 150 136 l 2
 150 83 191 55 257 55 c 0xb5
EndSplineSet
Substitution2: "'salt' Stylistic Alternatives lookup 16 subtable" uni1EA3.alt01
Substitution2: "'ss01' Style Set 1 lookup 11 subtable" uni1EA3.alt01
Substitution2: "'aalt' Access All Alternates lookup 0 subtable" uni1EA3.alt01
EndChar

StartChar: amacron
Encoding: 257 257 180
Width: 600
Flags: MW
HStem: -12 67<224 285> 0 70<478 495 495 550> 235 60<240.5 398 288 398> 460 68<240.5 314> 637 68<143 423 143 423>
VStem: 66 84<109.5 136 136 157 109.5 192.5> 143 280<637 705 637 705> 398 80<84 84 150 235 235 235 295 346 346 354 70 383.5>
LayerCount: 2
Fore
SplineSet
143 637 m 1x0a
 143 705 l 1
 423 705 l 1
 423 637 l 1
 143 637 l 1x0a
550 0 m 1x75
 495 0 l 2x75
 433 0 409 36 403 84 c 1
 398 84 l 1
 376 25 327 -12 243 -12 c 0xb5
 135 -12 66 48 66 145 c 0
 66 240 133 295 288 295 c 2
 398 295 l 1
 398 346 l 2
 398 421 353 460 275 460 c 0
 206 460 164 431 137 384 c 1
 83 424 l 1
 109 478 175 528 280 528 c 0
 401 528 478 463 478 354 c 2
 478 70 l 1
 550 70 l 1
 550 0 l 1x75
257 55 m 0xb5
 339 55 398 97 398 150 c 2
 398 235 l 1
 288 235 l 2
 193 235 150 207 150 157 c 2
 150 136 l 2
 150 83 191 55 257 55 c 0xb5
EndSplineSet
Substitution2: "'salt' Stylistic Alternatives lookup 16 subtable" amacron.alt01
Substitution2: "'ss01' Style Set 1 lookup 11 subtable" amacron.alt01
Substitution2: "'aalt' Access All Alternates lookup 0 subtable" amacron.alt01
EndChar

StartChar: aogonek
Encoding: 261 261 181
Width: 600
Flags: MW
HStem: -207 56<468.5 490 468.5 503> -12 67<224 285> 0 70<483 483 478 550> 235 60<240.5 398 288 398> 460 68<240 313.5>
VStem: 66 84<109.5 136 136 157 109.5 192.5> 369 68<-128 -104 -128 -103> 398 80<84 84 150 235 235 235 295 346 346 354 70 383.5>
LayerCount: 2
Fore
SplineSet
550 70 m 1xbd
 550 0 l 1
 447 -65 437 -94 437 -114 c 0xbe
 437 -142 458 -151 479 -151 c 0
 501 -151 518 -141 531 -125 c 1
 571 -166 l 1
 558 -188 528 -207 478 -207 c 0xdd
 417 -207 369 -180 369 -127 c 0
 369 -79 409 -39 484 -3 c 1
 483 0 l 1xbe
 434 4 407 37 403 84 c 1
 398 84 l 1
 376 25 327 -12 243 -12 c 0xdd
 135 -12 66 48 66 145 c 0
 66 240 133 295 288 295 c 2
 398 295 l 1
 398 346 l 2
 398 421 353 460 274 460 c 0
 206 460 164 431 137 384 c 1
 83 424 l 1
 109 478 175 528 280 528 c 0
 401 528 478 463 478 354 c 2
 478 70 l 1
 550 70 l 1xbd
398 235 m 1xdd
 288 235 l 2
 193 235 150 207 150 157 c 2
 150 136 l 2
 150 83 191 55 257 55 c 0
 339 55 398 97 398 150 c 2
 398 235 l 1xdd
EndSplineSet
Substitution2: "'salt' Stylistic Alternatives lookup 16 subtable" aogonek.alt01
Substitution2: "'ss01' Style Set 1 lookup 11 subtable" aogonek.alt01
Substitution2: "'aalt' Access All Alternates lookup 0 subtable" aogonek.alt01
EndChar

StartChar: aring
Encoding: 229 229 182
Width: 600
Flags: MW
HStem: -12 67<224 285> 0 70<478 495 495 550> 235 60<240.5 398 288 398> 460 68<240.5 314> 576 49<265 301 265 315.5> 757 49<265 301>
VStem: 66 84<109.5 136 136 157 109.5 192.5> 167 58<662.5 680 680 702 662.5 724> 341 58<680 702 702 719.5> 398 80<84 84 150 235 235 235 295 346 346 354 70 383.5>
LayerCount: 2
Fore
SplineSet
283 576 m 0x0d80
 218 576 167 625 167 691 c 0
 167 757 218 806 283 806 c 0
 348 806 399 757 399 691 c 0
 399 625 348 576 283 576 c 0x0d80
283 625 m 0
 319 625 341 645 341 680 c 2
 341 702 l 2
 341 737 319 757 283 757 c 0
 247 757 225 737 225 702 c 2
 225 680 l 2
 225 645 247 625 283 625 c 0
550 0 m 1x7240
 495 0 l 2x7240
 433 0 409 36 403 84 c 1
 398 84 l 1
 376 25 327 -12 243 -12 c 0xb240
 135 -12 66 48 66 145 c 0
 66 240 133 295 288 295 c 2
 398 295 l 1
 398 346 l 2
 398 421 353 460 275 460 c 0
 206 460 164 431 137 384 c 1
 83 424 l 1
 109 478 175 528 280 528 c 0
 401 528 478 463 478 354 c 2
 478 70 l 1
 550 70 l 1
 550 0 l 1x7240
257 55 m 0xb240
 339 55 398 97 398 150 c 2
 398 235 l 1
 288 235 l 2
 193 235 150 207 150 157 c 2
 150 136 l 2
 150 83 191 55 257 55 c 0xb240
EndSplineSet
Substitution2: "'salt' Stylistic Alternatives lookup 16 subtable" aring.alt01
Substitution2: "'ss01' Style Set 1 lookup 11 subtable" aring.alt01
Substitution2: "'aalt' Access All Alternates lookup 0 subtable" aring.alt01
EndChar

StartChar: aringacute
Encoding: 507 507 183
Width: 600
Flags: MW
HStem: -12 67<224 285> 0 70<478 495 495 550> 235 60<240.5 398 288 398> 460 68<240.5 314> 566 49<265 301 265 315.5> 747 49<265 301>
VStem: 66 84<109.5 136 136 157 109.5 192.5> 167 58<652.5 670 670 692 652.5 714> 341 58<670 692 692 709.5> 398 80<84 84 150 235 235 235 295 346 346 354 70 383.5>
LayerCount: 2
Fore
SplineSet
388 919 m 1x0d80
 294 814 l 1
 253 840 l 1
 328 956 l 1
 388 919 l 1x0d80
283 566 m 0
 218 566 167 615 167 681 c 0
 167 747 218 796 283 796 c 0
 348 796 399 747 399 681 c 0
 399 615 348 566 283 566 c 0
283 615 m 0
 319 615 341 635 341 670 c 2
 341 692 l 2
 341 727 319 747 283 747 c 0
 247 747 225 727 225 692 c 2
 225 670 l 2
 225 635 247 615 283 615 c 0
550 0 m 1x7240
 495 0 l 2x7240
 433 0 409 36 403 84 c 1
 398 84 l 1
 376 25 327 -12 243 -12 c 0xb240
 135 -12 66 48 66 145 c 0
 66 240 133 295 288 295 c 2
 398 295 l 1
 398 346 l 2
 398 421 353 460 275 460 c 0
 206 460 164 431 137 384 c 1
 83 424 l 1
 109 478 175 528 280 528 c 0
 401 528 478 463 478 354 c 2
 478 70 l 1
 550 70 l 1
 550 0 l 1x7240
257 55 m 0xb240
 339 55 398 97 398 150 c 2
 398 235 l 1
 288 235 l 2
 193 235 150 207 150 157 c 2
 150 136 l 2
 150 83 191 55 257 55 c 0xb240
EndSplineSet
Substitution2: "'salt' Stylistic Alternatives lookup 16 subtable" aringacute.alt01
Substitution2: "'ss01' Style Set 1 lookup 11 subtable" aringacute.alt01
Substitution2: "'aalt' Access All Alternates lookup 0 subtable" aringacute.alt01
EndChar

StartChar: atilde
Encoding: 227 227 184
Width: 600
Flags: MW
HStem: -12 67<224 285> 0 70<478 495 495 550> 235 60<240.5 398 288 398> 460 68<240.5 314> 612 66<351.5 371 351.5 379> 662 66<195 214.5>
VStem: 66 84<109.5 136 136 157 109.5 192.5> 115 336<665 675> 398 80<84 84 150 235 235 235 295 346 346 354 70 383.5>
LayerCount: 2
Fore
SplineSet
356 612 m 0x09
 321 612 297 627 276 638 c 0
 244 655 223 662 206 662 c 0
 184 662 168 652 148 635 c 1
 115 675 l 1
 133 702 164 728 210 728 c 0x05
 245 728 269 713 290 702 c 0
 322 685 343 678 360 678 c 0
 382 678 398 688 418 705 c 1
 451 665 l 1
 433 638 402 612 356 612 c 0x09
550 0 m 1x7280
 495 0 l 2x7280
 433 0 409 36 403 84 c 1
 398 84 l 1
 376 25 327 -12 243 -12 c 0xb280
 135 -12 66 48 66 145 c 0
 66 240 133 295 288 295 c 2
 398 295 l 1
 398 346 l 2
 398 421 353 460 275 460 c 0
 206 460 164 431 137 384 c 1
 83 424 l 1
 109 478 175 528 280 528 c 0
 401 528 478 463 478 354 c 2
 478 70 l 1
 550 70 l 1
 550 0 l 1x7280
257 55 m 0xb280
 339 55 398 97 398 150 c 2
 398 235 l 1
 288 235 l 2
 193 235 150 207 150 157 c 2
 150 136 l 2
 150 83 191 55 257 55 c 0xb280
EndSplineSet
Substitution2: "'salt' Stylistic Alternatives lookup 16 subtable" atilde.alt01
Substitution2: "'ss01' Style Set 1 lookup 11 subtable" atilde.alt01
Substitution2: "'aalt' Access All Alternates lookup 0 subtable" atilde.alt01
EndChar

StartChar: uni1EAF
Encoding: 7855 7855 185
Width: 600
Flags: MW
HStem: -12 67<224 285> 0 70<478 495 495 550> 235 60<240.5 398 288 398> 460 68<240.5 314> 585 64<261 305 261 334>
VStem: 66 84<109.5 136 136 157 109.5 192.5> 117 332<724 724> 398 80<84 84 150 235 235 235 295 346 346 354 70 383.5>
LayerCount: 2
Fore
SplineSet
282 585 m 0x0a
 175 585 136 665 117 724 c 1
 164 747 l 1
 185 715 l 2
 217 667 239 649 283 649 c 0
 327 649 349 667 381 715 c 2
 402 747 l 1
 449 724 l 1
 428 659 386 585 282 585 c 0x0a
396 867 m 1
 290 708 l 1
 241 731 l 1
 326 901 l 1
 396 867 l 1
550 0 m 1x75
 495 0 l 2x75
 433 0 409 36 403 84 c 1
 398 84 l 1
 376 25 327 -12 243 -12 c 0xb5
 135 -12 66 48 66 145 c 0
 66 240 133 295 288 295 c 2
 398 295 l 1
 398 346 l 2
 398 421 353 460 275 460 c 0
 206 460 164 431 137 384 c 1
 83 424 l 1
 109 478 175 528 280 528 c 0
 401 528 478 463 478 354 c 2
 478 70 l 1
 550 70 l 1
 550 0 l 1x75
257 55 m 0xb5
 339 55 398 97 398 150 c 2
 398 235 l 1
 288 235 l 2
 193 235 150 207 150 157 c 2
 150 136 l 2
 150 83 191 55 257 55 c 0xb5
EndSplineSet
Substitution2: "'salt' Stylistic Alternatives lookup 16 subtable" uni1EAF.alt01
Substitution2: "'ss01' Style Set 1 lookup 11 subtable" uni1EAF.alt01
Substitution2: "'aalt' Access All Alternates lookup 0 subtable" uni1EAF.alt01
EndChar

StartChar: uni1EB7
Encoding: 7863 7863 186
Width: 600
Flags: MW
HStem: -172 106<262.5 303.5> -12 67<224 285> 0 70<478 495 495 550> 235 60<240.5 398 288 398> 460 68<240.5 314> 595 65<261 305 261 336.5>
VStem: 66 84<109.5 136 136 157 109.5 192.5> 122 322<746 746> 226 114<-126 -112 -139 -99> 398 80<84 84 150 235 235 235 295 346 346 354 70 383.5>
LayerCount: 2
Fore
SplineSet
283 -172 m 0x8080
 242 -172 226 -152 226 -126 c 2
 226 -112 l 2
 226 -86 242 -66 283 -66 c 0
 324 -66 340 -86 340 -112 c 2
 340 -126 l 2
 340 -152 324 -172 283 -172 c 0x8080
283 595 m 0x05
 176 595 141 685 122 746 c 1
 173 768 l 1
 194 734 l 2
 225 684 239 660 283 660 c 0
 327 660 341 684 372 734 c 2
 393 768 l 1
 444 746 l 1
 425 685 390 595 283 595 c 0x05
550 0 m 1x3a40
 495 0 l 2x3a40
 433 0 409 36 403 84 c 1
 398 84 l 1
 376 25 327 -12 243 -12 c 0x5a40
 135 -12 66 48 66 145 c 0
 66 240 133 295 288 295 c 2
 398 295 l 1
 398 346 l 2
 398 421 353 460 275 460 c 0
 206 460 164 431 137 384 c 1
 83 424 l 1
 109 478 175 528 280 528 c 0
 401 528 478 463 478 354 c 2
 478 70 l 1
 550 70 l 1
 550 0 l 1x3a40
257 55 m 0x5a40
 339 55 398 97 398 150 c 2
 398 235 l 1
 288 235 l 2
 193 235 150 207 150 157 c 2
 150 136 l 2
 150 83 191 55 257 55 c 0x5a40
EndSplineSet
Substitution2: "'salt' Stylistic Alternatives lookup 16 subtable" uni1EB7.alt01
Substitution2: "'ss01' Style Set 1 lookup 11 subtable" uni1EB7.alt01
Substitution2: "'aalt' Access All Alternates lookup 0 subtable" uni1EB7.alt01
EndChar

StartChar: uni1EB1
Encoding: 7857 7857 187
Width: 600
Flags: MW
HStem: -12 67<224 285> 0 70<478 495 495 550> 235 60<240.5 398 288 398> 460 68<240.5 314> 585 64<261 305 261 337.5>
VStem: 66 84<109.5 136 136 157 109.5 192.5> 117 332<724 724> 398 80<84 84 150 235 235 235 295 346 346 354 70 383.5>
LayerCount: 2
Fore
SplineSet
284 585 m 0x0a
 180 585 138 659 117 724 c 1
 164 747 l 1
 185 715 l 2
 217 667 239 649 283 649 c 0
 327 649 349 667 381 715 c 2
 402 747 l 1
 449 724 l 1
 430 665 391 585 284 585 c 0x0a
276 708 m 1
 170 867 l 1
 240 901 l 1
 325 731 l 1
 276 708 l 1
550 0 m 1x75
 495 0 l 2x75
 433 0 409 36 403 84 c 1
 398 84 l 1
 376 25 327 -12 243 -12 c 0xb5
 135 -12 66 48 66 145 c 0
 66 240 133 295 288 295 c 2
 398 295 l 1
 398 346 l 2
 398 421 353 460 275 460 c 0
 206 460 164 431 137 384 c 1
 83 424 l 1
 109 478 175 528 280 528 c 0
 401 528 478 463 478 354 c 2
 478 70 l 1
 550 70 l 1
 550 0 l 1x75
257 55 m 0xb5
 339 55 398 97 398 150 c 2
 398 235 l 1
 288 235 l 2
 193 235 150 207 150 157 c 2
 150 136 l 2
 150 83 191 55 257 55 c 0xb5
EndSplineSet
Substitution2: "'salt' Stylistic Alternatives lookup 16 subtable" uni1EB1.alt01
Substitution2: "'ss01' Style Set 1 lookup 11 subtable" uni1EB1.alt01
Substitution2: "'aalt' Access All Alternates lookup 0 subtable" uni1EB1.alt01
EndChar

StartChar: uni1EB3
Encoding: 7859 7859 188
Width: 600
Flags: MW
HStem: -12 67<224 285> 0 70<478 495 495 550> 235 60<240.5 398 288 398> 460 68<240.5 314> 585 64<261 305 261 337.5> 829 61<198 292 198 292 292 301>
VStem: 66 84<109.5 136 136 157 109.5 192.5> 301 61<829 829> 398 80<84 84 150 235 235 235 295 346 346 354 70 383.5>
LayerCount: 2
Fore
SplineSet
284 585 m 0x0d
 180 585 138 659 117 724 c 1
 164 747 l 1
 185 715 l 2
 217 667 239 649 283 649 c 0
 327 649 349 667 381 715 c 2
 402 747 l 1
 449 724 l 1
 430 665 391 585 284 585 c 0x0d
198 829 m 1
 198 890 l 1
 292 890 l 2
 343 890 362 865 362 835 c 0
 362 806 344 771 313 732 c 2
 289 702 l 1
 243 725 l 1
 301 829 l 1
 198 829 l 1
550 0 m 1x7280
 495 0 l 2x7280
 433 0 409 36 403 84 c 1
 398 84 l 1
 376 25 327 -12 243 -12 c 0xb280
 135 -12 66 48 66 145 c 0
 66 240 133 295 288 295 c 2
 398 295 l 1
 398 346 l 2
 398 421 353 460 275 460 c 0
 206 460 164 431 137 384 c 1
 83 424 l 1
 109 478 175 528 280 528 c 0
 401 528 478 463 478 354 c 2
 478 70 l 1
 550 70 l 1
 550 0 l 1x7280
257 55 m 0xb280
 339 55 398 97 398 150 c 2
 398 235 l 1
 288 235 l 2
 193 235 150 207 150 157 c 2
 150 136 l 2
 150 83 191 55 257 55 c 0xb280
EndSplineSet
Substitution2: "'salt' Stylistic Alternatives lookup 16 subtable" uni1EB3.alt01
Substitution2: "'ss01' Style Set 1 lookup 11 subtable" uni1EB3.alt01
Substitution2: "'aalt' Access All Alternates lookup 0 subtable" uni1EB3.alt01
EndChar

StartChar: uni1EB5
Encoding: 7861 7861 189
Width: 600
Flags: MW
HStem: -12 67<224 285> 0 70<478 495 495 550> 235 60<240.5 398 288 398> 460 68<240.5 314> 585 64<261 305 261 337.5> 769 62<352.5 372 352.5 378> 819 62<194 213.5>
VStem: 66 84<109.5 136 136 157 109.5 192.5> 117 332<724 724> 398 80<84 84 150 235 235 235 295 346 346 354 70 383.5>
LayerCount: 2
Fore
SplineSet
284 585 m 0x0c80
 180 585 138 659 117 724 c 1
 164 747 l 1
 185 715 l 2
 217 667 239 649 283 649 c 0
 327 649 349 667 381 715 c 2
 402 747 l 1
 449 724 l 1
 430 665 391 585 284 585 c 0x0c80
355 769 m 0
 320 769 296 784 275 795 c 0
 243 812 222 819 205 819 c 0
 183 819 167 809 147 792 c 1
 116 828 l 1
 134 855 165 881 211 881 c 0x0a80
 246 881 270 866 291 855 c 0
 323 838 344 831 361 831 c 0
 383 831 399 841 419 858 c 1
 450 822 l 1
 432 795 401 769 355 769 c 0
550 0 m 1x7140
 495 0 l 2x7140
 433 0 409 36 403 84 c 1
 398 84 l 1
 376 25 327 -12 243 -12 c 0xb140
 135 -12 66 48 66 145 c 0
 66 240 133 295 288 295 c 2
 398 295 l 1
 398 346 l 2
 398 421 353 460 275 460 c 0
 206 460 164 431 137 384 c 1
 83 424 l 1
 109 478 175 528 280 528 c 0
 401 528 478 463 478 354 c 2
 478 70 l 1
 550 70 l 1
 550 0 l 1x7140
257 55 m 0xb140
 339 55 398 97 398 150 c 2
 398 235 l 1
 288 235 l 2
 193 235 150 207 150 157 c 2
 150 136 l 2
 150 83 191 55 257 55 c 0xb140
EndSplineSet
Substitution2: "'salt' Stylistic Alternatives lookup 16 subtable" uni1EB5.alt01
Substitution2: "'ss01' Style Set 1 lookup 11 subtable" uni1EB5.alt01
Substitution2: "'aalt' Access All Alternates lookup 0 subtable" uni1EB5.alt01
EndChar

StartChar: uni1EA5
Encoding: 7845 7845 190
Width: 600
Flags: MW
HStem: -12 67<224 285> 0 70<478 495 495 550> 235 60<240.5 398 288 398> 460 68<240.5 314> 581 324<165 473 399 473>
VStem: 66 84<109.5 136 136 157 109.5 192.5> 123 420<611 871> 398 80<84 84 150 235 235 235 295 346 346 354 70 383.5>
LayerCount: 2
Fore
SplineSet
543 871 m 1x0a
 437 712 l 1
 388 735 l 1
 473 905 l 1
 543 871 l 1x0a
233 755 m 1
 333 755 l 1
 443 611 l 1
 399 581 l 1
 282 700 l 1
 165 581 l 1
 123 611 l 1
 233 755 l 1
550 0 m 1x75
 495 0 l 2x75
 433 0 409 36 403 84 c 1
 398 84 l 1
 376 25 327 -12 243 -12 c 0xb5
 135 -12 66 48 66 145 c 0
 66 240 133 295 288 295 c 2
 398 295 l 1
 398 346 l 2
 398 421 353 460 275 460 c 0
 206 460 164 431 137 384 c 1
 83 424 l 1
 109 478 175 528 280 528 c 0
 401 528 478 463 478 354 c 2
 478 70 l 1
 550 70 l 1
 550 0 l 1x75
257 55 m 0xb5
 339 55 398 97 398 150 c 2
 398 235 l 1
 288 235 l 2
 193 235 150 207 150 157 c 2
 150 136 l 2
 150 83 191 55 257 55 c 0xb5
EndSplineSet
Substitution2: "'salt' Stylistic Alternatives lookup 16 subtable" uni1EA5.alt01
Substitution2: "'ss01' Style Set 1 lookup 11 subtable" uni1EA5.alt01
Substitution2: "'aalt' Access All Alternates lookup 0 subtable" uni1EA5.alt01
EndChar

StartChar: uni1EAD
Encoding: 7853 7853 191
Width: 600
Flags: MW
HStem: -172 106<262.5 303.5> -12 67<224 285> 0 70<478 495 495 550> 235 60<240.5 398 288 398> 460 68<240.5 314> 591 174<165 333 233 399>
VStem: 66 84<109.5 136 136 157 109.5 192.5> 122 322<622 622> 226 114<-126 -112 -139 -99> 398 80<84 84 150 235 235 235 295 346 346 354 70 383.5>
LayerCount: 2
Fore
SplineSet
283 -172 m 0x8080
 242 -172 226 -152 226 -126 c 2
 226 -112 l 2
 226 -86 242 -66 283 -66 c 0
 324 -66 340 -86 340 -112 c 2
 340 -126 l 2
 340 -152 324 -172 283 -172 c 0x8080
233 765 m 1x05
 333 765 l 1
 444 622 l 1
 399 591 l 1
 282 708 l 1
 165 591 l 1
 122 622 l 1
 233 765 l 1x05
550 0 m 1x3a40
 495 0 l 2x3a40
 433 0 409 36 403 84 c 1
 398 84 l 1
 376 25 327 -12 243 -12 c 0x5a40
 135 -12 66 48 66 145 c 0
 66 240 133 295 288 295 c 2
 398 295 l 1
 398 346 l 2
 398 421 353 460 275 460 c 0
 206 460 164 431 137 384 c 1
 83 424 l 1
 109 478 175 528 280 528 c 0
 401 528 478 463 478 354 c 2
 478 70 l 1
 550 70 l 1
 550 0 l 1x3a40
257 55 m 0x5a40
 339 55 398 97 398 150 c 2
 398 235 l 1
 288 235 l 2
 193 235 150 207 150 157 c 2
 150 136 l 2
 150 83 191 55 257 55 c 0x5a40
EndSplineSet
Substitution2: "'salt' Stylistic Alternatives lookup 16 subtable" uni1EAD.alt01
Substitution2: "'ss01' Style Set 1 lookup 11 subtable" uni1EAD.alt01
Substitution2: "'aalt' Access All Alternates lookup 0 subtable" uni1EAD.alt01
EndChar

StartChar: uni1EA7
Encoding: 7847 7847 192
Width: 600
Flags: MW
HStem: -12 67<224 285> 0 70<478 495 495 550> 235 60<240.5 398 288 398> 460 68<240.5 314> 581 324<93 165 93 399>
VStem: 23 420<611 871> 66 84<109.5 136 136 157 109.5 192.5> 398 80<84 84 150 235 235 235 295 346 346 354 70 383.5>
LayerCount: 2
Fore
SplineSet
129 712 m 1x0c
 23 871 l 1
 93 905 l 1
 178 735 l 1
 129 712 l 1x0c
233 755 m 1
 333 755 l 1
 443 611 l 1
 399 581 l 1
 282 700 l 1
 165 581 l 1
 123 611 l 1
 233 755 l 1
550 0 m 1x73
 495 0 l 2x73
 433 0 409 36 403 84 c 1
 398 84 l 1
 376 25 327 -12 243 -12 c 0xb3
 135 -12 66 48 66 145 c 0
 66 240 133 295 288 295 c 2
 398 295 l 1
 398 346 l 2
 398 421 353 460 275 460 c 0
 206 460 164 431 137 384 c 1
 83 424 l 1
 109 478 175 528 280 528 c 0
 401 528 478 463 478 354 c 2
 478 70 l 1
 550 70 l 1
 550 0 l 1x73
257 55 m 0xb3
 339 55 398 97 398 150 c 2
 398 235 l 1
 288 235 l 2
 193 235 150 207 150 157 c 2
 150 136 l 2
 150 83 191 55 257 55 c 0xb3
EndSplineSet
Substitution2: "'salt' Stylistic Alternatives lookup 16 subtable" uni1EA7.alt01
Substitution2: "'ss01' Style Set 1 lookup 11 subtable" uni1EA7.alt01
Substitution2: "'aalt' Access All Alternates lookup 0 subtable" uni1EA7.alt01
EndChar

StartChar: uni1EA9
Encoding: 7849 7849 193
Width: 600
Flags: MW
HStem: -12 67<224 285> 0 70<478 495 495 550> 235 60<240.5 398 288 398> 460 68<240.5 314> 833 61<336 445 336 445 445 454>
VStem: 66 84<109.5 136 136 157 109.5 192.5> 398 80<84 84 150 235 235 235 295 346 346 354 70 383.5> 454 61<833 833>
LayerCount: 2
Fore
SplineSet
336 833 m 1x09
 336 894 l 1
 445 894 l 2
 496 894 515 869 515 839 c 0
 515 810 497 775 466 736 c 2
 442 706 l 1
 396 729 l 1
 454 833 l 1
 336 833 l 1x09
233 755 m 1
 333 755 l 1
 443 611 l 1
 399 581 l 1
 282 700 l 1
 165 581 l 1
 123 611 l 1
 233 755 l 1
550 0 m 1x76
 495 0 l 2x76
 433 0 409 36 403 84 c 1
 398 84 l 1
 376 25 327 -12 243 -12 c 0xb6
 135 -12 66 48 66 145 c 0
 66 240 133 295 288 295 c 2
 398 295 l 1
 398 346 l 2
 398 421 353 460 275 460 c 0
 206 460 164 431 137 384 c 1
 83 424 l 1
 109 478 175 528 280 528 c 0
 401 528 478 463 478 354 c 2
 478 70 l 1
 550 70 l 1
 550 0 l 1x76
257 55 m 0xb6
 339 55 398 97 398 150 c 2
 398 235 l 1
 288 235 l 2
 193 235 150 207 150 157 c 2
 150 136 l 2
 150 83 191 55 257 55 c 0xb6
EndSplineSet
Substitution2: "'salt' Stylistic Alternatives lookup 16 subtable" uni1EA9.alt01
Substitution2: "'ss01' Style Set 1 lookup 11 subtable" uni1EA9.alt01
Substitution2: "'aalt' Access All Alternates lookup 0 subtable" uni1EA9.alt01
EndChar

StartChar: uni1EAB
Encoding: 7851 7851 194
Width: 600
Flags: MW
HStem: -12 67<224 285> 0 70<478 495 495 550> 235 60<240.5 398 288 398> 460 68<240.5 314> 780 62<352.5 372 352.5 378> 830 62<194 213.5>
VStem: 66 84<109.5 136 136 157 109.5 192.5> 123 320<611 611> 398 80<84 84 150 235 235 235 295 346 346 354 70 383.5>
LayerCount: 2
Fore
SplineSet
211 892 m 0x05
 246 892 270 877 291 866 c 0
 323 849 344 842 361 842 c 0
 383 842 399 852 419 869 c 1
 450 833 l 1
 432 806 401 780 355 780 c 0x09
 320 780 296 795 275 806 c 0
 243 823 222 830 205 830 c 0
 183 830 167 820 147 803 c 1
 116 839 l 1
 134 866 165 892 211 892 c 0x05
233 745 m 1
 333 745 l 1
 443 611 l 1
 399 581 l 1
 282 692 l 1
 165 581 l 1
 123 611 l 1
 233 745 l 1
550 0 m 1x7280
 495 0 l 2x7280
 433 0 409 36 403 84 c 1
 398 84 l 1
 376 25 327 -12 243 -12 c 0xb280
 135 -12 66 48 66 145 c 0
 66 240 133 295 288 295 c 2
 398 295 l 1
 398 346 l 2
 398 421 353 460 275 460 c 0
 206 460 164 431 137 384 c 1
 83 424 l 1
 109 478 175 528 280 528 c 0
 401 528 478 463 478 354 c 2
 478 70 l 1
 550 70 l 1
 550 0 l 1x7280
257 55 m 0xb280
 339 55 398 97 398 150 c 2
 398 235 l 1
 288 235 l 2
 193 235 150 207 150 157 c 2
 150 136 l 2
 150 83 191 55 257 55 c 0xb280
EndSplineSet
Substitution2: "'salt' Stylistic Alternatives lookup 16 subtable" uni1EAB.alt01
Substitution2: "'ss01' Style Set 1 lookup 11 subtable" uni1EAB.alt01
Substitution2: "'aalt' Access All Alternates lookup 0 subtable" uni1EAB.alt01
EndChar

StartChar: aacute.alt01
Encoding: 65542 -1 195
Width: 600
Flags: MW
HStem: -12 71<246.5 298> 0 21G<425 425 425 505> 457 71<246.5 298 199 328.5> 496 20G<425 505 505 505> 585 194<294 327>
VStem: 60 86<173.5 214 214 302> 242 158<609 744> 425 80<0 84 84 84 165 351 351 385.5 432 516 0 516>
LayerCount: 2
Fore
SplineSet
400 744 m 1x0a
 294 585 l 1
 242 609 l 1
 327 779 l 1
 400 744 l 1x0a
425 0 m 1x55
 425 84 l 1
 421 84 l 1
 388 21 334 -12 262 -12 c 0
 136 -12 60 89 60 258 c 0
 60 427 136 528 262 528 c 0xa5
 334 528 388 495 421 432 c 1
 425 432 l 1
 425 516 l 1
 505 516 l 1
 505 0 l 1
 425 0 l 1x55
293 59 m 0xa5
 364 59 425 96 425 165 c 2
 425 351 l 2
 425 420 364 457 293 457 c 0
 200 457 146 395 146 302 c 2
 146 214 l 2
 146 121 200 59 293 59 c 0xa5
EndSplineSet
EndChar

StartChar: abreve.alt01
Encoding: 65543 -1 196
Width: 600
Flags: MW
HStem: -12 71<246.5 298> 0 21G<425 425 425 505> 457 71<246.5 298 199 328.5> 496 20G<425 505 505 505> 595 65<265 309 265 340.5>
VStem: 60 86<173.5 214 214 302> 126 322<746 746> 425 80<0 84 84 84 165 351 351 385.5 432 516 0 516>
LayerCount: 2
Fore
SplineSet
287 595 m 0x0a
 180 595 145 685 126 746 c 1
 177 768 l 1
 198 734 l 2
 229 684 243 660 287 660 c 0
 331 660 345 684 376 734 c 2
 397 768 l 1
 448 746 l 1
 429 685 394 595 287 595 c 0x0a
425 0 m 1x55
 425 84 l 1
 421 84 l 1
 388 21 334 -12 262 -12 c 0
 136 -12 60 89 60 258 c 0
 60 427 136 528 262 528 c 0xa5
 334 528 388 495 421 432 c 1
 425 432 l 1
 425 516 l 1
 505 516 l 1
 505 0 l 1
 425 0 l 1x55
293 59 m 0xa5
 364 59 425 96 425 165 c 2
 425 351 l 2
 425 420 364 457 293 457 c 0
 200 457 146 395 146 302 c 2
 146 214 l 2
 146 121 200 59 293 59 c 0xa5
EndSplineSet
EndChar

StartChar: acircumflex.alt01
Encoding: 65544 -1 197
Width: 600
Flags: MW
HStem: -12 71<246.5 298> 0 21G<425 425 425 505> 457 71<246.5 298 199 328.5> 496 20G<425 505 505 505> 591 174<169 337 237 403>
VStem: 60 86<173.5 214 214 302> 126 322<622 622> 425 80<0 84 84 84 165 351 351 385.5 432 516 0 516>
LayerCount: 2
Fore
SplineSet
237 765 m 1x0a
 337 765 l 1
 448 622 l 1
 403 591 l 1
 286 708 l 1
 169 591 l 1
 126 622 l 1
 237 765 l 1x0a
425 0 m 1x55
 425 84 l 1
 421 84 l 1
 388 21 334 -12 262 -12 c 0
 136 -12 60 89 60 258 c 0
 60 427 136 528 262 528 c 0xa5
 334 528 388 495 421 432 c 1
 425 432 l 1
 425 516 l 1
 505 516 l 1
 505 0 l 1
 425 0 l 1x55
293 59 m 0xa5
 364 59 425 96 425 165 c 2
 425 351 l 2
 425 420 364 457 293 457 c 0
 200 457 146 395 146 302 c 2
 146 214 l 2
 146 121 200 59 293 59 c 0xa5
EndSplineSet
EndChar

StartChar: adieresis.alt01
Encoding: 65545 -1 198
Width: 600
Flags: MW
HStem: -12 71<246.5 298> 0 21G<425 425 425 505> 457 71<246.5 298 199 328.5> 496 20G<425 505 505 505> 618 106<173.5 214.5 359.5 400.5>
VStem: 60 86<173.5 214 214 302> 137 114<664 678 651 691> 323 114<664 678 651 691> 425 80<0 84 84 84 165 351 351 385.5 432 516 0 516>
LayerCount: 2
Fore
SplineSet
194 618 m 0x0b
 153 618 137 638 137 664 c 2
 137 678 l 2
 137 704 153 724 194 724 c 0
 235 724 251 704 251 678 c 2
 251 664 l 2
 251 638 235 618 194 618 c 0x0b
380 618 m 0
 339 618 323 638 323 664 c 2
 323 678 l 2
 323 704 339 724 380 724 c 0
 421 724 437 704 437 678 c 2
 437 664 l 2
 437 638 421 618 380 618 c 0
425 0 m 1x5480
 425 84 l 1
 421 84 l 1
 388 21 334 -12 262 -12 c 0
 136 -12 60 89 60 258 c 0
 60 427 136 528 262 528 c 0xa480
 334 528 388 495 421 432 c 1
 425 432 l 1
 425 516 l 1
 505 516 l 1
 505 0 l 1
 425 0 l 1x5480
293 59 m 0xa480
 364 59 425 96 425 165 c 2
 425 351 l 2
 425 420 364 457 293 457 c 0
 200 457 146 395 146 302 c 2
 146 214 l 2
 146 121 200 59 293 59 c 0xa480
EndSplineSet
EndChar

StartChar: uni1EA1.alt01
Encoding: 65546 -1 199
Width: 600
Flags: MW
HStem: -172 106<266.5 307.5> -12 71<246.5 298> 0 21G<425 425 425 505> 457 71<246.5 298 199 328.5> 496 20G<425 505 505 505>
VStem: 60 86<173.5 214 214 302> 230 114<-126 -112 -139 -99> 425 80<0 84 84 84 165 351 351 385.5 432 516 0 516>
LayerCount: 2
Fore
SplineSet
287 -172 m 0x82
 246 -172 230 -152 230 -126 c 2
 230 -112 l 2
 230 -86 246 -66 287 -66 c 0
 328 -66 344 -86 344 -112 c 2
 344 -126 l 2
 344 -152 328 -172 287 -172 c 0x82
425 0 m 1x2d
 425 84 l 1
 421 84 l 1
 388 21 334 -12 262 -12 c 0
 136 -12 60 89 60 258 c 0
 60 427 136 528 262 528 c 0x55
 334 528 388 495 421 432 c 1
 425 432 l 1
 425 516 l 1
 505 516 l 1
 505 0 l 1
 425 0 l 1x2d
293 59 m 0x55
 364 59 425 96 425 165 c 2
 425 351 l 2
 425 420 364 457 293 457 c 0
 200 457 146 395 146 302 c 2
 146 214 l 2
 146 121 200 59 293 59 c 0x55
EndSplineSet
EndChar

StartChar: agrave.alt01
Encoding: 65547 -1 200
Width: 600
Flags: MW
HStem: -12 71<246.5 298> 0 21G<425 425 425 505> 457 71<246.5 298 199 328.5> 496 20G<425 505 505 505> 585 194<247 280>
VStem: 60 86<173.5 214 214 302> 174 158<609 744> 425 80<0 84 84 84 165 351 351 385.5 432 516 0 516>
LayerCount: 2
Fore
SplineSet
280 585 m 1x0a
 174 744 l 1
 247 779 l 1
 332 609 l 1
 280 585 l 1x0a
425 0 m 1x55
 425 84 l 1
 421 84 l 1
 388 21 334 -12 262 -12 c 0
 136 -12 60 89 60 258 c 0
 60 427 136 528 262 528 c 0xa5
 334 528 388 495 421 432 c 1
 425 432 l 1
 425 516 l 1
 505 516 l 1
 505 0 l 1
 425 0 l 1x55
293 59 m 0xa5
 364 59 425 96 425 165 c 2
 425 351 l 2
 425 420 364 457 293 457 c 0
 200 457 146 395 146 302 c 2
 146 214 l 2
 146 121 200 59 293 59 c 0xa5
EndSplineSet
EndChar

StartChar: uni1EA3.alt01
Encoding: 65548 -1 201
Width: 600
Flags: MW
HStem: -12 71<246.5 298> 0 21G<425 425 425 505> 457 71<246.5 298 199 328.5> 496 20G<425 505 505 505> 704 61<203 312 203 312 312 321>
VStem: 60 86<173.5 214 214 302> 321 61<704 704> 425 80<0 84 84 84 165 351 351 385.5 432 516 0 516>
LayerCount: 2
Fore
SplineSet
203 704 m 1x0a
 203 765 l 1
 312 765 l 2
 363 765 382 740 382 710 c 0
 382 681 364 646 333 607 c 2
 309 577 l 1
 263 600 l 1
 321 704 l 1
 203 704 l 1x0a
425 0 m 1x55
 425 84 l 1
 421 84 l 1
 388 21 334 -12 262 -12 c 0
 136 -12 60 89 60 258 c 0
 60 427 136 528 262 528 c 0xa5
 334 528 388 495 421 432 c 1
 425 432 l 1
 425 516 l 1
 505 516 l 1
 505 0 l 1
 425 0 l 1x55
293 59 m 0xa5
 364 59 425 96 425 165 c 2
 425 351 l 2
 425 420 364 457 293 457 c 0
 200 457 146 395 146 302 c 2
 146 214 l 2
 146 121 200 59 293 59 c 0xa5
EndSplineSet
EndChar

StartChar: amacron.alt01
Encoding: 65549 -1 202
Width: 600
Flags: MW
HStem: -12 71<246.5 298> 0 21G<425 425 425 505> 457 71<246.5 298 199 328.5> 496 20G<425 505 505 505> 637 68<147 427 147 427>
VStem: 60 86<173.5 214 214 302> 147 280<637 705 637 705> 425 80<0 84 84 84 165 351 351 385.5 432 516 0 516>
LayerCount: 2
Fore
SplineSet
147 637 m 1x0a
 147 705 l 1
 427 705 l 1
 427 637 l 1
 147 637 l 1x0a
425 0 m 1x55
 425 84 l 1
 421 84 l 1
 388 21 334 -12 262 -12 c 0
 136 -12 60 89 60 258 c 0
 60 427 136 528 262 528 c 0xa5
 334 528 388 495 421 432 c 1
 425 432 l 1
 425 516 l 1
 505 516 l 1
 505 0 l 1
 425 0 l 1x55
293 59 m 0xa5
 364 59 425 96 425 165 c 2
 425 351 l 2
 425 420 364 457 293 457 c 0
 200 457 146 395 146 302 c 2
 146 214 l 2
 146 121 200 59 293 59 c 0xa5
EndSplineSet
EndChar

StartChar: aogonek.alt01
Encoding: 65550 -1 203
Width: 600
Flags: MW
HStem: -207 56<423.5 445 423.5 458> -12 71<246.5 298> 0 21G<425 438 425 425 505 505> 457 71<246.5 298 199 328.5> 496 20G<425 505 505 505>
VStem: 60 86<173.5 214 214 302> 324 68<-128 -104 -128 -103> 425 80<0 84 84 84 165 351 351 385.5 432 516 0 516>
LayerCount: 2
Fore
SplineSet
433 -207 m 0xaf
 372 -207 324 -180 324 -127 c 0
 324 -79 364 -39 439 -3 c 1
 438 0 l 1
 425 0 l 1xb7
 425 84 l 1
 421 84 l 1
 388 21 334 -12 262 -12 c 0
 136 -12 60 89 60 258 c 0
 60 427 136 528 262 528 c 0xd7
 334 528 388 495 421 432 c 1
 425 432 l 1
 425 516 l 1
 505 516 l 1
 505 0 l 1
 402 -65 392 -94 392 -114 c 0
 392 -142 413 -151 434 -151 c 0
 456 -151 473 -141 486 -125 c 1
 526 -166 l 1
 513 -188 483 -207 433 -207 c 0xaf
293 59 m 0xd7
 364 59 425 96 425 165 c 2
 425 351 l 2
 425 420 364 457 293 457 c 0
 200 457 146 395 146 302 c 2
 146 214 l 2
 146 121 200 59 293 59 c 0xd7
EndSplineSet
EndChar

StartChar: aring.alt01
Encoding: 65551 -1 204
Width: 600
Flags: MW
HStem: -12 71<246.5 298> 0 21G<425 425 425 505> 457 71<246.5 298 199 328.5> 496 20G<425 505 505 505> 576 49<269 305 269 319.5> 757 49<269 305>
VStem: 60 86<173.5 214 214 302> 171 58<662.5 680 680 702 662.5 724> 345 58<680 702 702 719.5> 425 80<0 84 84 84 165 351 351 385.5 432 516 0 516>
LayerCount: 2
Fore
SplineSet
287 576 m 0x0d80
 222 576 171 625 171 691 c 0
 171 757 222 806 287 806 c 0
 352 806 403 757 403 691 c 0
 403 625 352 576 287 576 c 0x0d80
287 625 m 0
 323 625 345 645 345 680 c 2
 345 702 l 2
 345 737 323 757 287 757 c 0
 251 757 229 737 229 702 c 2
 229 680 l 2
 229 645 251 625 287 625 c 0
425 0 m 1x5240
 425 84 l 1
 421 84 l 1
 388 21 334 -12 262 -12 c 0
 136 -12 60 89 60 258 c 0
 60 427 136 528 262 528 c 0xa240
 334 528 388 495 421 432 c 1
 425 432 l 1
 425 516 l 1
 505 516 l 1
 505 0 l 1
 425 0 l 1x5240
293 59 m 0xa240
 364 59 425 96 425 165 c 2
 425 351 l 2
 425 420 364 457 293 457 c 0
 200 457 146 395 146 302 c 2
 146 214 l 2
 146 121 200 59 293 59 c 0xa240
EndSplineSet
EndChar

StartChar: aringacute.alt01
Encoding: 65552 -1 205
Width: 600
Flags: MW
HStem: -12 71<246.5 298> 0 21G<425 425 425 505> 457 71<246.5 298 199 328.5> 496 20G<425 505 505 505> 566 49<269 305 269 319.5> 747 49<269 305>
VStem: 60 86<173.5 214 214 302> 171 58<652.5 670 670 692 652.5 714> 345 58<670 692 692 709.5> 425 80<0 84 84 84 165 351 351 385.5 432 516 0 516>
LayerCount: 2
Fore
SplineSet
392 919 m 1x0d80
 298 814 l 1
 257 840 l 1
 332 956 l 1
 392 919 l 1x0d80
287 566 m 0
 222 566 171 615 171 681 c 0
 171 747 222 796 287 796 c 0
 352 796 403 747 403 681 c 0
 403 615 352 566 287 566 c 0
287 615 m 0
 323 615 345 635 345 670 c 2
 345 692 l 2
 345 727 323 747 287 747 c 0
 251 747 229 727 229 692 c 2
 229 670 l 2
 229 635 251 615 287 615 c 0
425 0 m 1x5240
 425 84 l 1
 421 84 l 1
 388 21 334 -12 262 -12 c 0
 136 -12 60 89 60 258 c 0
 60 427 136 528 262 528 c 0xa240
 334 528 388 495 421 432 c 1
 425 432 l 1
 425 516 l 1
 505 516 l 1
 505 0 l 1
 425 0 l 1x5240
293 59 m 0xa240
 364 59 425 96 425 165 c 2
 425 351 l 2
 425 420 364 457 293 457 c 0
 200 457 146 395 146 302 c 2
 146 214 l 2
 146 121 200 59 293 59 c 0xa240
EndSplineSet
EndChar

StartChar: atilde.alt01
Encoding: 65553 -1 206
Width: 600
Flags: MW
HStem: -12 71<246.5 298> 0 21G<425 425 425 505> 457 71<246.5 298 199 328.5> 496 20G<425 505 505 505> 612 66<355.5 375 355.5 383> 662 66<199 218.5>
VStem: 60 86<173.5 214 214 302> 119 336<665 675> 425 80<0 84 84 84 165 351 351 385.5 432 516 0 516>
LayerCount: 2
Fore
SplineSet
360 612 m 0x09
 325 612 301 627 280 638 c 0
 248 655 227 662 210 662 c 0
 188 662 172 652 152 635 c 1
 119 675 l 1
 137 702 168 728 214 728 c 0x05
 249 728 273 713 294 702 c 0
 326 685 347 678 364 678 c 0
 386 678 402 688 422 705 c 1
 455 665 l 1
 437 638 406 612 360 612 c 0x09
425 0 m 1x5280
 425 84 l 1
 421 84 l 1
 388 21 334 -12 262 -12 c 0
 136 -12 60 89 60 258 c 0
 60 427 136 528 262 528 c 0xa280
 334 528 388 495 421 432 c 1
 425 432 l 1
 425 516 l 1
 505 516 l 1
 505 0 l 1
 425 0 l 1x5280
293 59 m 0xa280
 364 59 425 96 425 165 c 2
 425 351 l 2
 425 420 364 457 293 457 c 0
 200 457 146 395 146 302 c 2
 146 214 l 2
 146 121 200 59 293 59 c 0xa280
EndSplineSet
EndChar

StartChar: uni1EAF.alt01
Encoding: 65554 -1 207
Width: 600
Flags: MW
HStem: -12 71<246.5 298> 0 21G<425 425 425 505> 457 71<246.5 298 199 328.5> 496 20G<425 505 505 505> 585 64<265 309 265 338>
VStem: 60 86<173.5 214 214 302> 121 332<724 724> 425 80<0 84 84 84 165 351 351 385.5 432 516 0 516>
LayerCount: 2
Fore
SplineSet
286 585 m 0x0a
 179 585 140 665 121 724 c 1
 168 747 l 1
 189 715 l 2
 221 667 243 649 287 649 c 0
 331 649 353 667 385 715 c 2
 406 747 l 1
 453 724 l 1
 432 659 390 585 286 585 c 0x0a
400 867 m 1
 294 708 l 1
 245 731 l 1
 330 901 l 1
 400 867 l 1
425 0 m 1x55
 425 84 l 1
 421 84 l 1
 388 21 334 -12 262 -12 c 0
 136 -12 60 89 60 258 c 0
 60 427 136 528 262 528 c 0xa5
 334 528 388 495 421 432 c 1
 425 432 l 1
 425 516 l 1
 505 516 l 1
 505 0 l 1
 425 0 l 1x55
293 59 m 0xa5
 364 59 425 96 425 165 c 2
 425 351 l 2
 425 420 364 457 293 457 c 0
 200 457 146 395 146 302 c 2
 146 214 l 2
 146 121 200 59 293 59 c 0xa5
EndSplineSet
EndChar

StartChar: uni1EB7.alt01
Encoding: 65555 -1 208
Width: 600
Flags: MW
HStem: -172 106<266.5 307.5> -12 71<246.5 298> 0 21G<425 425 425 505> 457 71<246.5 298 199 328.5> 496 20G<425 505 505 505> 595 65<265 309 265 340.5>
VStem: 60 86<173.5 214 214 302> 126 322<746 746> 230 114<-126 -112 -139 -99> 425 80<0 84 84 84 165 351 351 385.5 432 516 0 516>
LayerCount: 2
Fore
SplineSet
287 -172 m 0x8080
 246 -172 230 -152 230 -126 c 2
 230 -112 l 2
 230 -86 246 -66 287 -66 c 0
 328 -66 344 -86 344 -112 c 2
 344 -126 l 2
 344 -152 328 -172 287 -172 c 0x8080
287 595 m 0x05
 180 595 145 685 126 746 c 1
 177 768 l 1
 198 734 l 2
 229 684 243 660 287 660 c 0
 331 660 345 684 376 734 c 2
 397 768 l 1
 448 746 l 1
 429 685 394 595 287 595 c 0x05
425 0 m 1x2a40
 425 84 l 1
 421 84 l 1
 388 21 334 -12 262 -12 c 0
 136 -12 60 89 60 258 c 0
 60 427 136 528 262 528 c 0x5240
 334 528 388 495 421 432 c 1
 425 432 l 1
 425 516 l 1
 505 516 l 1
 505 0 l 1
 425 0 l 1x2a40
293 59 m 0x5240
 364 59 425 96 425 165 c 2
 425 351 l 2
 425 420 364 457 293 457 c 0
 200 457 146 395 146 302 c 2
 146 214 l 2
 146 121 200 59 293 59 c 0x5240
EndSplineSet
EndChar

StartChar: uni1EB1.alt01
Encoding: 65556 -1 209
Width: 600
Flags: MW
HStem: -12 71<246.5 298> 0 21G<425 425 425 505> 457 71<246.5 298 199 328.5> 496 20G<425 505 505 505> 585 64<265 309 265 341.5>
VStem: 60 86<173.5 214 214 302> 121 332<724 724> 425 80<0 84 84 84 165 351 351 385.5 432 516 0 516>
LayerCount: 2
Fore
SplineSet
288 585 m 0x0a
 184 585 142 659 121 724 c 1
 168 747 l 1
 189 715 l 2
 221 667 243 649 287 649 c 0
 331 649 353 667 385 715 c 2
 406 747 l 1
 453 724 l 1
 434 665 395 585 288 585 c 0x0a
280 708 m 1
 174 867 l 1
 244 901 l 1
 329 731 l 1
 280 708 l 1
425 0 m 1x55
 425 84 l 1
 421 84 l 1
 388 21 334 -12 262 -12 c 0
 136 -12 60 89 60 258 c 0
 60 427 136 528 262 528 c 0xa5
 334 528 388 495 421 432 c 1
 425 432 l 1
 425 516 l 1
 505 516 l 1
 505 0 l 1
 425 0 l 1x55
293 59 m 0xa5
 364 59 425 96 425 165 c 2
 425 351 l 2
 425 420 364 457 293 457 c 0
 200 457 146 395 146 302 c 2
 146 214 l 2
 146 121 200 59 293 59 c 0xa5
EndSplineSet
EndChar

StartChar: uni1EB3.alt01
Encoding: 65557 -1 210
Width: 600
Flags: MW
HStem: -12 71<246.5 298> 0 21G<425 425 425 505> 457 71<246.5 298 199 328.5> 496 20G<425 505 505 505> 585 64<265 309 265 341.5> 829 61<202 296 202 296 296 305>
VStem: 60 86<173.5 214 214 302> 305 61<829 829> 425 80<0 84 84 84 165 351 351 385.5 432 516 0 516>
LayerCount: 2
Fore
SplineSet
288 585 m 0x0d
 184 585 142 659 121 724 c 1
 168 747 l 1
 189 715 l 2
 221 667 243 649 287 649 c 0
 331 649 353 667 385 715 c 2
 406 747 l 1
 453 724 l 1
 434 665 395 585 288 585 c 0x0d
202 829 m 1
 202 890 l 1
 296 890 l 2
 347 890 366 865 366 835 c 0
 366 806 348 771 317 732 c 2
 293 702 l 1
 247 725 l 1
 305 829 l 1
 202 829 l 1
425 0 m 1x5280
 425 84 l 1
 421 84 l 1
 388 21 334 -12 262 -12 c 0
 136 -12 60 89 60 258 c 0
 60 427 136 528 262 528 c 0xa280
 334 528 388 495 421 432 c 1
 425 432 l 1
 425 516 l 1
 505 516 l 1
 505 0 l 1
 425 0 l 1x5280
293 59 m 0xa280
 364 59 425 96 425 165 c 2
 425 351 l 2
 425 420 364 457 293 457 c 0
 200 457 146 395 146 302 c 2
 146 214 l 2
 146 121 200 59 293 59 c 0xa280
EndSplineSet
EndChar

StartChar: uni1EB5.alt01
Encoding: 65558 -1 211
Width: 600
Flags: MW
HStem: -12 71<246.5 298> 0 21G<425 425 425 505> 457 71<246.5 298 199 328.5> 496 20G<425 505 505 505> 585 64<265 309 265 341.5> 769 62<356.5 376 356.5 382> 819 62<198 217.5>
VStem: 60 86<173.5 214 214 302> 121 332<724 724> 425 80<0 84 84 84 165 351 351 385.5 432 516 0 516>
LayerCount: 2
Fore
SplineSet
288 585 m 0x0c80
 184 585 142 659 121 724 c 1
 168 747 l 1
 189 715 l 2
 221 667 243 649 287 649 c 0
 331 649 353 667 385 715 c 2
 406 747 l 1
 453 724 l 1
 434 665 395 585 288 585 c 0x0c80
359 769 m 0
 324 769 300 784 279 795 c 0
 247 812 226 819 209 819 c 0
 187 819 171 809 151 792 c 1
 120 828 l 1
 138 855 169 881 215 881 c 0x0a80
 250 881 274 866 295 855 c 0
 327 838 348 831 365 831 c 0
 387 831 403 841 423 858 c 1
 454 822 l 1
 436 795 405 769 359 769 c 0
425 0 m 1x5140
 425 84 l 1
 421 84 l 1
 388 21 334 -12 262 -12 c 0
 136 -12 60 89 60 258 c 0
 60 427 136 528 262 528 c 0xa140
 334 528 388 495 421 432 c 1
 425 432 l 1
 425 516 l 1
 505 516 l 1
 505 0 l 1
 425 0 l 1x5140
293 59 m 0xa140
 364 59 425 96 425 165 c 2
 425 351 l 2
 425 420 364 457 293 457 c 0
 200 457 146 395 146 302 c 2
 146 214 l 2
 146 121 200 59 293 59 c 0xa140
EndSplineSet
EndChar

StartChar: uni1EA5.alt01
Encoding: 65559 -1 212
Width: 600
Flags: MW
HStem: -12 71<246.5 298> 0 21G<425 425 425 505> 457 71<246.5 298 199 328.5> 496 20G<425 505 505 505> 581 324<169 477 403 477>
VStem: 60 86<173.5 214 214 302> 127 420<611 871> 425 80<0 84 84 84 165 351 351 385.5 432 516 0 516>
LayerCount: 2
Fore
SplineSet
547 871 m 1x0a
 441 712 l 1
 392 735 l 1
 477 905 l 1
 547 871 l 1x0a
237 755 m 1
 337 755 l 1
 447 611 l 1
 403 581 l 1
 286 700 l 1
 169 581 l 1
 127 611 l 1
 237 755 l 1
425 0 m 1x55
 425 84 l 1
 421 84 l 1
 388 21 334 -12 262 -12 c 0
 136 -12 60 89 60 258 c 0
 60 427 136 528 262 528 c 0xa5
 334 528 388 495 421 432 c 1
 425 432 l 1
 425 516 l 1
 505 516 l 1
 505 0 l 1
 425 0 l 1x55
293 59 m 0xa5
 364 59 425 96 425 165 c 2
 425 351 l 2
 425 420 364 457 293 457 c 0
 200 457 146 395 146 302 c 2
 146 214 l 2
 146 121 200 59 293 59 c 0xa5
EndSplineSet
EndChar

StartChar: uni1EAD.alt01
Encoding: 65560 -1 213
Width: 600
Flags: MW
HStem: -172 106<266.5 307.5> -12 71<246.5 298> 0 21G<425 425 425 505> 457 71<246.5 298 199 328.5> 496 20G<425 505 505 505> 591 174<169 337 237 403>
VStem: 60 86<173.5 214 214 302> 126 322<622 622> 230 114<-126 -112 -139 -99> 425 80<0 84 84 84 165 351 351 385.5 432 516 0 516>
LayerCount: 2
Fore
SplineSet
287 -172 m 0x8080
 246 -172 230 -152 230 -126 c 2
 230 -112 l 2
 230 -86 246 -66 287 -66 c 0
 328 -66 344 -86 344 -112 c 2
 344 -126 l 2
 344 -152 328 -172 287 -172 c 0x8080
237 765 m 1x05
 337 765 l 1
 448 622 l 1
 403 591 l 1
 286 708 l 1
 169 591 l 1
 126 622 l 1
 237 765 l 1x05
425 0 m 1x2a40
 425 84 l 1
 421 84 l 1
 388 21 334 -12 262 -12 c 0
 136 -12 60 89 60 258 c 0
 60 427 136 528 262 528 c 0x5240
 334 528 388 495 421 432 c 1
 425 432 l 1
 425 516 l 1
 505 516 l 1
 505 0 l 1
 425 0 l 1x2a40
293 59 m 0x5240
 364 59 425 96 425 165 c 2
 425 351 l 2
 425 420 364 457 293 457 c 0
 200 457 146 395 146 302 c 2
 146 214 l 2
 146 121 200 59 293 59 c 0x5240
EndSplineSet
EndChar

StartChar: uni1EA7.alt01
Encoding: 65561 -1 214
Width: 600
Flags: MW
HStem: -12 71<246.5 298> 0 21G<425 425 425 505> 457 71<246.5 298 199 328.5> 496 20G<425 505 505 505> 581 324<97 169 97 403>
VStem: 27 420<611 871> 60 86<173.5 214 214 302> 425 80<0 84 84 84 165 351 351 385.5 432 516 0 516>
LayerCount: 2
Fore
SplineSet
133 712 m 1x0c
 27 871 l 1
 97 905 l 1
 182 735 l 1
 133 712 l 1x0c
237 755 m 1
 337 755 l 1
 447 611 l 1
 403 581 l 1
 286 700 l 1
 169 581 l 1
 127 611 l 1
 237 755 l 1
425 0 m 1x53
 425 84 l 1
 421 84 l 1
 388 21 334 -12 262 -12 c 0
 136 -12 60 89 60 258 c 0
 60 427 136 528 262 528 c 0xa3
 334 528 388 495 421 432 c 1
 425 432 l 1
 425 516 l 1
 505 516 l 1
 505 0 l 1
 425 0 l 1x53
293 59 m 0xa3
 364 59 425 96 425 165 c 2
 425 351 l 2
 425 420 364 457 293 457 c 0
 200 457 146 395 146 302 c 2
 146 214 l 2
 146 121 200 59 293 59 c 0xa3
EndSplineSet
EndChar

StartChar: uni1EA9.alt01
Encoding: 65562 -1 215
Width: 600
Flags: MW
HStem: -12 71<246.5 298> 0 21G<425 425 425 505> 457 71<246.5 298 199 328.5> 496 20G<425 505 505 505> 833 61<340 449 340 449 449 458>
VStem: 60 86<173.5 214 214 302> 425 80<0 84 84 84 165 351 351 385.5 432 516 0 516> 458 61<833 833>
LayerCount: 2
Fore
SplineSet
340 833 m 1x09
 340 894 l 1
 449 894 l 2
 500 894 519 869 519 839 c 0
 519 810 501 775 470 736 c 2
 446 706 l 1
 400 729 l 1
 458 833 l 1
 340 833 l 1x09
237 755 m 1
 337 755 l 1
 447 611 l 1
 403 581 l 1
 286 700 l 1
 169 581 l 1
 127 611 l 1
 237 755 l 1
425 0 m 1x56
 425 84 l 1
 421 84 l 1
 388 21 334 -12 262 -12 c 0
 136 -12 60 89 60 258 c 0
 60 427 136 528 262 528 c 0xa6
 334 528 388 495 421 432 c 1
 425 432 l 1
 425 516 l 1
 505 516 l 1
 505 0 l 1
 425 0 l 1x56
293 59 m 0xa6
 364 59 425 96 425 165 c 2
 425 351 l 2
 425 420 364 457 293 457 c 0
 200 457 146 395 146 302 c 2
 146 214 l 2
 146 121 200 59 293 59 c 0xa6
EndSplineSet
EndChar

StartChar: uni1EAB.alt01
Encoding: 65563 -1 216
Width: 600
Flags: MW
HStem: -12 71<246.5 298> 0 21G<425 425 425 505> 457 71<246.5 298 199 328.5> 496 20G<425 505 505 505> 780 62<356.5 376 356.5 382> 830 62<198 217.5>
VStem: 60 86<173.5 214 214 302> 127 320<611 611> 425 80<0 84 84 84 165 351 351 385.5 432 516 0 516>
LayerCount: 2
Fore
SplineSet
215 892 m 0x05
 250 892 274 877 295 866 c 0
 327 849 348 842 365 842 c 0
 387 842 403 852 423 869 c 1
 454 833 l 1
 436 806 405 780 359 780 c 0x09
 324 780 300 795 279 806 c 0
 247 823 226 830 209 830 c 0
 187 830 171 820 151 803 c 1
 120 839 l 1
 138 866 169 892 215 892 c 0x05
237 745 m 1
 337 745 l 1
 447 611 l 1
 403 581 l 1
 286 692 l 1
 169 581 l 1
 127 611 l 1
 237 745 l 1
425 0 m 1x5280
 425 84 l 1
 421 84 l 1
 388 21 334 -12 262 -12 c 0
 136 -12 60 89 60 258 c 0
 60 427 136 528 262 528 c 0xa280
 334 528 388 495 421 432 c 1
 425 432 l 1
 425 516 l 1
 505 516 l 1
 505 0 l 1
 425 0 l 1x5280
293 59 m 0xa280
 364 59 425 96 425 165 c 2
 425 351 l 2
 425 420 364 457 293 457 c 0
 200 457 146 395 146 302 c 2
 146 214 l 2
 146 121 200 59 293 59 c 0xa280
EndSplineSet
EndChar

StartChar: ae
Encoding: 230 230 217
Width: 600
GlyphClass: 2
Flags: MW
HStem: -12 62<128.5 172> 238 57<188 199 199 251 324 516> 468 60<144.5 195.5>
VStem: 10 73<110 137 137 152 110 190> 251 73<166 213 213 238 166 238 295 329> 516 66<238 329 238 376.5>
AnchorPoint: "Anchor-2" 300 516 basechar 0
LayerCount: 2
Fore
SplineSet
141 -12 m 0
 66 -12 10 40 10 138 c 0
 10 242 73 295 188 295 c 2
 251 295 l 1
 251 348 l 2
 251 437 221 468 170 468 c 0
 119 468 94 436 75 389 c 1
 22 422 l 1
 43 476 93 528 173 528 c 0
 233 528 274 500 297 450 c 1
 300 450 l 1
 327 507 372 528 424 528 c 0
 528 528 582 447 582 292 c 2
 582 238 l 1
 324 238 l 1
 324 213 l 2
 324 119 357 52 420 52 c 0
 472 52 499 96 516 141 c 1
 574 114 l 1
 554 53 502 -12 418 -12 c 0
 350 -12 300 30 272 102 c 1
 269 102 l 1
 251 24 203 -12 141 -12 c 0
155 50 m 0
 220 50 251 99 251 154 c 2
 251 238 l 1
 199 238 l 2
 126 238 83 213 83 152 c 2
 83 137 l 2
 83 83 102 50 155 50 c 0
420 470 m 0
 359 470 324 424 324 329 c 2
 324 295 l 1
 516 295 l 1
 516 329 l 2
 516 424 481 470 420 470 c 0
EndSplineSet
EndChar

StartChar: aeacute
Encoding: 509 509 218
Width: 600
Flags: MW
HStem: -12 62<128.5 172> 238 57<188 199 199 251 324 516> 468 60<144.5 195.5> 585 194<307 340>
VStem: 10 73<110 137 137 152 110 190> 251 73<166 213 213 238 166 238 295 329> 255 158<609 744> 516 66<238 329 238 376.5>
LayerCount: 2
Fore
SplineSet
413 744 m 1x12
 307 585 l 1
 255 609 l 1
 340 779 l 1
 413 744 l 1x12
141 -12 m 0xed
 66 -12 10 40 10 138 c 0
 10 242 73 295 188 295 c 2
 251 295 l 1
 251 348 l 2
 251 437 221 468 170 468 c 0
 119 468 94 436 75 389 c 1
 22 422 l 1
 43 476 93 528 173 528 c 0
 233 528 274 500 297 450 c 1
 300 450 l 1
 327 507 372 528 424 528 c 0
 528 528 582 447 582 292 c 2
 582 238 l 1
 324 238 l 1
 324 213 l 2
 324 119 357 52 420 52 c 0
 472 52 499 96 516 141 c 1
 574 114 l 1
 554 53 502 -12 418 -12 c 0
 350 -12 300 30 272 102 c 1
 269 102 l 1
 251 24 203 -12 141 -12 c 0xed
155 50 m 0
 220 50 251 99 251 154 c 2
 251 238 l 1
 199 238 l 2
 126 238 83 213 83 152 c 2
 83 137 l 2
 83 83 102 50 155 50 c 0
420 470 m 0
 359 470 324 424 324 329 c 2
 324 295 l 1
 516 295 l 1
 516 329 l 2
 516 424 481 470 420 470 c 0
EndSplineSet
EndChar

StartChar: cacute
Encoding: 263 263 219
Width: 600
Flags: MW
HStem: -12 69<270.5 353.5 270.5 369.5> 459 69<270 349> 585 194<320 353>
VStem: 84 86<176.5 214 214 302> 268 158<609 744>
LayerCount: 2
Fore
SplineSet
426 744 m 1
 320 585 l 1
 268 609 l 1
 353 779 l 1
 426 744 l 1
318 -12 m 0xd0
 170 -12 84 95 84 258 c 0
 84 422 171 528 317 528 c 0
 417 528 479 479 508 409 c 1
 444 375 l 1
 425 428 381 459 317 459 c 0
 223 459 170 393 170 302 c 2
 170 214 l 2
 170 123 222 57 319 57 c 0
 388 57 433 91 459 147 c 1
 516 108 l 1
 486 39 421 -12 318 -12 c 0xd0
EndSplineSet
EndChar

StartChar: ccaron
Encoding: 269 269 220
Width: 600
Flags: MW
HStem: -12 69<270.5 353.5 270.5 369.5> 459 69<270 349> 599 174<198 363 198 263>
VStem: 84 86<176.5 214 214 302> 152 322<742 742>
LayerCount: 2
Fore
SplineSet
363 599 m 1x28
 263 599 l 1
 152 742 l 1
 198 773 l 1
 315 656 l 1
 432 773 l 1
 474 742 l 1
 363 599 l 1x28
318 -12 m 0xd0
 170 -12 84 95 84 258 c 0
 84 422 171 528 317 528 c 0
 417 528 479 479 508 409 c 1
 444 375 l 1
 425 428 381 459 317 459 c 0
 223 459 170 393 170 302 c 2
 170 214 l 2
 170 123 222 57 319 57 c 0
 388 57 433 91 459 147 c 1
 516 108 l 1
 486 39 421 -12 318 -12 c 0xd0
EndSplineSet
EndChar

StartChar: ccedilla
Encoding: 231 231 221
Width: 600
Flags: MW
HStem: -207 54<300.5 327.5 300.5 344.5> -12 69<326 326> 459 69<270 349>
VStem: 84 86<184.5 214 214 302> 359 67<-132.5 -113>
LayerCount: 2
Fore
SplineSet
317 528 m 0
 417 528 479 479 508 409 c 1
 444 375 l 1
 425 428 381 459 317 459 c 0
 223 459 170 393 170 302 c 2
 170 214 l 2
 170 123 222 57 319 57 c 0
 388 57 433 91 459 147 c 1
 516 108 l 1
 486 40 425 -9 326 -12 c 1
 316 -61 l 1
 319 -64 l 1
 332 -60 346 -58 358 -58 c 0
 397 -58 426 -81 426 -124 c 0
 426 -181 374 -207 315 -207 c 0
 261 -207 230 -185 216 -166 c 1
 254 -125 l 1
 266 -140 286 -153 315 -153 c 0
 340 -153 359 -143 359 -122 c 0
 359 -104 347 -89 291 -81 c 2
 263 -77 l 1
 277 -9 l 1
 155 9 84 111 84 258 c 0
 84 422 171 528 317 528 c 0
EndSplineSet
EndChar

StartChar: ccircumflex
Encoding: 265 265 222
Width: 600
Flags: MW
HStem: -12 69<270.5 353.5 270.5 369.5> 459 69<270 349> 591 174<195 363 263 429>
VStem: 84 86<176.5 214 214 302> 152 322<622 622>
LayerCount: 2
Fore
SplineSet
263 765 m 1x28
 363 765 l 1
 474 622 l 1
 429 591 l 1
 312 708 l 1
 195 591 l 1
 152 622 l 1
 263 765 l 1x28
318 -12 m 0xd0
 170 -12 84 95 84 258 c 0
 84 422 171 528 317 528 c 0
 417 528 479 479 508 409 c 1
 444 375 l 1
 425 428 381 459 317 459 c 0
 223 459 170 393 170 302 c 2
 170 214 l 2
 170 123 222 57 319 57 c 0
 388 57 433 91 459 147 c 1
 516 108 l 1
 486 39 421 -12 318 -12 c 0xd0
EndSplineSet
EndChar

StartChar: cdotaccent
Encoding: 267 267 223
Width: 600
Flags: MW
HStem: -12 69<270.5 353.5 270.5 369.5> 459 69<270 349> 612 118<290 336>
VStem: 84 86<176.5 214 214 302> 250 126<663 679 648.5 693.5>
LayerCount: 2
Fore
SplineSet
313 612 m 0
 267 612 250 634 250 663 c 2
 250 679 l 2
 250 708 267 730 313 730 c 0
 359 730 376 708 376 679 c 2
 376 663 l 2
 376 634 359 612 313 612 c 0
318 -12 m 0xd0
 170 -12 84 95 84 258 c 0
 84 422 171 528 317 528 c 0
 417 528 479 479 508 409 c 1
 444 375 l 1
 425 428 381 459 317 459 c 0
 223 459 170 393 170 302 c 2
 170 214 l 2
 170 123 222 57 319 57 c 0
 388 57 433 91 459 147 c 1
 516 108 l 1
 486 39 421 -12 318 -12 c 0xd0
EndSplineSet
EndChar

StartChar: dcaron
Encoding: 271 271 224
Width: 600
Flags: MW
HStem: -12 71<219.5 270.5> 0 21G<390 470 390 390> 457 71<219.5 270.5 177 296> 720 20G<390 470 470 470 545 648 648 648>
VStem: 45 86<173.5 214 214 302> 390 80<0 84 84 84 165 351 351 385.5 432 740 0 740> 538 110
LayerCount: 2
Fore
SplineSet
237 -12 m 0xbe
 117 -12 45 89 45 258 c 0
 45 427 117 528 237 528 c 0
 304 528 355 495 386 432 c 1
 390 432 l 1
 390 740 l 1
 470 740 l 1
 470 0 l 1
 390 0 l 1x7e
 390 84 l 1
 386 84 l 1
 355 21 304 -12 237 -12 c 0xbe
263 59 m 0
 329 59 390 96 390 165 c 2
 390 351 l 2
 390 420 329 457 263 457 c 0
 176 457 131 398 131 302 c 2
 131 214 l 2
 131 118 176 59 263 59 c 0
538 551 m 1
 545 740 l 1
 648 740 l 1
 599 551 l 1
 538 551 l 1
EndSplineSet
EndChar

StartChar: dcroat
Encoding: 273 273 225
Width: 600
Flags: MW
HStem: -12 71<246.5 298> 0 21G<425 425 425 505> 457 71<246.5 298 199 328.5> 608 62<272 425 272 425 505 570> 720 20G<425 505 505 505>
VStem: 60 86<173.5 214 214 302> 425 80<0 84 84 84 165 351 351 385.5 432 608 0 608 670 740>
LayerCount: 2
Fore
SplineSet
425 0 m 1x7e
 425 84 l 1
 421 84 l 1
 388 21 334 -12 262 -12 c 0xbe
 136 -12 60 89 60 258 c 0
 60 427 136 528 262 528 c 0
 334 528 388 495 421 432 c 1
 425 432 l 1
 425 608 l 1
 272 608 l 1
 272 670 l 1
 425 670 l 1
 425 740 l 1
 505 740 l 1
 505 670 l 1
 570 670 l 1
 570 608 l 1
 505 608 l 1
 505 0 l 1
 425 0 l 1x7e
293 59 m 0xbe
 364 59 425 96 425 165 c 2
 425 351 l 2
 425 420 364 457 293 457 c 0
 200 457 146 395 146 302 c 2
 146 214 l 2
 146 121 200 59 293 59 c 0xbe
EndSplineSet
EndChar

StartChar: eth
Encoding: 240 240 226
Width: 600
Flags: MW
HStem: -12 69<255.5 344.5 255.5 374> 435 69<255.5 320.5 217.5 344.5> 720 20G<127 253 253 253>
VStem: 66 85<167.5 211 211 281 159 324.5> 449 85<211 281 281 333 173 410>
LayerCount: 2
Fore
SplineSet
421 753 m 1
 459 708 l 1
 372 647 l 1
 456 565 534 440 534 266 c 0
 534 80 445 -12 303 -12 c 0
 154 -12 66 89 66 246 c 0
 66 403 155 504 280 504 c 0
 361 504 413 461 445 408 c 1
 449 410 l 1
 416 492 371 555 315 608 c 1
 216 538 l 1
 178 583 l 1
 270 647 l 1
 226 682 178 712 127 740 c 1
 253 740 l 1
 275 726 301 709 327 688 c 1
 421 753 l 1
300 57 m 0
 389 57 449 107 449 211 c 2
 449 281 l 2
 449 385 389 435 300 435 c 0
 211 435 151 385 151 281 c 2
 151 211 l 2
 151 107 211 57 300 57 c 0
EndSplineSet
EndChar

StartChar: eacute
Encoding: 233 233 227
Width: 600
Flags: MW
HStem: -12 69<260.5 343.5 260.5 360> 238 60<151 447 151 533 151 447> 462 66<260 346.5> 585 194<309 342>
VStem: 67 84<175.5 214 214 238 298 305> 257 158<609 744> 447 86<238 309 238 354.5>
LayerCount: 2
Fore
SplineSet
415 744 m 1
 309 585 l 1
 257 609 l 1
 342 779 l 1
 415 744 l 1
309 -12 m 0xea
 161 -12 67 94 67 257 c 0
 67 422 164 528 304 528 c 0
 443 528 533 422 533 276 c 2
 533 238 l 1
 151 238 l 1
 151 214 l 2
 151 123 212 57 309 57 c 0
 378 57 430 91 457 147 c 1
 516 107 l 1
 485 38 411 -12 309 -12 c 0xea
304 462 m 0
 216 462 151 395 151 305 c 2
 151 298 l 1
 447 298 l 1
 447 309 l 2
 447 400 389 462 304 462 c 0
EndSplineSet
EndChar

StartChar: ebreve
Encoding: 277 277 228
Width: 600
Flags: MW
HStem: -12 69<260.5 343.5 260.5 360> 238 60<151 447 151 533 151 447> 462 66<260 346.5> 595 65<280 324 280 355.5>
VStem: 67 84<175.5 214 214 238 298 305> 141 322<746 746> 447 86<238 309 238 354.5>
LayerCount: 2
Fore
SplineSet
302 595 m 0x14
 195 595 160 685 141 746 c 1
 192 768 l 1
 213 734 l 2
 244 684 258 660 302 660 c 0
 346 660 360 684 391 734 c 2
 412 768 l 1
 463 746 l 1
 444 685 409 595 302 595 c 0x14
309 -12 m 0xea
 161 -12 67 94 67 257 c 0
 67 422 164 528 304 528 c 0
 443 528 533 422 533 276 c 2
 533 238 l 1
 151 238 l 1
 151 214 l 2
 151 123 212 57 309 57 c 0
 378 57 430 91 457 147 c 1
 516 107 l 1
 485 38 411 -12 309 -12 c 0xea
304 462 m 0
 216 462 151 395 151 305 c 2
 151 298 l 1
 447 298 l 1
 447 309 l 2
 447 400 389 462 304 462 c 0
EndSplineSet
EndChar

StartChar: ecaron
Encoding: 283 283 229
Width: 600
Flags: MW
HStem: -12 69<260.5 343.5 260.5 360> 238 60<151 447 151 533 151 447> 462 66<260 346.5> 599 174<187 352 187 252>
VStem: 67 84<175.5 214 214 238 298 305> 141 322<742 742> 447 86<238 309 238 354.5>
LayerCount: 2
Fore
SplineSet
352 599 m 1x14
 252 599 l 1
 141 742 l 1
 187 773 l 1
 304 656 l 1
 421 773 l 1
 463 742 l 1
 352 599 l 1x14
309 -12 m 0xea
 161 -12 67 94 67 257 c 0
 67 422 164 528 304 528 c 0
 443 528 533 422 533 276 c 2
 533 238 l 1
 151 238 l 1
 151 214 l 2
 151 123 212 57 309 57 c 0
 378 57 430 91 457 147 c 1
 516 107 l 1
 485 38 411 -12 309 -12 c 0xea
304 462 m 0
 216 462 151 395 151 305 c 2
 151 298 l 1
 447 298 l 1
 447 309 l 2
 447 400 389 462 304 462 c 0
EndSplineSet
EndChar

StartChar: ecircumflex
Encoding: 234 234 230
Width: 600
Flags: MW
HStem: -12 69<260.5 343.5 260.5 360> 238 60<151 447 151 533 151 447> 462 66<260 346.5> 591 174<184 352 252 418>
VStem: 67 84<175.5 214 214 238 298 305> 141 322<622 622> 447 86<238 309 238 354.5>
LayerCount: 2
Fore
SplineSet
252 765 m 1x14
 352 765 l 1
 463 622 l 1
 418 591 l 1
 301 708 l 1
 184 591 l 1
 141 622 l 1
 252 765 l 1x14
309 -12 m 0xea
 161 -12 67 94 67 257 c 0
 67 422 164 528 304 528 c 0
 443 528 533 422 533 276 c 2
 533 238 l 1
 151 238 l 1
 151 214 l 2
 151 123 212 57 309 57 c 0
 378 57 430 91 457 147 c 1
 516 107 l 1
 485 38 411 -12 309 -12 c 0xea
304 462 m 0
 216 462 151 395 151 305 c 2
 151 298 l 1
 447 298 l 1
 447 309 l 2
 447 400 389 462 304 462 c 0
EndSplineSet
EndChar

StartChar: edieresis
Encoding: 235 235 231
Width: 600
Flags: MW
HStem: -12 69<260.5 343.5 260.5 360> 238 60<151 447 151 533 151 447> 462 66<260 346.5> 618 106<188.5 229.5 374.5 415.5>
VStem: 67 84<175.5 214 214 238 298 305> 152 114<664 678 651 691> 338 114<664 678 651 691> 447 86<238 309 238 354.5>
LayerCount: 2
Fore
SplineSet
209 618 m 0x16
 168 618 152 638 152 664 c 2
 152 678 l 2
 152 704 168 724 209 724 c 0
 250 724 266 704 266 678 c 2
 266 664 l 2
 266 638 250 618 209 618 c 0x16
395 618 m 0
 354 618 338 638 338 664 c 2
 338 678 l 2
 338 704 354 724 395 724 c 0
 436 724 452 704 452 678 c 2
 452 664 l 2
 452 638 436 618 395 618 c 0
309 -12 m 0xe9
 161 -12 67 94 67 257 c 0
 67 422 164 528 304 528 c 0
 443 528 533 422 533 276 c 2
 533 238 l 1
 151 238 l 1
 151 214 l 2
 151 123 212 57 309 57 c 0
 378 57 430 91 457 147 c 1
 516 107 l 1
 485 38 411 -12 309 -12 c 0xe9
304 462 m 0
 216 462 151 395 151 305 c 2
 151 298 l 1
 447 298 l 1
 447 309 l 2
 447 400 389 462 304 462 c 0
EndSplineSet
EndChar

StartChar: edotaccent
Encoding: 279 279 232
Width: 600
Flags: MW
HStem: -12 69<260.5 343.5 260.5 360> 238 60<151 447 151 533 151 447> 462 66<260 346.5> 612 118<279 325>
VStem: 67 84<175.5 214 214 238 298 305> 239 126<663 679 648.5 693.5> 447 86<238 309 238 354.5>
LayerCount: 2
Fore
SplineSet
302 612 m 0
 256 612 239 634 239 663 c 2
 239 679 l 2
 239 708 256 730 302 730 c 0
 348 730 365 708 365 679 c 2
 365 663 l 2
 365 634 348 612 302 612 c 0
309 -12 m 0xea
 161 -12 67 94 67 257 c 0
 67 422 164 528 304 528 c 0
 443 528 533 422 533 276 c 2
 533 238 l 1
 151 238 l 1
 151 214 l 2
 151 123 212 57 309 57 c 0
 378 57 430 91 457 147 c 1
 516 107 l 1
 485 38 411 -12 309 -12 c 0xea
304 462 m 0
 216 462 151 395 151 305 c 2
 151 298 l 1
 447 298 l 1
 447 309 l 2
 447 400 389 462 304 462 c 0
EndSplineSet
EndChar

StartChar: uni1EB9
Encoding: 7865 7865 233
Width: 600
Flags: MW
HStem: -172 106<288.5 329.5> -12 69<260.5 343.5 260.5 360> 238 60<151 447 151 533 151 447> 462 66<260 346.5>
VStem: 67 84<175.5 214 214 238 298 305> 252 114<-126 -112 -139 -99> 447 86<238 309 238 354.5>
LayerCount: 2
Fore
SplineSet
309 -172 m 0
 268 -172 252 -152 252 -126 c 2
 252 -112 l 2
 252 -86 268 -66 309 -66 c 0
 350 -66 366 -86 366 -112 c 2
 366 -126 l 2
 366 -152 350 -172 309 -172 c 0
309 -12 m 0x7a
 161 -12 67 94 67 257 c 0
 67 422 164 528 304 528 c 0
 443 528 533 422 533 276 c 2
 533 238 l 1
 151 238 l 1
 151 214 l 2
 151 123 212 57 309 57 c 0
 378 57 430 91 457 147 c 1
 516 107 l 1
 485 38 411 -12 309 -12 c 0x7a
304 462 m 0
 216 462 151 395 151 305 c 2
 151 298 l 1
 447 298 l 1
 447 309 l 2
 447 400 389 462 304 462 c 0
EndSplineSet
EndChar

StartChar: egrave
Encoding: 232 232 234
Width: 600
Flags: MW
HStem: -12 69<260.5 343.5 260.5 360> 238 60<151 447 151 533 151 447> 462 66<260 346.5> 585 194<262 295>
VStem: 67 84<175.5 214 214 238 298 305> 189 158<609 744> 447 86<238 309 238 354.5>
LayerCount: 2
Fore
SplineSet
295 585 m 1
 189 744 l 1
 262 779 l 1
 347 609 l 1
 295 585 l 1
309 -12 m 0xea
 161 -12 67 94 67 257 c 0
 67 422 164 528 304 528 c 0
 443 528 533 422 533 276 c 2
 533 238 l 1
 151 238 l 1
 151 214 l 2
 151 123 212 57 309 57 c 0
 378 57 430 91 457 147 c 1
 516 107 l 1
 485 38 411 -12 309 -12 c 0xea
304 462 m 0
 216 462 151 395 151 305 c 2
 151 298 l 1
 447 298 l 1
 447 309 l 2
 447 400 389 462 304 462 c 0
EndSplineSet
EndChar

StartChar: uni1EBB
Encoding: 7867 7867 235
Width: 600
Flags: MW
HStem: -12 69<260.5 343.5 260.5 360> 238 60<151 447 151 533 151 447> 462 66<260 346.5> 704 61<218 327 218 327 327 336>
VStem: 67 84<175.5 214 214 238 298 305> 336 61<704 704> 447 86<238 309 238 354.5>
LayerCount: 2
Fore
SplineSet
218 704 m 1
 218 765 l 1
 327 765 l 2
 378 765 397 740 397 710 c 0
 397 681 379 646 348 607 c 2
 324 577 l 1
 278 600 l 1
 336 704 l 1
 218 704 l 1
309 -12 m 0xea
 161 -12 67 94 67 257 c 0
 67 422 164 528 304 528 c 0
 443 528 533 422 533 276 c 2
 533 238 l 1
 151 238 l 1
 151 214 l 2
 151 123 212 57 309 57 c 0
 378 57 430 91 457 147 c 1
 516 107 l 1
 485 38 411 -12 309 -12 c 0xea
304 462 m 0
 216 462 151 395 151 305 c 2
 151 298 l 1
 447 298 l 1
 447 309 l 2
 447 400 389 462 304 462 c 0
EndSplineSet
EndChar

StartChar: emacron
Encoding: 275 275 236
Width: 600
Flags: MW
HStem: -12 69<260.5 343.5 260.5 360> 238 60<151 447 151 533 151 447> 462 66<260 346.5> 637 68<162 442 162 442>
VStem: 67 84<175.5 214 214 238 298 305> 162 280<637 705 637 705> 447 86<238 309 238 354.5>
LayerCount: 2
Fore
SplineSet
162 637 m 1
 162 705 l 1
 442 705 l 1
 442 637 l 1
 162 637 l 1
309 -12 m 0xea
 161 -12 67 94 67 257 c 0
 67 422 164 528 304 528 c 0
 443 528 533 422 533 276 c 2
 533 238 l 1
 151 238 l 1
 151 214 l 2
 151 123 212 57 309 57 c 0
 378 57 430 91 457 147 c 1
 516 107 l 1
 485 38 411 -12 309 -12 c 0xea
304 462 m 0
 216 462 151 395 151 305 c 2
 151 298 l 1
 447 298 l 1
 447 309 l 2
 447 400 389 462 304 462 c 0
EndSplineSet
EndChar

StartChar: eogonek
Encoding: 281 281 237
Width: 600
Flags: MW
HStem: -207 56<351.5 373 351.5 386> -12 69<260.5 315.5> 238 60<151 447 151 533 151 447> 462 66<260 346.5>
VStem: 67 84<176 214 214 238 298 305> 252 68<-128 -103.5> 447 86<238 309 238 354.5>
LayerCount: 2
Fore
SplineSet
361 -207 m 0
 300 -207 252 -180 252 -127 c 0
 252 -80 291 -41 365 -6 c 1
 363 -3 l 1
 350 -8 329 -12 302 -12 c 0
 164 -12 67 94 67 258 c 0
 67 421 164 528 304 528 c 0
 443 528 533 422 533 276 c 2
 533 238 l 1
 151 238 l 1
 151 214 l 2
 151 123 212 57 309 57 c 0
 378 57 430 91 457 147 c 1
 516 107 l 1
 497 65 447 22 405 -12 c 0
 343 -63 320 -85 320 -114 c 0
 320 -142 341 -151 362 -151 c 0
 384 -151 401 -141 414 -125 c 1
 454 -166 l 1
 441 -188 411 -207 361 -207 c 0
151 298 m 1
 447 298 l 1
 447 309 l 2
 447 400 389 462 304 462 c 0
 216 462 151 395 151 305 c 2
 151 298 l 1
EndSplineSet
EndChar

StartChar: uni1EBD
Encoding: 7869 7869 238
Width: 600
Flags: MW
HStem: -12 69<260.5 343.5 260.5 360> 238 60<151 447 151 533 151 447> 462 66<260 346.5> 612 66<370.5 390 370.5 398> 662 66<214 233.5>
VStem: 67 84<175.5 214 214 238 298 305> 134 336<665 675> 447 86<238 309 238 354.5>
LayerCount: 2
Fore
SplineSet
375 612 m 0x12
 340 612 316 627 295 638 c 0
 263 655 242 662 225 662 c 0
 203 662 187 652 167 635 c 1
 134 675 l 1
 152 702 183 728 229 728 c 0x0a
 264 728 288 713 309 702 c 0
 341 685 362 678 379 678 c 0
 401 678 417 688 437 705 c 1
 470 665 l 1
 452 638 421 612 375 612 c 0x12
309 -12 m 0xe5
 161 -12 67 94 67 257 c 0
 67 422 164 528 304 528 c 0
 443 528 533 422 533 276 c 2
 533 238 l 1
 151 238 l 1
 151 214 l 2
 151 123 212 57 309 57 c 0
 378 57 430 91 457 147 c 1
 516 107 l 1
 485 38 411 -12 309 -12 c 0xe5
304 462 m 0
 216 462 151 395 151 305 c 2
 151 298 l 1
 447 298 l 1
 447 309 l 2
 447 400 389 462 304 462 c 0
EndSplineSet
EndChar

StartChar: uni1EBF
Encoding: 7871 7871 239
Width: 600
Flags: MW
HStem: -12 69<260.5 343.5 260.5 360> 238 60<151 447 151 533 151 447> 462 66<260 346.5> 581 324<184 492 418 492>
VStem: 67 84<175.5 214 214 238 298 305> 142 420<611 871> 447 86<238 309 238 354.5>
LayerCount: 2
Fore
SplineSet
562 871 m 1x14
 456 712 l 1
 407 735 l 1
 492 905 l 1
 562 871 l 1x14
252 755 m 1
 352 755 l 1
 462 611 l 1
 418 581 l 1
 301 700 l 1
 184 581 l 1
 142 611 l 1
 252 755 l 1
309 -12 m 0xea
 161 -12 67 94 67 257 c 0
 67 422 164 528 304 528 c 0
 443 528 533 422 533 276 c 2
 533 238 l 1
 151 238 l 1
 151 214 l 2
 151 123 212 57 309 57 c 0
 378 57 430 91 457 147 c 1
 516 107 l 1
 485 38 411 -12 309 -12 c 0xea
304 462 m 0
 216 462 151 395 151 305 c 2
 151 298 l 1
 447 298 l 1
 447 309 l 2
 447 400 389 462 304 462 c 0
EndSplineSet
EndChar

StartChar: uni1EC7
Encoding: 7879 7879 240
Width: 600
Flags: MW
HStem: -172 106<288.5 329.5> -12 69<260.5 343.5 260.5 360> 238 60<151 447 151 533 151 447> 462 66<260 346.5> 591 174<184 352 252 418>
VStem: 67 84<175.5 214 214 238 298 305> 141 322<622 622> 252 114<-126 -112 -139 -99> 447 86<238 309 238 354.5>
LayerCount: 2
Fore
SplineSet
309 -172 m 0x81
 268 -172 252 -152 252 -126 c 2
 252 -112 l 2
 252 -86 268 -66 309 -66 c 0
 350 -66 366 -86 366 -112 c 2
 366 -126 l 2
 366 -152 350 -172 309 -172 c 0x81
252 765 m 1x0a
 352 765 l 1
 463 622 l 1
 418 591 l 1
 301 708 l 1
 184 591 l 1
 141 622 l 1
 252 765 l 1x0a
309 -12 m 0x7480
 161 -12 67 94 67 257 c 0
 67 422 164 528 304 528 c 0
 443 528 533 422 533 276 c 2
 533 238 l 1
 151 238 l 1
 151 214 l 2
 151 123 212 57 309 57 c 0
 378 57 430 91 457 147 c 1
 516 107 l 1
 485 38 411 -12 309 -12 c 0x7480
304 462 m 0
 216 462 151 395 151 305 c 2
 151 298 l 1
 447 298 l 1
 447 309 l 2
 447 400 389 462 304 462 c 0
EndSplineSet
EndChar

StartChar: uni1EC1
Encoding: 7873 7873 241
Width: 600
Flags: MW
HStem: -12 69<260.5 343.5 260.5 360> 238 60<151 447 151 533 151 447> 462 66<260 346.5> 581 324<112 184 112 418>
VStem: 42 420<611 871> 67 84<175.5 214 214 238 298 305> 447 86<238 309 238 354.5>
LayerCount: 2
Fore
SplineSet
148 712 m 1x18
 42 871 l 1
 112 905 l 1
 197 735 l 1
 148 712 l 1x18
252 755 m 1
 352 755 l 1
 462 611 l 1
 418 581 l 1
 301 700 l 1
 184 581 l 1
 142 611 l 1
 252 755 l 1
309 -12 m 0xe6
 161 -12 67 94 67 257 c 0
 67 422 164 528 304 528 c 0
 443 528 533 422 533 276 c 2
 533 238 l 1
 151 238 l 1
 151 214 l 2
 151 123 212 57 309 57 c 0
 378 57 430 91 457 147 c 1
 516 107 l 1
 485 38 411 -12 309 -12 c 0xe6
304 462 m 0
 216 462 151 395 151 305 c 2
 151 298 l 1
 447 298 l 1
 447 309 l 2
 447 400 389 462 304 462 c 0
EndSplineSet
EndChar

StartChar: uni1EC3
Encoding: 7875 7875 242
Width: 600
Flags: MW
HStem: -12 69<260.5 343.5 260.5 360> 238 60<151 447 151 533 151 447> 462 66<260 346.5> 833 61<355 464 355 464 464 473>
VStem: 67 84<175.5 214 214 238 298 305> 447 86<238 309 238 354.5> 473 61<833 833>
LayerCount: 2
Fore
SplineSet
355 833 m 1x12
 355 894 l 1
 464 894 l 2
 515 894 534 869 534 839 c 0
 534 810 516 775 485 736 c 2
 461 706 l 1
 415 729 l 1
 473 833 l 1
 355 833 l 1x12
252 755 m 1
 352 755 l 1
 462 611 l 1
 418 581 l 1
 301 700 l 1
 184 581 l 1
 142 611 l 1
 252 755 l 1
309 -12 m 0xec
 161 -12 67 94 67 257 c 0
 67 422 164 528 304 528 c 0
 443 528 533 422 533 276 c 2
 533 238 l 1
 151 238 l 1
 151 214 l 2
 151 123 212 57 309 57 c 0
 378 57 430 91 457 147 c 1
 516 107 l 1
 485 38 411 -12 309 -12 c 0xec
304 462 m 0
 216 462 151 395 151 305 c 2
 151 298 l 1
 447 298 l 1
 447 309 l 2
 447 400 389 462 304 462 c 0
EndSplineSet
EndChar

StartChar: uni1EC5
Encoding: 7877 7877 243
Width: 600
Flags: MW
HStem: -12 69<260.5 343.5 260.5 360> 238 60<151 447 151 533 151 447> 462 66<260 346.5> 780 62<371.5 391 371.5 397> 830 62<213 232.5>
VStem: 67 84<175.5 214 214 238 298 305> 142 320<611 611> 447 86<238 309 238 354.5>
LayerCount: 2
Fore
SplineSet
230 892 m 0x0a
 265 892 289 877 310 866 c 0
 342 849 363 842 380 842 c 0
 402 842 418 852 438 869 c 1
 469 833 l 1
 451 806 420 780 374 780 c 0x12
 339 780 315 795 294 806 c 0
 262 823 241 830 224 830 c 0
 202 830 186 820 166 803 c 1
 135 839 l 1
 153 866 184 892 230 892 c 0x0a
252 745 m 1
 352 745 l 1
 462 611 l 1
 418 581 l 1
 301 692 l 1
 184 581 l 1
 142 611 l 1
 252 745 l 1
309 -12 m 0xe5
 161 -12 67 94 67 257 c 0
 67 422 164 528 304 528 c 0
 443 528 533 422 533 276 c 2
 533 238 l 1
 151 238 l 1
 151 214 l 2
 151 123 212 57 309 57 c 0
 378 57 430 91 457 147 c 1
 516 107 l 1
 485 38 411 -12 309 -12 c 0xe5
304 462 m 0
 216 462 151 395 151 305 c 2
 151 298 l 1
 447 298 l 1
 447 309 l 2
 447 400 389 462 304 462 c 0
EndSplineSet
EndChar

StartChar: uni0259
Encoding: 601 601 244
Width: 600
Flags: MW
HStem: -12 66<253.5 340 253.5 366> 218 60<153 153 153 449> 459 69<256.5 339.5>
VStem: 67 86<161.5 278 161.5 278> 449 84<211 218 218 218 278 302 302 340.5 176.5 347.5>
LayerCount: 2
Fore
SplineSet
67 278 m 1
 449 278 l 1
 449 302 l 2
 449 393 388 459 291 459 c 0
 222 459 170 425 143 369 c 1
 84 409 l 1
 115 478 189 528 291 528 c 0
 439 528 533 422 533 259 c 0
 533 94 436 -12 296 -12 c 0
 157 -12 67 94 67 240 c 2
 67 278 l 1
153 218 m 1
 153 207 l 2
 153 116 211 54 296 54 c 0
 384 54 449 121 449 211 c 2
 449 218 l 1
 153 218 l 1
EndSplineSet
EndChar

StartChar: gbreve
Encoding: 287 287 245
Width: 600
Flags: MW
HStem: -212 64<260 338 338 384.5 260 387> 5 74<257 371 371 374 195 371> 172 62<288.5 337 257.5 357.5> 452 64<462 556 462 462> 466 62<257.5 311.5 236.5 337> 595 65<275 319 275 350.5>
VStem: 67 76<-87.5 -56.5> 97 84<313.5 336 336 365 305.5 402.5> 105 69<101.5 124.5> 136 322<746 746> 414 84<336 365 365 369 297.5 395.5> 486 75<-91 -42.5>
LayerCount: 2
Fore
SplineSet
297 595 m 0x0440
 190 595 155 685 136 746 c 1
 187 768 l 1
 208 734 l 2
 239 684 253 660 297 660 c 0
 341 660 355 684 386 734 c 2
 407 768 l 1
 458 746 l 1
 439 685 404 595 297 595 c 0x0440
301 -212 m 0xf090
 135 -212 67 -166 67 -84 c 0xf220
 67 -29 98 1 151 15 c 1
 151 27 l 1
 122 41 105 63 105 98 c 0xf0a0
 105 151 145 175 198 188 c 1
 198 192 l 1
 135 220 97 277 97 350 c 0
 97 455 176 528 297 528 c 0xe920
 326 528 352 524 375 516 c 1
 556 516 l 1
 556 452 l 1
 462 452 l 1
 487 425 498 388 498 350 c 0xf220
 498 245 418 172 297 172 c 0
 280 172 264 173 248 176 c 1
 217 170 174 152 174 117 c 0
 174 86 208 79 257 79 c 2
 371 79 l 2
 504 79 561 25 561 -59 c 0
 561 -163 473 -212 301 -212 c 0xf090
297 234 m 0
 377 234 414 275 414 336 c 2
 414 365 l 2
 414 426 377 466 297 466 c 0
 218 466 181 426 181 365 c 2
 181 336 l 2xe920
 181 275 218 234 297 234 c 0
486 -63 m 0xf210
 486 -22 457 5 374 5 c 2
 195 5 l 1
 161 -9 143 -32 143 -65 c 0
 143 -110 176 -148 260 -148 c 2
 338 -148 l 2
 431 -148 486 -119 486 -63 c 0xf210
EndSplineSet
Substitution2: "'salt' Stylistic Alternatives lookup 16 subtable" gbreve.alt01
Substitution2: "'ss02' Style Set 2 lookup 12 subtable" gbreve.alt01
Substitution2: "'aalt' Access All Alternates lookup 0 subtable" gbreve.alt01
EndChar

StartChar: gcircumflex
Encoding: 285 285 246
Width: 600
Flags: MW
HStem: -212 64<260 338 338 384.5 260 387> 5 74<257 371 371 374 195 371> 172 62<288.5 337 257.5 357.5> 452 64<462 556 462 462> 466 62<257.5 311.5 236.5 337> 591 174<179 347 247 413>
VStem: 67 76<-87.5 -56.5> 97 84<313.5 336 336 365 305.5 402.5> 105 69<101.5 124.5> 136 322<622 622> 414 84<336 365 365 369 297.5 395.5> 486 75<-91 -42.5>
LayerCount: 2
Fore
SplineSet
247 765 m 1x0440
 347 765 l 1
 458 622 l 1
 413 591 l 1
 296 708 l 1
 179 591 l 1
 136 622 l 1
 247 765 l 1x0440
301 -212 m 0xf090
 135 -212 67 -166 67 -84 c 0xf220
 67 -29 98 1 151 15 c 1
 151 27 l 1
 122 41 105 63 105 98 c 0xf0a0
 105 151 145 175 198 188 c 1
 198 192 l 1
 135 220 97 277 97 350 c 0
 97 455 176 528 297 528 c 0xe920
 326 528 352 524 375 516 c 1
 556 516 l 1
 556 452 l 1
 462 452 l 1
 487 425 498 388 498 350 c 0xf220
 498 245 418 172 297 172 c 0
 280 172 264 173 248 176 c 1
 217 170 174 152 174 117 c 0
 174 86 208 79 257 79 c 2
 371 79 l 2
 504 79 561 25 561 -59 c 0
 561 -163 473 -212 301 -212 c 0xf090
297 234 m 0
 377 234 414 275 414 336 c 2
 414 365 l 2
 414 426 377 466 297 466 c 0
 218 466 181 426 181 365 c 2
 181 336 l 2xe920
 181 275 218 234 297 234 c 0
486 -63 m 0xf210
 486 -22 457 5 374 5 c 2
 195 5 l 1
 161 -9 143 -32 143 -65 c 0
 143 -110 176 -148 260 -148 c 2
 338 -148 l 2
 431 -148 486 -119 486 -63 c 0xf210
EndSplineSet
Substitution2: "'salt' Stylistic Alternatives lookup 16 subtable" gcircumflex.alt01
Substitution2: "'ss02' Style Set 2 lookup 12 subtable" gcircumflex.alt01
Substitution2: "'aalt' Access All Alternates lookup 0 subtable" gcircumflex.alt01
EndChar

StartChar: gcommaaccent
Encoding: 291 291 247
Width: 600
Flags: MW
HStem: -212 64<260 338 338 384.5 260 387> 5 74<257 371 371 374 195 371> 172 62<288.5 337 257.5 357.5> 466 62<257.5 316.5 236.5 337> 516 70<399 556 440 556 461 556 461 556> 587 189<240 377 316 349>
VStem: 67 76<-87.5 -56.5> 97 84<313.5 336 336 365 305.5 402.5> 105 69<101.5 124.5> 240 137 414 84<336 365 365 377 297.5 395.5> 486 75<-91 -42.5>
LayerCount: 2
Fore
SplineSet
240 587 m 1x0440
 316 776 l 1
 377 776 l 1
 349 587 l 1
 240 587 l 1x0440
561 -59 m 0xf090
 561 -163 473 -212 301 -212 c 0
 135 -212 67 -166 67 -84 c 0xf210
 67 -29 98 1 151 15 c 1
 151 27 l 1
 122 41 105 63 105 98 c 0xf0a0
 105 151 145 175 198 188 c 1
 198 192 l 1
 135 220 97 277 97 350 c 0
 97 455 176 528 297 528 c 0xf120
 336 528 370 521 399 507 c 1
 399 516 l 2
 399 556 416 586 461 586 c 2
 556 586 l 1
 556 516 l 1
 440 516 l 1
 440 481 l 1
 477 449 498 404 498 350 c 0xea20
 498 245 418 172 297 172 c 0
 280 172 264 173 248 176 c 1
 217 170 174 152 174 117 c 0
 174 86 208 79 257 79 c 2
 371 79 l 2
 504 79 561 25 561 -59 c 0xf090
486 -63 m 0
 486 -22 457 5 374 5 c 2
 195 5 l 1
 161 -9 143 -32 143 -65 c 0
 143 -110 176 -148 260 -148 c 2
 338 -148 l 2
 431 -148 486 -119 486 -63 c 0
297 234 m 0
 377 234 414 275 414 336 c 2
 414 365 l 2
 414 426 377 466 297 466 c 0
 218 466 181 426 181 365 c 2
 181 336 l 2xf120
 181 275 218 234 297 234 c 0
EndSplineSet
Substitution2: "'salt' Stylistic Alternatives lookup 16 subtable" gcommaaccent.alt01
Substitution2: "'ss02' Style Set 2 lookup 12 subtable" gcommaaccent.alt01
Substitution2: "'aalt' Access All Alternates lookup 0 subtable" gcommaaccent.alt01
EndChar

StartChar: gdotaccent
Encoding: 289 289 248
Width: 600
Flags: MW
HStem: -212 64<260 338 338 384.5 260 387> 5 74<257 371 371 374 195 371> 172 62<288.5 337 257.5 357.5> 466 62<257.5 316.5 236.5 337> 516 70<399 556 440 556 461 556 461 556> 612 118<274 320>
VStem: 67 76<-87.5 -56.5> 97 84<313.5 336 336 365 305.5 402.5> 105 69<101.5 124.5> 234 126<663 679 648.5 693.5> 414 84<336 365 365 377 297.5 395.5> 486 75<-91 -42.5>
LayerCount: 2
Fore
SplineSet
297 612 m 0x0440
 251 612 234 634 234 663 c 2
 234 679 l 2
 234 708 251 730 297 730 c 0
 343 730 360 708 360 679 c 2
 360 663 l 2
 360 634 343 612 297 612 c 0x0440
561 -59 m 0xf090
 561 -163 473 -212 301 -212 c 0
 135 -212 67 -166 67 -84 c 0xf210
 67 -29 98 1 151 15 c 1
 151 27 l 1
 122 41 105 63 105 98 c 0xf0a0
 105 151 145 175 198 188 c 1
 198 192 l 1
 135 220 97 277 97 350 c 0
 97 455 176 528 297 528 c 0xf120
 336 528 370 521 399 507 c 1
 399 516 l 2
 399 556 416 586 461 586 c 2
 556 586 l 1
 556 516 l 1
 440 516 l 1
 440 481 l 1
 477 449 498 404 498 350 c 0xea20
 498 245 418 172 297 172 c 0
 280 172 264 173 248 176 c 1
 217 170 174 152 174 117 c 0
 174 86 208 79 257 79 c 2
 371 79 l 2
 504 79 561 25 561 -59 c 0xf090
486 -63 m 0
 486 -22 457 5 374 5 c 2
 195 5 l 1
 161 -9 143 -32 143 -65 c 0
 143 -110 176 -148 260 -148 c 2
 338 -148 l 2
 431 -148 486 -119 486 -63 c 0
297 234 m 0
 377 234 414 275 414 336 c 2
 414 365 l 2
 414 426 377 466 297 466 c 0
 218 466 181 426 181 365 c 2
 181 336 l 2xf120
 181 275 218 234 297 234 c 0
EndSplineSet
Substitution2: "'salt' Stylistic Alternatives lookup 16 subtable" gdotaccent.alt01
Substitution2: "'ss02' Style Set 2 lookup 12 subtable" gdotaccent.alt01
Substitution2: "'aalt' Access All Alternates lookup 0 subtable" gdotaccent.alt01
EndChar

StartChar: gbreve.alt01
Encoding: 65564 -1 249
Width: 600
Flags: MW
HStem: -212 70<249.5 327.5 249.5 350> 2 71<246.5 298> 457 71<246.5 298 199 328.5> 496 20G<425 505 505 505> 595 65<265 309 265 340.5>
VStem: 60 86<184 228 228 302 181.5 346> 126 322<746 746> 425 80<12 17 17 98 98 98 179 351 351 385.5 432 516>
LayerCount: 2
Fore
SplineSet
287 595 m 0x0a
 180 595 145 685 126 746 c 1
 177 768 l 1
 198 734 l 2
 229 684 243 660 287 660 c 0
 331 660 345 684 376 734 c 2
 397 768 l 1
 448 746 l 1
 429 685 394 595 287 595 c 0x0a
505 516 m 1xd5
 505 17 l 2
 505 -125 422 -212 278 -212 c 0
 194 -212 134 -183 93 -141 c 1
 140 -86 l 1
 175 -122 220 -142 279 -142 c 0
 376 -142 425 -90 425 12 c 2
 425 98 l 1
 421 98 l 1
 388 35 334 2 262 2 c 0
 136 2 60 103 60 265 c 0
 60 427 136 528 262 528 c 0xe5
 334 528 388 495 421 432 c 1
 425 432 l 1
 425 516 l 1
 505 516 l 1xd5
293 73 m 0xd5
 364 73 425 110 425 179 c 2
 425 351 l 2
 425 420 364 457 293 457 c 0xe5
 200 457 146 395 146 302 c 2
 146 228 l 2
 146 135 200 73 293 73 c 0xd5
EndSplineSet
EndChar

StartChar: gcircumflex.alt01
Encoding: 65565 -1 250
Width: 600
Flags: MW
HStem: -212 70<249.5 327.5 249.5 350> 2 71<246.5 298> 457 71<246.5 298 199 328.5> 496 20G<425 505 505 505> 591 174<169 337 237 403>
VStem: 60 86<184 228 228 302 181.5 346> 126 322<622 622> 425 80<12 17 17 98 98 98 179 351 351 385.5 432 516>
LayerCount: 2
Fore
SplineSet
237 765 m 1x0a
 337 765 l 1
 448 622 l 1
 403 591 l 1
 286 708 l 1
 169 591 l 1
 126 622 l 1
 237 765 l 1x0a
505 516 m 1xd5
 505 17 l 2
 505 -125 422 -212 278 -212 c 0
 194 -212 134 -183 93 -141 c 1
 140 -86 l 1
 175 -122 220 -142 279 -142 c 0
 376 -142 425 -90 425 12 c 2
 425 98 l 1
 421 98 l 1
 388 35 334 2 262 2 c 0
 136 2 60 103 60 265 c 0
 60 427 136 528 262 528 c 0xe5
 334 528 388 495 421 432 c 1
 425 432 l 1
 425 516 l 1
 505 516 l 1xd5
293 73 m 0xd5
 364 73 425 110 425 179 c 2
 425 351 l 2
 425 420 364 457 293 457 c 0xe5
 200 457 146 395 146 302 c 2
 146 228 l 2
 146 135 200 73 293 73 c 0xd5
EndSplineSet
EndChar

StartChar: gcommaaccent.alt01
Encoding: 65566 -1 251
Width: 600
Flags: MW
HStem: -212 70<249.5 327.5 249.5 350> 2 71<246.5 298> 457 71<246.5 298 199 328.5> 496 20G<425 505 505 505> 587 189<230 367 306 339>
VStem: 60 86<184 228 228 302 181.5 346> 230 137 425 80<12 17 17 98 98 98 179 351 351 385.5 432 516>
LayerCount: 2
Fore
SplineSet
230 587 m 1x0a
 306 776 l 1
 367 776 l 1
 339 587 l 1
 230 587 l 1x0a
505 516 m 1xd5
 505 17 l 2
 505 -125 422 -212 278 -212 c 0
 194 -212 134 -183 93 -141 c 1
 140 -86 l 1
 175 -122 220 -142 279 -142 c 0
 376 -142 425 -90 425 12 c 2
 425 98 l 1
 421 98 l 1
 388 35 334 2 262 2 c 0
 136 2 60 103 60 265 c 0
 60 427 136 528 262 528 c 0xe5
 334 528 388 495 421 432 c 1
 425 432 l 1
 425 516 l 1
 505 516 l 1xd5
293 73 m 0xd5
 364 73 425 110 425 179 c 2
 425 351 l 2
 425 420 364 457 293 457 c 0xe5
 200 457 146 395 146 302 c 2
 146 228 l 2
 146 135 200 73 293 73 c 0xd5
EndSplineSet
EndChar

StartChar: gdotaccent.alt01
Encoding: 65567 -1 252
Width: 600
Flags: MW
HStem: -212 70<249.5 327.5 249.5 350> 2 71<246.5 298> 457 71<246.5 298 199 328.5> 496 20G<425 505 505 505> 612 118<264 310>
VStem: 60 86<184 228 228 302 181.5 346> 224 126<663 679 648.5 693.5> 425 80<12 17 17 98 98 98 179 351 351 385.5 432 516>
LayerCount: 2
Fore
SplineSet
287 612 m 0x0a
 241 612 224 634 224 663 c 2
 224 679 l 2
 224 708 241 730 287 730 c 0
 333 730 350 708 350 679 c 2
 350 663 l 2
 350 634 333 612 287 612 c 0x0a
505 516 m 1xd5
 505 17 l 2
 505 -125 422 -212 278 -212 c 0
 194 -212 134 -183 93 -141 c 1
 140 -86 l 1
 175 -122 220 -142 279 -142 c 0
 376 -142 425 -90 425 12 c 2
 425 98 l 1
 421 98 l 1
 388 35 334 2 262 2 c 0
 136 2 60 103 60 265 c 0
 60 427 136 528 262 528 c 0xe5
 334 528 388 495 421 432 c 1
 425 432 l 1
 425 516 l 1
 505 516 l 1xd5
293 73 m 0xd5
 364 73 425 110 425 179 c 2
 425 351 l 2
 425 420 364 457 293 457 c 0xe5
 200 457 146 395 146 302 c 2
 146 228 l 2
 146 135 200 73 293 73 c 0xd5
EndSplineSet
EndChar

StartChar: hbar
Encoding: 295 295 253
Width: 600
Flags: MW
HStem: 0 21G<98 178 98 98 428 428 428 508> 457 71<286.5 345.5> 608 62<33 98 33 98 178 331> 720 20G<98 178 178 178>
VStem: 98 80<0 358 432 608 670 740> 428 80<0 317 317 331 0 364>
LayerCount: 2
Fore
SplineSet
178 0 m 1
 98 0 l 1
 98 608 l 1
 33 608 l 1
 33 670 l 1
 98 670 l 1
 98 740 l 1
 178 740 l 1
 178 670 l 1
 331 670 l 1
 331 608 l 1
 178 608 l 1
 178 432 l 1
 182 432 l 1
 204 483 244 528 329 528 c 0
 437 528 508 456 508 331 c 2
 508 0 l 1
 428 0 l 1
 428 317 l 2
 428 411 385 457 306 457 c 0
 242 457 178 426 178 358 c 2
 178 0 l 1
EndSplineSet
EndChar

StartChar: hcircumflex
Encoding: 293 293 254
Width: 600
Flags: MW
HStem: 0 21G<98 98 98 178 428 428 428 508> 457 71<286.5 345.5> 720 20G<98 178 178 178> 773 174<20 188 88 254>
VStem: -23 322<804 804> 98 80<0 358 432 740> 428 80<0 317 317 331 0 364>
LayerCount: 2
Fore
SplineSet
88 947 m 1x18
 188 947 l 1
 299 804 l 1
 254 773 l 1
 137 890 l 1
 20 773 l 1
 -23 804 l 1
 88 947 l 1x18
98 0 m 1xe6
 98 740 l 1
 178 740 l 1
 178 432 l 1
 182 432 l 1
 204 483 244 528 329 528 c 0
 437 528 508 456 508 331 c 2
 508 0 l 1
 428 0 l 1
 428 317 l 2
 428 411 385 457 306 457 c 0
 242 457 178 426 178 358 c 2
 178 0 l 1
 98 0 l 1xe6
EndSplineSet
EndChar

StartChar: dotlessi
Encoding: 305 305 255
Width: 600
GlyphClass: 2
Flags: MW
HStem: 0 68<106 292 106 292 372 546> 448 68<106 292 106 372>
VStem: 292 80<68 448 448 448>
AnchorPoint: "Anchor-2" 332 516 basechar 0
AnchorPoint: "Anchor-1" 546 0 basechar 0
AnchorPoint: "Anchor-0" 332 0 basechar 0
LayerCount: 2
Fore
SplineSet
106 0 m 1
 106 68 l 1
 292 68 l 1
 292 448 l 1
 106 448 l 1
 106 516 l 1
 372 516 l 1
 372 68 l 1
 546 68 l 1
 546 0 l 1
 106 0 l 1
EndSplineSet
EndChar

StartChar: iacute
Encoding: 237 237 256
Width: 600
Flags: MW
HStem: 0 68<106 292 106 292 372 546> 448 68<106 292 106 372> 585 194<339 372>
VStem: 287 158<609 744> 292 80<68 448 448 448>
LayerCount: 2
Fore
SplineSet
445 744 m 1x30
 339 585 l 1
 287 609 l 1
 372 779 l 1
 445 744 l 1x30
106 0 m 1xc8
 106 68 l 1
 292 68 l 1
 292 448 l 1
 106 448 l 1
 106 516 l 1
 372 516 l 1
 372 68 l 1
 546 68 l 1
 546 0 l 1
 106 0 l 1xc8
EndSplineSet
EndChar

StartChar: ibreve
Encoding: 301 301 257
Width: 600
Flags: MW
HStem: 0 68<106 292 106 292 372 546> 448 68<106 292 106 372> 595 65<310 354 310 385.5>
VStem: 171 322<746 746> 292 80<68 448 448 448>
LayerCount: 2
Fore
SplineSet
332 595 m 0x30
 225 595 190 685 171 746 c 1
 222 768 l 1
 243 734 l 2
 274 684 288 660 332 660 c 0
 376 660 390 684 421 734 c 2
 442 768 l 1
 493 746 l 1
 474 685 439 595 332 595 c 0x30
106 0 m 1xc8
 106 68 l 1
 292 68 l 1
 292 448 l 1
 106 448 l 1
 106 516 l 1
 372 516 l 1
 372 68 l 1
 546 68 l 1
 546 0 l 1
 106 0 l 1xc8
EndSplineSet
EndChar

StartChar: icircumflex
Encoding: 238 238 258
Width: 600
Flags: MW
HStem: 0 68<106 292 106 292 372 546> 448 68<106 292 106 372> 591 174<214 382 282 448>
VStem: 171 322<622 622> 292 80<68 448 448 448>
LayerCount: 2
Fore
SplineSet
282 765 m 1x30
 382 765 l 1
 493 622 l 1
 448 591 l 1
 331 708 l 1
 214 591 l 1
 171 622 l 1
 282 765 l 1x30
106 0 m 1xc8
 106 68 l 1
 292 68 l 1
 292 448 l 1
 106 448 l 1
 106 516 l 1
 372 516 l 1
 372 68 l 1
 546 68 l 1
 546 0 l 1
 106 0 l 1xc8
EndSplineSet
EndChar

StartChar: idieresis
Encoding: 239 239 259
Width: 600
Flags: MW
HStem: 0 68<106 292 106 292 372 546> 448 68<106 292 106 372> 618 106<218.5 259.5 404.5 445.5>
VStem: 182 114<664 678 651 691> 292 80<68 448 448 448> 368 114<664 678 651 691>
LayerCount: 2
Fore
SplineSet
239 618 m 0x34
 198 618 182 638 182 664 c 2
 182 678 l 2
 182 704 198 724 239 724 c 0
 280 724 296 704 296 678 c 2
 296 664 l 2
 296 638 280 618 239 618 c 0x34
425 618 m 0
 384 618 368 638 368 664 c 2
 368 678 l 2
 368 704 384 724 425 724 c 0
 466 724 482 704 482 678 c 2
 482 664 l 2
 482 638 466 618 425 618 c 0
106 0 m 1xc8
 106 68 l 1
 292 68 l 1
 292 448 l 1
 106 448 l 1
 106 516 l 1
 372 516 l 1
 372 68 l 1
 546 68 l 1
 546 0 l 1
 106 0 l 1xc8
EndSplineSet
EndChar

StartChar: uni1ECB
Encoding: 7883 7883 260
Width: 600
Flags: MW
HStem: -172 106<311.5 352.5> 0 68<106 292 106 292 372 546> 448 68<106 292 106 372> 630 118<309 355>
VStem: 269 126<681 697 666.5 711.5> 275 114<-126 -112 -139 -99> 292 80<68 448 448 448>
LayerCount: 2
Fore
SplineSet
332 -172 m 0x84
 291 -172 275 -152 275 -126 c 2
 275 -112 l 2
 275 -86 291 -66 332 -66 c 0
 373 -66 389 -86 389 -112 c 2
 389 -126 l 2
 389 -152 373 -172 332 -172 c 0x84
332 630 m 0x78
 286 630 269 652 269 681 c 2
 269 697 l 2
 269 726 286 748 332 748 c 0
 378 748 395 726 395 697 c 2
 395 681 l 2
 395 652 378 630 332 630 c 0x78
106 0 m 1
 106 68 l 1
 292 68 l 1
 292 448 l 1
 106 448 l 1
 106 516 l 1
 372 516 l 1
 372 68 l 1x72
 546 68 l 1
 546 0 l 1
 106 0 l 1
EndSplineSet
EndChar

StartChar: igrave
Encoding: 236 236 261
Width: 600
Flags: MW
HStem: 0 68<106 292 106 292 372 546> 448 68<106 292 106 372> 585 194<292 325>
VStem: 219 158<609 744> 292 80<68 448 448 448>
LayerCount: 2
Fore
SplineSet
325 585 m 1x30
 219 744 l 1
 292 779 l 1
 377 609 l 1
 325 585 l 1x30
106 0 m 1xc8
 106 68 l 1
 292 68 l 1
 292 448 l 1
 106 448 l 1
 106 516 l 1
 372 516 l 1
 372 68 l 1
 546 68 l 1
 546 0 l 1
 106 0 l 1xc8
EndSplineSet
EndChar

StartChar: uni1EC9
Encoding: 7881 7881 262
Width: 600
Flags: MW
HStem: 0 68<106 292 106 292 372 546> 448 68<106 292 106 372> 704 61<248 357 248 357 357 366>
VStem: 292 80<68 448 448 448> 366 61<704 704>
LayerCount: 2
Fore
SplineSet
248 704 m 1x28
 248 765 l 1
 357 765 l 2
 408 765 427 740 427 710 c 0
 427 681 409 646 378 607 c 2
 354 577 l 1
 308 600 l 1
 366 704 l 1
 248 704 l 1x28
106 0 m 1xd0
 106 68 l 1
 292 68 l 1
 292 448 l 1
 106 448 l 1
 106 516 l 1
 372 516 l 1
 372 68 l 1
 546 68 l 1
 546 0 l 1
 106 0 l 1xd0
EndSplineSet
EndChar

StartChar: imacron
Encoding: 299 299 263
Width: 600
Flags: MW
HStem: 0 68<106 292 106 292 372 546> 448 68<106 292 106 372> 637 68<192 472 192 472>
VStem: 192 280<637 705 637 705> 292 80<68 448 448 448>
LayerCount: 2
Fore
SplineSet
192 637 m 1x30
 192 705 l 1
 472 705 l 1
 472 637 l 1
 192 637 l 1x30
106 0 m 1xc8
 106 68 l 1
 292 68 l 1
 292 448 l 1
 106 448 l 1
 106 516 l 1
 372 516 l 1
 372 68 l 1
 546 68 l 1
 546 0 l 1
 106 0 l 1xc8
EndSplineSet
EndChar

StartChar: iogonek
Encoding: 303 303 264
Width: 600
Flags: MW
HStem: -207 56<464.5 486 464.5 499> 0 68<106 292 372 479 106 292> 448 68<106 292 106 372> 630 118<309 355>
VStem: 269 126<681 697 666.5 711.5> 292 80<68 448 448 448> 365 68<-128 -104 -128 -103>
LayerCount: 2
Fore
SplineSet
474 -207 m 0xf2
 413 -207 365 -180 365 -127 c 0xf2
 365 -79 405 -39 480 -3 c 1
 479 0 l 1
 106 0 l 1
 106 68 l 1
 292 68 l 1
 292 448 l 1
 106 448 l 1
 106 516 l 1
 372 516 l 1
 372 68 l 1xf4
 546 68 l 1
 546 0 l 1
 443 -65 433 -94 433 -114 c 0
 433 -142 454 -151 475 -151 c 0
 497 -151 514 -141 527 -125 c 1
 567 -166 l 1
 554 -188 524 -207 474 -207 c 0xf2
332 630 m 0
 286 630 269 652 269 681 c 2
 269 697 l 2
 269 726 286 748 332 748 c 0
 378 748 395 726 395 697 c 2
 395 681 l 2xf8
 395 652 378 630 332 630 c 0
EndSplineSet
EndChar

StartChar: itilde
Encoding: 297 297 265
Width: 600
Flags: MW
HStem: 0 68<106 292 106 292 372 546> 448 68<106 292 106 372> 612 66<400.5 420 400.5 428> 662 66<244 263.5>
VStem: 164 336<665 675> 292 80<68 448 448 448>
LayerCount: 2
Fore
SplineSet
405 612 m 0x28
 370 612 346 627 325 638 c 0
 293 655 272 662 255 662 c 0
 233 662 217 652 197 635 c 1
 164 675 l 1
 182 702 213 728 259 728 c 0x18
 294 728 318 713 339 702 c 0
 371 685 392 678 409 678 c 0
 431 678 447 688 467 705 c 1
 500 665 l 1
 482 638 451 612 405 612 c 0x28
106 0 m 1xc4
 106 68 l 1
 292 68 l 1
 292 448 l 1
 106 448 l 1
 106 516 l 1
 372 516 l 1
 372 68 l 1
 546 68 l 1
 546 0 l 1
 106 0 l 1xc4
EndSplineSet
EndChar

StartChar: ij
Encoding: 307 307 266
Width: 600
Flags: MW
HStem: -200 68<185 415 185 381> 0 21G<105 105 105 185> 496 20G<105 185 185 185 415 495 495 495> 630 118<122 168 432 478>
VStem: 82 126<681 697 666.5 711.5> 105 80<0 516> 392 126<681 697 666.5 711.5> 415 80<-116.5 -82 -82 516>
LayerCount: 2
Fore
SplineSet
105 0 m 1xf5
 105 516 l 1
 185 516 l 1
 185 0 l 1
 105 0 l 1xf5
185 -200 m 1
 185 -132 l 1
 415 -132 l 1
 415 516 l 1
 495 516 l 1
 495 -82 l 2
 495 -151 459 -200 381 -200 c 2
 185 -200 l 1
145 630 m 0
 99 630 82 652 82 681 c 2
 82 697 l 2
 82 726 99 748 145 748 c 0
 191 748 208 726 208 697 c 2
 208 681 l 2xfa
 208 652 191 630 145 630 c 0
455 630 m 0
 409 630 392 652 392 681 c 2
 392 697 l 2
 392 726 409 748 455 748 c 0
 501 748 518 726 518 697 c 2
 518 681 l 2
 518 652 501 630 455 630 c 0
EndSplineSet
EndChar

StartChar: ijacute
Encoding: 65568 -1 267
Width: 600
Flags: MW
HStem: -200 68<185 415 185 381> 0 21G<105 105 105 185> 496 20G<105 185 185 185 415 495 495 495> 585 194<152 185>
VStem: 100 158<609 744> 105 80<0 516> 410 158<609 744> 415 80<-116.5 -82 -82 516>
LayerCount: 2
Fore
SplineSet
105 0 m 1xf5
 105 516 l 1
 185 516 l 1
 185 0 l 1
 105 0 l 1xf5
185 -200 m 1
 185 -132 l 1
 415 -132 l 1
 415 516 l 1
 495 516 l 1
 495 -82 l 2
 495 -151 459 -200 381 -200 c 2
 185 -200 l 1
152 585 m 1
 100 609 l 1xfa
 185 779 l 1xf5
 258 744 l 1xf9
 152 585 l 1
462 585 m 1
 410 609 l 1xf6
 495 779 l 1xf5
 568 744 l 1
 462 585 l 1
EndSplineSet
EndChar

StartChar: uni0237
Encoding: 567 567 268
Width: 600
GlyphClass: 2
Flags: MW
HStem: -200 68<102 352 102 318> 448 68<93 352 93 432>
VStem: 352 80<-116.5 -82 -82 448 448 448>
AnchorPoint: "Anchor-2" 392 516 basechar 0
LayerCount: 2
Fore
SplineSet
102 -200 m 1
 102 -132 l 1
 352 -132 l 1
 352 448 l 1
 93 448 l 1
 93 516 l 1
 432 516 l 1
 432 -82 l 2
 432 -151 396 -200 318 -200 c 2
 102 -200 l 1
EndSplineSet
EndChar

StartChar: jacute
Encoding: 65569 -1 269
Width: 600
Flags: MW
HStem: -200 68<102 352 102 318> 448 68<93 352 93 432> 585 194<399 432>
VStem: 347 158<609 744> 352 80<-116.5 -82 -82 448 448 448>
LayerCount: 2
Fore
SplineSet
505 744 m 1x30
 399 585 l 1
 347 609 l 1
 432 779 l 1
 505 744 l 1x30
102 -200 m 1xc8
 102 -132 l 1
 352 -132 l 1
 352 448 l 1
 93 448 l 1
 93 516 l 1
 432 516 l 1
 432 -82 l 2
 432 -151 396 -200 318 -200 c 2
 102 -200 l 1xc8
EndSplineSet
EndChar

StartChar: jcircumflex
Encoding: 309 309 270
Width: 600
Flags: MW
HStem: -200 68<102 352 102 318> 448 68<93 352 93 432> 591 174<274 442 342 508>
VStem: 231 322<622 622> 352 80<-116.5 -82 -82 448 448 448>
LayerCount: 2
Fore
SplineSet
342 765 m 1x30
 442 765 l 1
 553 622 l 1
 508 591 l 1
 391 708 l 1
 274 591 l 1
 231 622 l 1
 342 765 l 1x30
102 -200 m 1xc8
 102 -132 l 1
 352 -132 l 1
 352 448 l 1
 93 448 l 1
 93 516 l 1
 432 516 l 1
 432 -82 l 2
 432 -151 396 -200 318 -200 c 2
 102 -200 l 1xc8
EndSplineSet
EndChar

StartChar: kcommaaccent
Encoding: 311 311 271
Width: 600
Flags: MW
HStem: -251 189<243 380 271 304> 0 21G<105 105 105 185 475 475 475 574> 496 20G<451 549 549 549> 720 20G<105 185 185 185>
VStem: 105 80<0 187 273 740> 243 137
LayerCount: 2
Fore
SplineSet
243 -251 m 1
 271 -62 l 1
 380 -62 l 1
 304 -251 l 1
 243 -251 l 1
105 0 m 1x78
 105 740 l 1
 185 740 l 1
 185 273 l 1
 189 273 l 1
 279 358 l 1
 451 516 l 1
 549 516 l 1
 335 314 l 1
 574 0 l 1
 475 0 l 1
 274 268 l 1
 185 187 l 1
 185 0 l 1
 105 0 l 1x78
EndSplineSet
EndChar

